M48
; DRILL file {KiCad 7.0.10-7.0.10~ubuntu20.04.1} date Lu 22 iul 2024 23:56:01 +0300
; FORMAT={-:-/ absolute / metric / decimal}
; #@! TF.CreationDate,2024-07-22T23:56:01+03:00
; #@! TF.GenerationSoftware,Kicad,Pcbnew,7.0.10-7.0.10~ubuntu20.04.1
; #@! TF.FileFunction,MixedPlating,1,2
FMAT,2
METRIC
; #@! TA.AperFunction,Plated,PTH,ComponentDrill
T1C0.200
; #@! TA.AperFunction,Plated,PTH,ViaDrill
T2C0.500
; #@! TA.AperFunction,Plated,PTH,ComponentDrill
T3C0.800
; #@! TA.AperFunction,Plated,PTH,ComponentDrill
T4C0.950
; #@! TA.AperFunction,Plated,PTH,ComponentDrill
T5C1.000
; #@! TA.AperFunction,Plated,PTH,ComponentDrill
T6C3.200
%
G90
G05
T1
X7.315Y-19.918
X7.315Y-21.442
X8.077Y-19.155
X8.077Y-20.68
X8.077Y-22.205
X8.84Y-19.918
X8.84Y-21.442
X9.602Y-19.155
X9.602Y-20.68
X9.602Y-22.205
X10.365Y-19.918
X10.365Y-21.442
T2
X6.5Y-7.0
X6.5Y-31.5
X30.5Y-30.5
X38.5Y-30.5
X45.0Y-26.5
X45.0Y-43.5
X50.0Y-28.5
X50.0Y-40.5
X52.0Y-5.5
X52.0Y-13.5
X52.0Y-16.0
X52.0Y-24.0
X54.0Y-28.5
X62.0Y-28.5
T3
X81.55Y-21.0
X86.43Y-21.0
T4
X92.75Y-18.75
X92.75Y-21.25
X94.75Y-18.75
X94.75Y-21.25
T5
X2.5Y-42.5
X5.04Y-42.5
X7.58Y-42.5
X10.12Y-42.5
X12.66Y-42.5
X15.2Y-42.5
X17.74Y-42.5
X20.28Y-42.5
X22.82Y-42.5
X23.861Y-13.278
X23.861Y-15.818
X23.861Y-23.946
X23.861Y-26.486
X25.36Y-42.5
X27.9Y-42.5
X30.44Y-42.5
X32.98Y-42.5
X35.52Y-42.5
X38.06Y-42.5
X40.6Y-42.5
X42.403Y-13.278
X42.403Y-15.818
X42.403Y-23.946
X42.403Y-26.486
X43.14Y-42.5
X47.0Y-36.25
X47.0Y-43.75
X50.0Y-42.5
X52.54Y-42.5
X55.08Y-42.5
X57.62Y-42.5
X60.16Y-42.5
X62.7Y-42.5
X65.24Y-42.5
X67.78Y-42.5
X70.32Y-42.5
X72.86Y-42.5
X83.5Y-36.25
X83.5Y-43.75
T6
X97.5Y-7.5
X97.5Y-32.5
T5
G00X94.0Y-42.75
M15
G01X94.0Y-40.75
M16
G05
G00X98.0Y-46.45
M15
G01X96.0Y-46.45
M16
G05
G00X98.36Y-14.0
M15
G01X96.86Y-14.0
M16
G05
G00X98.36Y-26.0
M15
G01X96.86Y-26.0
M16
G05
G00X100.0Y-42.75
M15
G01X100.0Y-40.75
M16
G05
M30
