M48
; DRILL file {KiCad 7.0.10-7.0.10~ubuntu20.04.1} date Jo 25 iul 2024 21:12:09 +0300
; FORMAT={-:-/ absolute / metric / decimal}
; #@! TF.CreationDate,2024-07-25T21:12:09+03:00
; #@! TF.GenerationSoftware,Kicad,Pcbnew,7.0.10-7.0.10~ubuntu20.04.1
; #@! TF.FileFunction,MixedPlating,1,2
FMAT,2
METRIC
; #@! TA.AperFunction,Plated,PTH,ComponentDrill
T1C0.200
; #@! TA.AperFunction,Plated,PTH,ViaDrill
T2C0.500
; #@! TA.AperFunction,Plated,PTH,ComponentDrill
T3C0.800
; #@! TA.AperFunction,Plated,PTH,ComponentDrill
T4C0.950
; #@! TA.AperFunction,Plated,PTH,ComponentDrill
T5C1.000
; #@! TA.AperFunction,Plated,PTH,ComponentDrill
T6C3.200
%
G90
G05
T1
X19.155Y9.602
X19.155Y8.077
X19.918Y10.365
X19.918Y8.84
X19.918Y7.315
X20.68Y9.602
X20.68Y8.077
X21.442Y10.365
X21.442Y8.84
X21.442Y7.315
X22.205Y9.602
X22.205Y8.077
T2
X5.5Y52.0
X7.0Y6.5
X13.5Y52.0
X16.0Y52.0
X24.0Y52.0
X26.5Y45.0
X28.5Y62.0
X28.5Y54.0
X28.5Y50.0
X30.5Y38.5
X30.5Y30.5
X31.5Y6.5
X40.5Y50.0
X43.5Y45.0
T3
X21.0Y86.43
X21.0Y81.55
T4
X18.75Y94.75
X18.75Y92.75
X21.25Y94.75
X21.25Y92.75
T5
X13.278Y42.403
X13.278Y23.861
X15.818Y42.403
X15.818Y23.861
X23.946Y42.403
X23.946Y23.861
X26.486Y42.403
X26.486Y23.861
X36.25Y83.5
X36.25Y47.0
X42.5Y72.86
X42.5Y70.32
X42.5Y67.78
X42.5Y65.24
X42.5Y62.7
X42.5Y60.16
X42.5Y57.62
X42.5Y55.08
X42.5Y52.54
X42.5Y50.0
X42.5Y43.14
X42.5Y40.6
X42.5Y38.06
X42.5Y35.52
X42.5Y32.98
X42.5Y30.44
X42.5Y27.9
X42.5Y25.36
X42.5Y22.82
X42.5Y20.28
X42.5Y17.74
X42.5Y15.2
X42.5Y12.66
X42.5Y10.12
X42.5Y7.58
X42.5Y5.04
X42.5Y2.5
X43.75Y83.5
X43.75Y47.0
T6
X7.5Y97.5
X32.5Y97.5
T5
G00X14.0Y98.36
M15
G01X14.0Y96.86
M16
G05
G00X26.0Y98.36
M15
G01X26.0Y96.86
M16
G05
G00X42.75Y100.0
M15
G01X40.75Y100.0
M16
G05
G00X42.75Y94.0
M15
G01X40.75Y94.0
M16
G05
G00X46.45Y98.0
M15
G01X46.45Y96.0
M16
G05
M30
