%TF.GenerationSoftware,KiCad,Pcbnew,7.0.10-7.0.10~ubuntu20.04.1*%
%TF.CreationDate,2024-07-22T22:54:13+03:00*%
%TF.ProjectId,Dot-Matrix-Terminal,446f742d-4d61-4747-9269-782d5465726d,rev?*%
%TF.SameCoordinates,PX5f5e100PY5f5e100*%
%TF.FileFunction,Legend,Top*%
%TF.FilePolarity,Positive*%
%FSLAX46Y46*%
G04 Gerber Fmt 4.6, Leading zero omitted, Abs format (unit mm)*
G04 Created by KiCad (PCBNEW 7.0.10-7.0.10~ubuntu20.04.1) date 2024-07-22 22:54:13*
%MOMM*%
%LPD*%
G01*
G04 APERTURE LIST*
%ADD10C,0.150000*%
%ADD11C,0.100000*%
%ADD12C,0.120000*%
G04 APERTURE END LIST*
D10*
X44181000Y-28264002D02*
X22083000Y-28264000D01*
X22083001Y-11500000D01*
X44181000Y-11500000D01*
X44181000Y-28264002D01*
X74609580Y-40166666D02*
X74657200Y-40214285D01*
X74657200Y-40214285D02*
X74704819Y-40357142D01*
X74704819Y-40357142D02*
X74704819Y-40452380D01*
X74704819Y-40452380D02*
X74657200Y-40595237D01*
X74657200Y-40595237D02*
X74561961Y-40690475D01*
X74561961Y-40690475D02*
X74466723Y-40738094D01*
X74466723Y-40738094D02*
X74276247Y-40785713D01*
X74276247Y-40785713D02*
X74133390Y-40785713D01*
X74133390Y-40785713D02*
X73942914Y-40738094D01*
X73942914Y-40738094D02*
X73847676Y-40690475D01*
X73847676Y-40690475D02*
X73752438Y-40595237D01*
X73752438Y-40595237D02*
X73704819Y-40452380D01*
X73704819Y-40452380D02*
X73704819Y-40357142D01*
X73704819Y-40357142D02*
X73752438Y-40214285D01*
X73752438Y-40214285D02*
X73800057Y-40166666D01*
X73704819Y-39833332D02*
X73704819Y-39166666D01*
X73704819Y-39166666D02*
X74704819Y-39595237D01*
X45204819Y-47738094D02*
X44204819Y-47738094D01*
X44204819Y-47738094D02*
X44204819Y-47499999D01*
X44204819Y-47499999D02*
X44252438Y-47357142D01*
X44252438Y-47357142D02*
X44347676Y-47261904D01*
X44347676Y-47261904D02*
X44442914Y-47214285D01*
X44442914Y-47214285D02*
X44633390Y-47166666D01*
X44633390Y-47166666D02*
X44776247Y-47166666D01*
X44776247Y-47166666D02*
X44966723Y-47214285D01*
X44966723Y-47214285D02*
X45061961Y-47261904D01*
X45061961Y-47261904D02*
X45157200Y-47357142D01*
X45157200Y-47357142D02*
X45204819Y-47499999D01*
X45204819Y-47499999D02*
X45204819Y-47738094D01*
X44204819Y-46309523D02*
X44204819Y-46499999D01*
X44204819Y-46499999D02*
X44252438Y-46595237D01*
X44252438Y-46595237D02*
X44300057Y-46642856D01*
X44300057Y-46642856D02*
X44442914Y-46738094D01*
X44442914Y-46738094D02*
X44633390Y-46785713D01*
X44633390Y-46785713D02*
X45014342Y-46785713D01*
X45014342Y-46785713D02*
X45109580Y-46738094D01*
X45109580Y-46738094D02*
X45157200Y-46690475D01*
X45157200Y-46690475D02*
X45204819Y-46595237D01*
X45204819Y-46595237D02*
X45204819Y-46404761D01*
X45204819Y-46404761D02*
X45157200Y-46309523D01*
X45157200Y-46309523D02*
X45109580Y-46261904D01*
X45109580Y-46261904D02*
X45014342Y-46214285D01*
X45014342Y-46214285D02*
X44776247Y-46214285D01*
X44776247Y-46214285D02*
X44681009Y-46261904D01*
X44681009Y-46261904D02*
X44633390Y-46309523D01*
X44633390Y-46309523D02*
X44585771Y-46404761D01*
X44585771Y-46404761D02*
X44585771Y-46595237D01*
X44585771Y-46595237D02*
X44633390Y-46690475D01*
X44633390Y-46690475D02*
X44681009Y-46738094D01*
X44681009Y-46738094D02*
X44776247Y-46785713D01*
X14833333Y-36384819D02*
X14500000Y-35908628D01*
X14261905Y-36384819D02*
X14261905Y-35384819D01*
X14261905Y-35384819D02*
X14642857Y-35384819D01*
X14642857Y-35384819D02*
X14738095Y-35432438D01*
X14738095Y-35432438D02*
X14785714Y-35480057D01*
X14785714Y-35480057D02*
X14833333Y-35575295D01*
X14833333Y-35575295D02*
X14833333Y-35718152D01*
X14833333Y-35718152D02*
X14785714Y-35813390D01*
X14785714Y-35813390D02*
X14738095Y-35861009D01*
X14738095Y-35861009D02*
X14642857Y-35908628D01*
X14642857Y-35908628D02*
X14261905Y-35908628D01*
X15690476Y-35718152D02*
X15690476Y-36384819D01*
X15452381Y-35337200D02*
X15214286Y-36051485D01*
X15214286Y-36051485D02*
X15833333Y-36051485D01*
X21833333Y-36384819D02*
X21500000Y-35908628D01*
X21261905Y-36384819D02*
X21261905Y-35384819D01*
X21261905Y-35384819D02*
X21642857Y-35384819D01*
X21642857Y-35384819D02*
X21738095Y-35432438D01*
X21738095Y-35432438D02*
X21785714Y-35480057D01*
X21785714Y-35480057D02*
X21833333Y-35575295D01*
X21833333Y-35575295D02*
X21833333Y-35718152D01*
X21833333Y-35718152D02*
X21785714Y-35813390D01*
X21785714Y-35813390D02*
X21738095Y-35861009D01*
X21738095Y-35861009D02*
X21642857Y-35908628D01*
X21642857Y-35908628D02*
X21261905Y-35908628D01*
X22690476Y-35384819D02*
X22500000Y-35384819D01*
X22500000Y-35384819D02*
X22404762Y-35432438D01*
X22404762Y-35432438D02*
X22357143Y-35480057D01*
X22357143Y-35480057D02*
X22261905Y-35622914D01*
X22261905Y-35622914D02*
X22214286Y-35813390D01*
X22214286Y-35813390D02*
X22214286Y-36194342D01*
X22214286Y-36194342D02*
X22261905Y-36289580D01*
X22261905Y-36289580D02*
X22309524Y-36337200D01*
X22309524Y-36337200D02*
X22404762Y-36384819D01*
X22404762Y-36384819D02*
X22595238Y-36384819D01*
X22595238Y-36384819D02*
X22690476Y-36337200D01*
X22690476Y-36337200D02*
X22738095Y-36289580D01*
X22738095Y-36289580D02*
X22785714Y-36194342D01*
X22785714Y-36194342D02*
X22785714Y-35956247D01*
X22785714Y-35956247D02*
X22738095Y-35861009D01*
X22738095Y-35861009D02*
X22690476Y-35813390D01*
X22690476Y-35813390D02*
X22595238Y-35765771D01*
X22595238Y-35765771D02*
X22404762Y-35765771D01*
X22404762Y-35765771D02*
X22309524Y-35813390D01*
X22309524Y-35813390D02*
X22261905Y-35861009D01*
X22261905Y-35861009D02*
X22214286Y-35956247D01*
X18300057Y-38095238D02*
X18252438Y-38190476D01*
X18252438Y-38190476D02*
X18157200Y-38285714D01*
X18157200Y-38285714D02*
X18014342Y-38428571D01*
X18014342Y-38428571D02*
X17966723Y-38523809D01*
X17966723Y-38523809D02*
X17966723Y-38619047D01*
X18204819Y-38571428D02*
X18157200Y-38666666D01*
X18157200Y-38666666D02*
X18061961Y-38761904D01*
X18061961Y-38761904D02*
X17871485Y-38809523D01*
X17871485Y-38809523D02*
X17538152Y-38809523D01*
X17538152Y-38809523D02*
X17347676Y-38761904D01*
X17347676Y-38761904D02*
X17252438Y-38666666D01*
X17252438Y-38666666D02*
X17204819Y-38571428D01*
X17204819Y-38571428D02*
X17204819Y-38380952D01*
X17204819Y-38380952D02*
X17252438Y-38285714D01*
X17252438Y-38285714D02*
X17347676Y-38190476D01*
X17347676Y-38190476D02*
X17538152Y-38142857D01*
X17538152Y-38142857D02*
X17871485Y-38142857D01*
X17871485Y-38142857D02*
X18061961Y-38190476D01*
X18061961Y-38190476D02*
X18157200Y-38285714D01*
X18157200Y-38285714D02*
X18204819Y-38380952D01*
X18204819Y-38380952D02*
X18204819Y-38571428D01*
X17538152Y-37285714D02*
X18204819Y-37285714D01*
X17157200Y-37523809D02*
X17871485Y-37761904D01*
X17871485Y-37761904D02*
X17871485Y-37142857D01*
D11*
X43329800Y-10833332D02*
X43377419Y-10690475D01*
X43377419Y-10690475D02*
X43377419Y-10452380D01*
X43377419Y-10452380D02*
X43329800Y-10357142D01*
X43329800Y-10357142D02*
X43282180Y-10309523D01*
X43282180Y-10309523D02*
X43186942Y-10261904D01*
X43186942Y-10261904D02*
X43091704Y-10261904D01*
X43091704Y-10261904D02*
X42996466Y-10309523D01*
X42996466Y-10309523D02*
X42948847Y-10357142D01*
X42948847Y-10357142D02*
X42901228Y-10452380D01*
X42901228Y-10452380D02*
X42853609Y-10642856D01*
X42853609Y-10642856D02*
X42805990Y-10738094D01*
X42805990Y-10738094D02*
X42758371Y-10785713D01*
X42758371Y-10785713D02*
X42663133Y-10833332D01*
X42663133Y-10833332D02*
X42567895Y-10833332D01*
X42567895Y-10833332D02*
X42472657Y-10785713D01*
X42472657Y-10785713D02*
X42425038Y-10738094D01*
X42425038Y-10738094D02*
X42377419Y-10642856D01*
X42377419Y-10642856D02*
X42377419Y-10404761D01*
X42377419Y-10404761D02*
X42425038Y-10261904D01*
X42377419Y-9928570D02*
X43377419Y-9690475D01*
X43377419Y-9690475D02*
X42663133Y-9499999D01*
X42663133Y-9499999D02*
X43377419Y-9309523D01*
X43377419Y-9309523D02*
X42377419Y-9071428D01*
X43377419Y-8166666D02*
X43377419Y-8738094D01*
X43377419Y-8452380D02*
X42377419Y-8452380D01*
X42377419Y-8452380D02*
X42520276Y-8547618D01*
X42520276Y-8547618D02*
X42615514Y-8642856D01*
X42615514Y-8642856D02*
X42663133Y-8738094D01*
D10*
X77333333Y-22789580D02*
X77285714Y-22837200D01*
X77285714Y-22837200D02*
X77142857Y-22884819D01*
X77142857Y-22884819D02*
X77047619Y-22884819D01*
X77047619Y-22884819D02*
X76904762Y-22837200D01*
X76904762Y-22837200D02*
X76809524Y-22741961D01*
X76809524Y-22741961D02*
X76761905Y-22646723D01*
X76761905Y-22646723D02*
X76714286Y-22456247D01*
X76714286Y-22456247D02*
X76714286Y-22313390D01*
X76714286Y-22313390D02*
X76761905Y-22122914D01*
X76761905Y-22122914D02*
X76809524Y-22027676D01*
X76809524Y-22027676D02*
X76904762Y-21932438D01*
X76904762Y-21932438D02*
X77047619Y-21884819D01*
X77047619Y-21884819D02*
X77142857Y-21884819D01*
X77142857Y-21884819D02*
X77285714Y-21932438D01*
X77285714Y-21932438D02*
X77333333Y-21980057D01*
X78190476Y-22218152D02*
X78190476Y-22884819D01*
X77952381Y-21837200D02*
X77714286Y-22551485D01*
X77714286Y-22551485D02*
X78333333Y-22551485D01*
X42800057Y-38571428D02*
X42752438Y-38666666D01*
X42752438Y-38666666D02*
X42657200Y-38761904D01*
X42657200Y-38761904D02*
X42514342Y-38904761D01*
X42514342Y-38904761D02*
X42466723Y-38999999D01*
X42466723Y-38999999D02*
X42466723Y-39095237D01*
X42704819Y-39047618D02*
X42657200Y-39142856D01*
X42657200Y-39142856D02*
X42561961Y-39238094D01*
X42561961Y-39238094D02*
X42371485Y-39285713D01*
X42371485Y-39285713D02*
X42038152Y-39285713D01*
X42038152Y-39285713D02*
X41847676Y-39238094D01*
X41847676Y-39238094D02*
X41752438Y-39142856D01*
X41752438Y-39142856D02*
X41704819Y-39047618D01*
X41704819Y-39047618D02*
X41704819Y-38857142D01*
X41704819Y-38857142D02*
X41752438Y-38761904D01*
X41752438Y-38761904D02*
X41847676Y-38666666D01*
X41847676Y-38666666D02*
X42038152Y-38619047D01*
X42038152Y-38619047D02*
X42371485Y-38619047D01*
X42371485Y-38619047D02*
X42561961Y-38666666D01*
X42561961Y-38666666D02*
X42657200Y-38761904D01*
X42657200Y-38761904D02*
X42704819Y-38857142D01*
X42704819Y-38857142D02*
X42704819Y-39047618D01*
X42704819Y-37666666D02*
X42704819Y-38238094D01*
X42704819Y-37952380D02*
X41704819Y-37952380D01*
X41704819Y-37952380D02*
X41847676Y-38047618D01*
X41847676Y-38047618D02*
X41942914Y-38142856D01*
X41942914Y-38142856D02*
X41990533Y-38238094D01*
X42704819Y-36714285D02*
X42704819Y-37285713D01*
X42704819Y-36999999D02*
X41704819Y-36999999D01*
X41704819Y-36999999D02*
X41847676Y-37095237D01*
X41847676Y-37095237D02*
X41942914Y-37190475D01*
X41942914Y-37190475D02*
X41990533Y-37285713D01*
X28800057Y-38095238D02*
X28752438Y-38190476D01*
X28752438Y-38190476D02*
X28657200Y-38285714D01*
X28657200Y-38285714D02*
X28514342Y-38428571D01*
X28514342Y-38428571D02*
X28466723Y-38523809D01*
X28466723Y-38523809D02*
X28466723Y-38619047D01*
X28704819Y-38571428D02*
X28657200Y-38666666D01*
X28657200Y-38666666D02*
X28561961Y-38761904D01*
X28561961Y-38761904D02*
X28371485Y-38809523D01*
X28371485Y-38809523D02*
X28038152Y-38809523D01*
X28038152Y-38809523D02*
X27847676Y-38761904D01*
X27847676Y-38761904D02*
X27752438Y-38666666D01*
X27752438Y-38666666D02*
X27704819Y-38571428D01*
X27704819Y-38571428D02*
X27704819Y-38380952D01*
X27704819Y-38380952D02*
X27752438Y-38285714D01*
X27752438Y-38285714D02*
X27847676Y-38190476D01*
X27847676Y-38190476D02*
X28038152Y-38142857D01*
X28038152Y-38142857D02*
X28371485Y-38142857D01*
X28371485Y-38142857D02*
X28561961Y-38190476D01*
X28561961Y-38190476D02*
X28657200Y-38285714D01*
X28657200Y-38285714D02*
X28704819Y-38380952D01*
X28704819Y-38380952D02*
X28704819Y-38571428D01*
X27704819Y-37809523D02*
X27704819Y-37142857D01*
X27704819Y-37142857D02*
X28704819Y-37571428D01*
X28833333Y-36384819D02*
X28500000Y-35908628D01*
X28261905Y-36384819D02*
X28261905Y-35384819D01*
X28261905Y-35384819D02*
X28642857Y-35384819D01*
X28642857Y-35384819D02*
X28738095Y-35432438D01*
X28738095Y-35432438D02*
X28785714Y-35480057D01*
X28785714Y-35480057D02*
X28833333Y-35575295D01*
X28833333Y-35575295D02*
X28833333Y-35718152D01*
X28833333Y-35718152D02*
X28785714Y-35813390D01*
X28785714Y-35813390D02*
X28738095Y-35861009D01*
X28738095Y-35861009D02*
X28642857Y-35908628D01*
X28642857Y-35908628D02*
X28261905Y-35908628D01*
X29404762Y-35813390D02*
X29309524Y-35765771D01*
X29309524Y-35765771D02*
X29261905Y-35718152D01*
X29261905Y-35718152D02*
X29214286Y-35622914D01*
X29214286Y-35622914D02*
X29214286Y-35575295D01*
X29214286Y-35575295D02*
X29261905Y-35480057D01*
X29261905Y-35480057D02*
X29309524Y-35432438D01*
X29309524Y-35432438D02*
X29404762Y-35384819D01*
X29404762Y-35384819D02*
X29595238Y-35384819D01*
X29595238Y-35384819D02*
X29690476Y-35432438D01*
X29690476Y-35432438D02*
X29738095Y-35480057D01*
X29738095Y-35480057D02*
X29785714Y-35575295D01*
X29785714Y-35575295D02*
X29785714Y-35622914D01*
X29785714Y-35622914D02*
X29738095Y-35718152D01*
X29738095Y-35718152D02*
X29690476Y-35765771D01*
X29690476Y-35765771D02*
X29595238Y-35813390D01*
X29595238Y-35813390D02*
X29404762Y-35813390D01*
X29404762Y-35813390D02*
X29309524Y-35861009D01*
X29309524Y-35861009D02*
X29261905Y-35908628D01*
X29261905Y-35908628D02*
X29214286Y-36003866D01*
X29214286Y-36003866D02*
X29214286Y-36194342D01*
X29214286Y-36194342D02*
X29261905Y-36289580D01*
X29261905Y-36289580D02*
X29309524Y-36337200D01*
X29309524Y-36337200D02*
X29404762Y-36384819D01*
X29404762Y-36384819D02*
X29595238Y-36384819D01*
X29595238Y-36384819D02*
X29690476Y-36337200D01*
X29690476Y-36337200D02*
X29738095Y-36289580D01*
X29738095Y-36289580D02*
X29785714Y-36194342D01*
X29785714Y-36194342D02*
X29785714Y-36003866D01*
X29785714Y-36003866D02*
X29738095Y-35908628D01*
X29738095Y-35908628D02*
X29690476Y-35861009D01*
X29690476Y-35861009D02*
X29595238Y-35813390D01*
X46884819Y-30142857D02*
X46408628Y-30476190D01*
X46884819Y-30714285D02*
X45884819Y-30714285D01*
X45884819Y-30714285D02*
X45884819Y-30333333D01*
X45884819Y-30333333D02*
X45932438Y-30238095D01*
X45932438Y-30238095D02*
X45980057Y-30190476D01*
X45980057Y-30190476D02*
X46075295Y-30142857D01*
X46075295Y-30142857D02*
X46218152Y-30142857D01*
X46218152Y-30142857D02*
X46313390Y-30190476D01*
X46313390Y-30190476D02*
X46361009Y-30238095D01*
X46361009Y-30238095D02*
X46408628Y-30333333D01*
X46408628Y-30333333D02*
X46408628Y-30714285D01*
X46884819Y-29190476D02*
X46884819Y-29761904D01*
X46884819Y-29476190D02*
X45884819Y-29476190D01*
X45884819Y-29476190D02*
X46027676Y-29571428D01*
X46027676Y-29571428D02*
X46122914Y-29666666D01*
X46122914Y-29666666D02*
X46170533Y-29761904D01*
X45884819Y-28285714D02*
X45884819Y-28761904D01*
X45884819Y-28761904D02*
X46361009Y-28809523D01*
X46361009Y-28809523D02*
X46313390Y-28761904D01*
X46313390Y-28761904D02*
X46265771Y-28666666D01*
X46265771Y-28666666D02*
X46265771Y-28428571D01*
X46265771Y-28428571D02*
X46313390Y-28333333D01*
X46313390Y-28333333D02*
X46361009Y-28285714D01*
X46361009Y-28285714D02*
X46456247Y-28238095D01*
X46456247Y-28238095D02*
X46694342Y-28238095D01*
X46694342Y-28238095D02*
X46789580Y-28285714D01*
X46789580Y-28285714D02*
X46837200Y-28333333D01*
X46837200Y-28333333D02*
X46884819Y-28428571D01*
X46884819Y-28428571D02*
X46884819Y-28666666D01*
X46884819Y-28666666D02*
X46837200Y-28761904D01*
X46837200Y-28761904D02*
X46789580Y-28809523D01*
X51024819Y-30142857D02*
X50548628Y-30476190D01*
X51024819Y-30714285D02*
X50024819Y-30714285D01*
X50024819Y-30714285D02*
X50024819Y-30333333D01*
X50024819Y-30333333D02*
X50072438Y-30238095D01*
X50072438Y-30238095D02*
X50120057Y-30190476D01*
X50120057Y-30190476D02*
X50215295Y-30142857D01*
X50215295Y-30142857D02*
X50358152Y-30142857D01*
X50358152Y-30142857D02*
X50453390Y-30190476D01*
X50453390Y-30190476D02*
X50501009Y-30238095D01*
X50501009Y-30238095D02*
X50548628Y-30333333D01*
X50548628Y-30333333D02*
X50548628Y-30714285D01*
X51024819Y-29190476D02*
X51024819Y-29761904D01*
X51024819Y-29476190D02*
X50024819Y-29476190D01*
X50024819Y-29476190D02*
X50167676Y-29571428D01*
X50167676Y-29571428D02*
X50262914Y-29666666D01*
X50262914Y-29666666D02*
X50310533Y-29761904D01*
X50358152Y-28333333D02*
X51024819Y-28333333D01*
X49977200Y-28571428D02*
X50691485Y-28809523D01*
X50691485Y-28809523D02*
X50691485Y-28190476D01*
X38857142Y-36384819D02*
X38523809Y-35908628D01*
X38285714Y-36384819D02*
X38285714Y-35384819D01*
X38285714Y-35384819D02*
X38666666Y-35384819D01*
X38666666Y-35384819D02*
X38761904Y-35432438D01*
X38761904Y-35432438D02*
X38809523Y-35480057D01*
X38809523Y-35480057D02*
X38857142Y-35575295D01*
X38857142Y-35575295D02*
X38857142Y-35718152D01*
X38857142Y-35718152D02*
X38809523Y-35813390D01*
X38809523Y-35813390D02*
X38761904Y-35861009D01*
X38761904Y-35861009D02*
X38666666Y-35908628D01*
X38666666Y-35908628D02*
X38285714Y-35908628D01*
X39809523Y-36384819D02*
X39238095Y-36384819D01*
X39523809Y-36384819D02*
X39523809Y-35384819D01*
X39523809Y-35384819D02*
X39428571Y-35527676D01*
X39428571Y-35527676D02*
X39333333Y-35622914D01*
X39333333Y-35622914D02*
X39238095Y-35670533D01*
X40761904Y-36384819D02*
X40190476Y-36384819D01*
X40476190Y-36384819D02*
X40476190Y-35384819D01*
X40476190Y-35384819D02*
X40380952Y-35527676D01*
X40380952Y-35527676D02*
X40285714Y-35622914D01*
X40285714Y-35622914D02*
X40190476Y-35670533D01*
X88289580Y-24166666D02*
X88337200Y-24214285D01*
X88337200Y-24214285D02*
X88384819Y-24357142D01*
X88384819Y-24357142D02*
X88384819Y-24452380D01*
X88384819Y-24452380D02*
X88337200Y-24595237D01*
X88337200Y-24595237D02*
X88241961Y-24690475D01*
X88241961Y-24690475D02*
X88146723Y-24738094D01*
X88146723Y-24738094D02*
X87956247Y-24785713D01*
X87956247Y-24785713D02*
X87813390Y-24785713D01*
X87813390Y-24785713D02*
X87622914Y-24738094D01*
X87622914Y-24738094D02*
X87527676Y-24690475D01*
X87527676Y-24690475D02*
X87432438Y-24595237D01*
X87432438Y-24595237D02*
X87384819Y-24452380D01*
X87384819Y-24452380D02*
X87384819Y-24357142D01*
X87384819Y-24357142D02*
X87432438Y-24214285D01*
X87432438Y-24214285D02*
X87480057Y-24166666D01*
X88384819Y-23214285D02*
X88384819Y-23785713D01*
X88384819Y-23499999D02*
X87384819Y-23499999D01*
X87384819Y-23499999D02*
X87527676Y-23595237D01*
X87527676Y-23595237D02*
X87622914Y-23690475D01*
X87622914Y-23690475D02*
X87670533Y-23785713D01*
X7833333Y-36384819D02*
X7500000Y-35908628D01*
X7261905Y-36384819D02*
X7261905Y-35384819D01*
X7261905Y-35384819D02*
X7642857Y-35384819D01*
X7642857Y-35384819D02*
X7738095Y-35432438D01*
X7738095Y-35432438D02*
X7785714Y-35480057D01*
X7785714Y-35480057D02*
X7833333Y-35575295D01*
X7833333Y-35575295D02*
X7833333Y-35718152D01*
X7833333Y-35718152D02*
X7785714Y-35813390D01*
X7785714Y-35813390D02*
X7738095Y-35861009D01*
X7738095Y-35861009D02*
X7642857Y-35908628D01*
X7642857Y-35908628D02*
X7261905Y-35908628D01*
X8785714Y-36384819D02*
X8214286Y-36384819D01*
X8500000Y-36384819D02*
X8500000Y-35384819D01*
X8500000Y-35384819D02*
X8404762Y-35527676D01*
X8404762Y-35527676D02*
X8309524Y-35622914D01*
X8309524Y-35622914D02*
X8214286Y-35670533D01*
X23527665Y-28270819D02*
X23527665Y-28985104D01*
X23527665Y-28985104D02*
X23480046Y-29127961D01*
X23480046Y-29127961D02*
X23384808Y-29223200D01*
X23384808Y-29223200D02*
X23241951Y-29270819D01*
X23241951Y-29270819D02*
X23146713Y-29270819D01*
X24146713Y-28699390D02*
X24051475Y-28651771D01*
X24051475Y-28651771D02*
X24003856Y-28604152D01*
X24003856Y-28604152D02*
X23956237Y-28508914D01*
X23956237Y-28508914D02*
X23956237Y-28461295D01*
X23956237Y-28461295D02*
X24003856Y-28366057D01*
X24003856Y-28366057D02*
X24051475Y-28318438D01*
X24051475Y-28318438D02*
X24146713Y-28270819D01*
X24146713Y-28270819D02*
X24337189Y-28270819D01*
X24337189Y-28270819D02*
X24432427Y-28318438D01*
X24432427Y-28318438D02*
X24480046Y-28366057D01*
X24480046Y-28366057D02*
X24527665Y-28461295D01*
X24527665Y-28461295D02*
X24527665Y-28508914D01*
X24527665Y-28508914D02*
X24480046Y-28604152D01*
X24480046Y-28604152D02*
X24432427Y-28651771D01*
X24432427Y-28651771D02*
X24337189Y-28699390D01*
X24337189Y-28699390D02*
X24146713Y-28699390D01*
X24146713Y-28699390D02*
X24051475Y-28747009D01*
X24051475Y-28747009D02*
X24003856Y-28794628D01*
X24003856Y-28794628D02*
X23956237Y-28889866D01*
X23956237Y-28889866D02*
X23956237Y-29080342D01*
X23956237Y-29080342D02*
X24003856Y-29175580D01*
X24003856Y-29175580D02*
X24051475Y-29223200D01*
X24051475Y-29223200D02*
X24146713Y-29270819D01*
X24146713Y-29270819D02*
X24337189Y-29270819D01*
X24337189Y-29270819D02*
X24432427Y-29223200D01*
X24432427Y-29223200D02*
X24480046Y-29175580D01*
X24480046Y-29175580D02*
X24527665Y-29080342D01*
X24527665Y-29080342D02*
X24527665Y-28889866D01*
X24527665Y-28889866D02*
X24480046Y-28794628D01*
X24480046Y-28794628D02*
X24432427Y-28747009D01*
X24432427Y-28747009D02*
X24337189Y-28699390D01*
X32300057Y-38095238D02*
X32252438Y-38190476D01*
X32252438Y-38190476D02*
X32157200Y-38285714D01*
X32157200Y-38285714D02*
X32014342Y-38428571D01*
X32014342Y-38428571D02*
X31966723Y-38523809D01*
X31966723Y-38523809D02*
X31966723Y-38619047D01*
X32204819Y-38571428D02*
X32157200Y-38666666D01*
X32157200Y-38666666D02*
X32061961Y-38761904D01*
X32061961Y-38761904D02*
X31871485Y-38809523D01*
X31871485Y-38809523D02*
X31538152Y-38809523D01*
X31538152Y-38809523D02*
X31347676Y-38761904D01*
X31347676Y-38761904D02*
X31252438Y-38666666D01*
X31252438Y-38666666D02*
X31204819Y-38571428D01*
X31204819Y-38571428D02*
X31204819Y-38380952D01*
X31204819Y-38380952D02*
X31252438Y-38285714D01*
X31252438Y-38285714D02*
X31347676Y-38190476D01*
X31347676Y-38190476D02*
X31538152Y-38142857D01*
X31538152Y-38142857D02*
X31871485Y-38142857D01*
X31871485Y-38142857D02*
X32061961Y-38190476D01*
X32061961Y-38190476D02*
X32157200Y-38285714D01*
X32157200Y-38285714D02*
X32204819Y-38380952D01*
X32204819Y-38380952D02*
X32204819Y-38571428D01*
X31633390Y-37571428D02*
X31585771Y-37666666D01*
X31585771Y-37666666D02*
X31538152Y-37714285D01*
X31538152Y-37714285D02*
X31442914Y-37761904D01*
X31442914Y-37761904D02*
X31395295Y-37761904D01*
X31395295Y-37761904D02*
X31300057Y-37714285D01*
X31300057Y-37714285D02*
X31252438Y-37666666D01*
X31252438Y-37666666D02*
X31204819Y-37571428D01*
X31204819Y-37571428D02*
X31204819Y-37380952D01*
X31204819Y-37380952D02*
X31252438Y-37285714D01*
X31252438Y-37285714D02*
X31300057Y-37238095D01*
X31300057Y-37238095D02*
X31395295Y-37190476D01*
X31395295Y-37190476D02*
X31442914Y-37190476D01*
X31442914Y-37190476D02*
X31538152Y-37238095D01*
X31538152Y-37238095D02*
X31585771Y-37285714D01*
X31585771Y-37285714D02*
X31633390Y-37380952D01*
X31633390Y-37380952D02*
X31633390Y-37571428D01*
X31633390Y-37571428D02*
X31681009Y-37666666D01*
X31681009Y-37666666D02*
X31728628Y-37714285D01*
X31728628Y-37714285D02*
X31823866Y-37761904D01*
X31823866Y-37761904D02*
X32014342Y-37761904D01*
X32014342Y-37761904D02*
X32109580Y-37714285D01*
X32109580Y-37714285D02*
X32157200Y-37666666D01*
X32157200Y-37666666D02*
X32204819Y-37571428D01*
X32204819Y-37571428D02*
X32204819Y-37380952D01*
X32204819Y-37380952D02*
X32157200Y-37285714D01*
X32157200Y-37285714D02*
X32109580Y-37238095D01*
X32109580Y-37238095D02*
X32014342Y-37190476D01*
X32014342Y-37190476D02*
X31823866Y-37190476D01*
X31823866Y-37190476D02*
X31728628Y-37238095D01*
X31728628Y-37238095D02*
X31681009Y-37285714D01*
X31681009Y-37285714D02*
X31633390Y-37380952D01*
X1833333Y-32289580D02*
X1785714Y-32337200D01*
X1785714Y-32337200D02*
X1642857Y-32384819D01*
X1642857Y-32384819D02*
X1547619Y-32384819D01*
X1547619Y-32384819D02*
X1404762Y-32337200D01*
X1404762Y-32337200D02*
X1309524Y-32241961D01*
X1309524Y-32241961D02*
X1261905Y-32146723D01*
X1261905Y-32146723D02*
X1214286Y-31956247D01*
X1214286Y-31956247D02*
X1214286Y-31813390D01*
X1214286Y-31813390D02*
X1261905Y-31622914D01*
X1261905Y-31622914D02*
X1309524Y-31527676D01*
X1309524Y-31527676D02*
X1404762Y-31432438D01*
X1404762Y-31432438D02*
X1547619Y-31384819D01*
X1547619Y-31384819D02*
X1642857Y-31384819D01*
X1642857Y-31384819D02*
X1785714Y-31432438D01*
X1785714Y-31432438D02*
X1833333Y-31480057D01*
X2738095Y-31384819D02*
X2261905Y-31384819D01*
X2261905Y-31384819D02*
X2214286Y-31861009D01*
X2214286Y-31861009D02*
X2261905Y-31813390D01*
X2261905Y-31813390D02*
X2357143Y-31765771D01*
X2357143Y-31765771D02*
X2595238Y-31765771D01*
X2595238Y-31765771D02*
X2690476Y-31813390D01*
X2690476Y-31813390D02*
X2738095Y-31861009D01*
X2738095Y-31861009D02*
X2785714Y-31956247D01*
X2785714Y-31956247D02*
X2785714Y-32194342D01*
X2785714Y-32194342D02*
X2738095Y-32289580D01*
X2738095Y-32289580D02*
X2690476Y-32337200D01*
X2690476Y-32337200D02*
X2595238Y-32384819D01*
X2595238Y-32384819D02*
X2357143Y-32384819D01*
X2357143Y-32384819D02*
X2261905Y-32337200D01*
X2261905Y-32337200D02*
X2214286Y-32289580D01*
X25333333Y-36384819D02*
X25000000Y-35908628D01*
X24761905Y-36384819D02*
X24761905Y-35384819D01*
X24761905Y-35384819D02*
X25142857Y-35384819D01*
X25142857Y-35384819D02*
X25238095Y-35432438D01*
X25238095Y-35432438D02*
X25285714Y-35480057D01*
X25285714Y-35480057D02*
X25333333Y-35575295D01*
X25333333Y-35575295D02*
X25333333Y-35718152D01*
X25333333Y-35718152D02*
X25285714Y-35813390D01*
X25285714Y-35813390D02*
X25238095Y-35861009D01*
X25238095Y-35861009D02*
X25142857Y-35908628D01*
X25142857Y-35908628D02*
X24761905Y-35908628D01*
X25666667Y-35384819D02*
X26333333Y-35384819D01*
X26333333Y-35384819D02*
X25904762Y-36384819D01*
X6384819Y-32142857D02*
X5908628Y-32476190D01*
X6384819Y-32714285D02*
X5384819Y-32714285D01*
X5384819Y-32714285D02*
X5384819Y-32333333D01*
X5384819Y-32333333D02*
X5432438Y-32238095D01*
X5432438Y-32238095D02*
X5480057Y-32190476D01*
X5480057Y-32190476D02*
X5575295Y-32142857D01*
X5575295Y-32142857D02*
X5718152Y-32142857D01*
X5718152Y-32142857D02*
X5813390Y-32190476D01*
X5813390Y-32190476D02*
X5861009Y-32238095D01*
X5861009Y-32238095D02*
X5908628Y-32333333D01*
X5908628Y-32333333D02*
X5908628Y-32714285D01*
X6384819Y-31190476D02*
X6384819Y-31761904D01*
X6384819Y-31476190D02*
X5384819Y-31476190D01*
X5384819Y-31476190D02*
X5527676Y-31571428D01*
X5527676Y-31571428D02*
X5622914Y-31666666D01*
X5622914Y-31666666D02*
X5670533Y-31761904D01*
X5384819Y-30333333D02*
X5384819Y-30523809D01*
X5384819Y-30523809D02*
X5432438Y-30619047D01*
X5432438Y-30619047D02*
X5480057Y-30666666D01*
X5480057Y-30666666D02*
X5622914Y-30761904D01*
X5622914Y-30761904D02*
X5813390Y-30809523D01*
X5813390Y-30809523D02*
X6194342Y-30809523D01*
X6194342Y-30809523D02*
X6289580Y-30761904D01*
X6289580Y-30761904D02*
X6337200Y-30714285D01*
X6337200Y-30714285D02*
X6384819Y-30619047D01*
X6384819Y-30619047D02*
X6384819Y-30428571D01*
X6384819Y-30428571D02*
X6337200Y-30333333D01*
X6337200Y-30333333D02*
X6289580Y-30285714D01*
X6289580Y-30285714D02*
X6194342Y-30238095D01*
X6194342Y-30238095D02*
X5956247Y-30238095D01*
X5956247Y-30238095D02*
X5861009Y-30285714D01*
X5861009Y-30285714D02*
X5813390Y-30333333D01*
X5813390Y-30333333D02*
X5765771Y-30428571D01*
X5765771Y-30428571D02*
X5765771Y-30619047D01*
X5765771Y-30619047D02*
X5813390Y-30714285D01*
X5813390Y-30714285D02*
X5861009Y-30761904D01*
X5861009Y-30761904D02*
X5956247Y-30809523D01*
X25300057Y-38095238D02*
X25252438Y-38190476D01*
X25252438Y-38190476D02*
X25157200Y-38285714D01*
X25157200Y-38285714D02*
X25014342Y-38428571D01*
X25014342Y-38428571D02*
X24966723Y-38523809D01*
X24966723Y-38523809D02*
X24966723Y-38619047D01*
X25204819Y-38571428D02*
X25157200Y-38666666D01*
X25157200Y-38666666D02*
X25061961Y-38761904D01*
X25061961Y-38761904D02*
X24871485Y-38809523D01*
X24871485Y-38809523D02*
X24538152Y-38809523D01*
X24538152Y-38809523D02*
X24347676Y-38761904D01*
X24347676Y-38761904D02*
X24252438Y-38666666D01*
X24252438Y-38666666D02*
X24204819Y-38571428D01*
X24204819Y-38571428D02*
X24204819Y-38380952D01*
X24204819Y-38380952D02*
X24252438Y-38285714D01*
X24252438Y-38285714D02*
X24347676Y-38190476D01*
X24347676Y-38190476D02*
X24538152Y-38142857D01*
X24538152Y-38142857D02*
X24871485Y-38142857D01*
X24871485Y-38142857D02*
X25061961Y-38190476D01*
X25061961Y-38190476D02*
X25157200Y-38285714D01*
X25157200Y-38285714D02*
X25204819Y-38380952D01*
X25204819Y-38380952D02*
X25204819Y-38571428D01*
X24204819Y-37285714D02*
X24204819Y-37476190D01*
X24204819Y-37476190D02*
X24252438Y-37571428D01*
X24252438Y-37571428D02*
X24300057Y-37619047D01*
X24300057Y-37619047D02*
X24442914Y-37714285D01*
X24442914Y-37714285D02*
X24633390Y-37761904D01*
X24633390Y-37761904D02*
X25014342Y-37761904D01*
X25014342Y-37761904D02*
X25109580Y-37714285D01*
X25109580Y-37714285D02*
X25157200Y-37666666D01*
X25157200Y-37666666D02*
X25204819Y-37571428D01*
X25204819Y-37571428D02*
X25204819Y-37380952D01*
X25204819Y-37380952D02*
X25157200Y-37285714D01*
X25157200Y-37285714D02*
X25109580Y-37238095D01*
X25109580Y-37238095D02*
X25014342Y-37190476D01*
X25014342Y-37190476D02*
X24776247Y-37190476D01*
X24776247Y-37190476D02*
X24681009Y-37238095D01*
X24681009Y-37238095D02*
X24633390Y-37285714D01*
X24633390Y-37285714D02*
X24585771Y-37380952D01*
X24585771Y-37380952D02*
X24585771Y-37571428D01*
X24585771Y-37571428D02*
X24633390Y-37666666D01*
X24633390Y-37666666D02*
X24681009Y-37714285D01*
X24681009Y-37714285D02*
X24776247Y-37761904D01*
X83289580Y-24166666D02*
X83337200Y-24214285D01*
X83337200Y-24214285D02*
X83384819Y-24357142D01*
X83384819Y-24357142D02*
X83384819Y-24452380D01*
X83384819Y-24452380D02*
X83337200Y-24595237D01*
X83337200Y-24595237D02*
X83241961Y-24690475D01*
X83241961Y-24690475D02*
X83146723Y-24738094D01*
X83146723Y-24738094D02*
X82956247Y-24785713D01*
X82956247Y-24785713D02*
X82813390Y-24785713D01*
X82813390Y-24785713D02*
X82622914Y-24738094D01*
X82622914Y-24738094D02*
X82527676Y-24690475D01*
X82527676Y-24690475D02*
X82432438Y-24595237D01*
X82432438Y-24595237D02*
X82384819Y-24452380D01*
X82384819Y-24452380D02*
X82384819Y-24357142D01*
X82384819Y-24357142D02*
X82432438Y-24214285D01*
X82432438Y-24214285D02*
X82480057Y-24166666D01*
X82480057Y-23785713D02*
X82432438Y-23738094D01*
X82432438Y-23738094D02*
X82384819Y-23642856D01*
X82384819Y-23642856D02*
X82384819Y-23404761D01*
X82384819Y-23404761D02*
X82432438Y-23309523D01*
X82432438Y-23309523D02*
X82480057Y-23261904D01*
X82480057Y-23261904D02*
X82575295Y-23214285D01*
X82575295Y-23214285D02*
X82670533Y-23214285D01*
X82670533Y-23214285D02*
X82813390Y-23261904D01*
X82813390Y-23261904D02*
X83384819Y-23833332D01*
X83384819Y-23833332D02*
X83384819Y-23214285D01*
X19704819Y-47738094D02*
X18704819Y-47738094D01*
X18704819Y-47738094D02*
X18704819Y-47499999D01*
X18704819Y-47499999D02*
X18752438Y-47357142D01*
X18752438Y-47357142D02*
X18847676Y-47261904D01*
X18847676Y-47261904D02*
X18942914Y-47214285D01*
X18942914Y-47214285D02*
X19133390Y-47166666D01*
X19133390Y-47166666D02*
X19276247Y-47166666D01*
X19276247Y-47166666D02*
X19466723Y-47214285D01*
X19466723Y-47214285D02*
X19561961Y-47261904D01*
X19561961Y-47261904D02*
X19657200Y-47357142D01*
X19657200Y-47357142D02*
X19704819Y-47499999D01*
X19704819Y-47499999D02*
X19704819Y-47738094D01*
X18704819Y-46833332D02*
X18704819Y-46214285D01*
X18704819Y-46214285D02*
X19085771Y-46547618D01*
X19085771Y-46547618D02*
X19085771Y-46404761D01*
X19085771Y-46404761D02*
X19133390Y-46309523D01*
X19133390Y-46309523D02*
X19181009Y-46261904D01*
X19181009Y-46261904D02*
X19276247Y-46214285D01*
X19276247Y-46214285D02*
X19514342Y-46214285D01*
X19514342Y-46214285D02*
X19609580Y-46261904D01*
X19609580Y-46261904D02*
X19657200Y-46309523D01*
X19657200Y-46309523D02*
X19704819Y-46404761D01*
X19704819Y-46404761D02*
X19704819Y-46690475D01*
X19704819Y-46690475D02*
X19657200Y-46785713D01*
X19657200Y-46785713D02*
X19609580Y-46833332D01*
X14704819Y-47738094D02*
X13704819Y-47738094D01*
X13704819Y-47738094D02*
X13704819Y-47499999D01*
X13704819Y-47499999D02*
X13752438Y-47357142D01*
X13752438Y-47357142D02*
X13847676Y-47261904D01*
X13847676Y-47261904D02*
X13942914Y-47214285D01*
X13942914Y-47214285D02*
X14133390Y-47166666D01*
X14133390Y-47166666D02*
X14276247Y-47166666D01*
X14276247Y-47166666D02*
X14466723Y-47214285D01*
X14466723Y-47214285D02*
X14561961Y-47261904D01*
X14561961Y-47261904D02*
X14657200Y-47357142D01*
X14657200Y-47357142D02*
X14704819Y-47499999D01*
X14704819Y-47499999D02*
X14704819Y-47738094D01*
X13800057Y-46785713D02*
X13752438Y-46738094D01*
X13752438Y-46738094D02*
X13704819Y-46642856D01*
X13704819Y-46642856D02*
X13704819Y-46404761D01*
X13704819Y-46404761D02*
X13752438Y-46309523D01*
X13752438Y-46309523D02*
X13800057Y-46261904D01*
X13800057Y-46261904D02*
X13895295Y-46214285D01*
X13895295Y-46214285D02*
X13990533Y-46214285D01*
X13990533Y-46214285D02*
X14133390Y-46261904D01*
X14133390Y-46261904D02*
X14704819Y-46833332D01*
X14704819Y-46833332D02*
X14704819Y-46214285D01*
X1833333Y-34289580D02*
X1785714Y-34337200D01*
X1785714Y-34337200D02*
X1642857Y-34384819D01*
X1642857Y-34384819D02*
X1547619Y-34384819D01*
X1547619Y-34384819D02*
X1404762Y-34337200D01*
X1404762Y-34337200D02*
X1309524Y-34241961D01*
X1309524Y-34241961D02*
X1261905Y-34146723D01*
X1261905Y-34146723D02*
X1214286Y-33956247D01*
X1214286Y-33956247D02*
X1214286Y-33813390D01*
X1214286Y-33813390D02*
X1261905Y-33622914D01*
X1261905Y-33622914D02*
X1309524Y-33527676D01*
X1309524Y-33527676D02*
X1404762Y-33432438D01*
X1404762Y-33432438D02*
X1547619Y-33384819D01*
X1547619Y-33384819D02*
X1642857Y-33384819D01*
X1642857Y-33384819D02*
X1785714Y-33432438D01*
X1785714Y-33432438D02*
X1833333Y-33480057D01*
X2690476Y-33384819D02*
X2500000Y-33384819D01*
X2500000Y-33384819D02*
X2404762Y-33432438D01*
X2404762Y-33432438D02*
X2357143Y-33480057D01*
X2357143Y-33480057D02*
X2261905Y-33622914D01*
X2261905Y-33622914D02*
X2214286Y-33813390D01*
X2214286Y-33813390D02*
X2214286Y-34194342D01*
X2214286Y-34194342D02*
X2261905Y-34289580D01*
X2261905Y-34289580D02*
X2309524Y-34337200D01*
X2309524Y-34337200D02*
X2404762Y-34384819D01*
X2404762Y-34384819D02*
X2595238Y-34384819D01*
X2595238Y-34384819D02*
X2690476Y-34337200D01*
X2690476Y-34337200D02*
X2738095Y-34289580D01*
X2738095Y-34289580D02*
X2785714Y-34194342D01*
X2785714Y-34194342D02*
X2785714Y-33956247D01*
X2785714Y-33956247D02*
X2738095Y-33861009D01*
X2738095Y-33861009D02*
X2690476Y-33813390D01*
X2690476Y-33813390D02*
X2595238Y-33765771D01*
X2595238Y-33765771D02*
X2404762Y-33765771D01*
X2404762Y-33765771D02*
X2309524Y-33813390D01*
X2309524Y-33813390D02*
X2261905Y-33861009D01*
X2261905Y-33861009D02*
X2214286Y-33956247D01*
X35357142Y-36384819D02*
X35023809Y-35908628D01*
X34785714Y-36384819D02*
X34785714Y-35384819D01*
X34785714Y-35384819D02*
X35166666Y-35384819D01*
X35166666Y-35384819D02*
X35261904Y-35432438D01*
X35261904Y-35432438D02*
X35309523Y-35480057D01*
X35309523Y-35480057D02*
X35357142Y-35575295D01*
X35357142Y-35575295D02*
X35357142Y-35718152D01*
X35357142Y-35718152D02*
X35309523Y-35813390D01*
X35309523Y-35813390D02*
X35261904Y-35861009D01*
X35261904Y-35861009D02*
X35166666Y-35908628D01*
X35166666Y-35908628D02*
X34785714Y-35908628D01*
X36309523Y-36384819D02*
X35738095Y-36384819D01*
X36023809Y-36384819D02*
X36023809Y-35384819D01*
X36023809Y-35384819D02*
X35928571Y-35527676D01*
X35928571Y-35527676D02*
X35833333Y-35622914D01*
X35833333Y-35622914D02*
X35738095Y-35670533D01*
X36928571Y-35384819D02*
X37023809Y-35384819D01*
X37023809Y-35384819D02*
X37119047Y-35432438D01*
X37119047Y-35432438D02*
X37166666Y-35480057D01*
X37166666Y-35480057D02*
X37214285Y-35575295D01*
X37214285Y-35575295D02*
X37261904Y-35765771D01*
X37261904Y-35765771D02*
X37261904Y-36003866D01*
X37261904Y-36003866D02*
X37214285Y-36194342D01*
X37214285Y-36194342D02*
X37166666Y-36289580D01*
X37166666Y-36289580D02*
X37119047Y-36337200D01*
X37119047Y-36337200D02*
X37023809Y-36384819D01*
X37023809Y-36384819D02*
X36928571Y-36384819D01*
X36928571Y-36384819D02*
X36833333Y-36337200D01*
X36833333Y-36337200D02*
X36785714Y-36289580D01*
X36785714Y-36289580D02*
X36738095Y-36194342D01*
X36738095Y-36194342D02*
X36690476Y-36003866D01*
X36690476Y-36003866D02*
X36690476Y-35765771D01*
X36690476Y-35765771D02*
X36738095Y-35575295D01*
X36738095Y-35575295D02*
X36785714Y-35480057D01*
X36785714Y-35480057D02*
X36833333Y-35432438D01*
X36833333Y-35432438D02*
X36928571Y-35384819D01*
X63384819Y-13642857D02*
X62908628Y-13976190D01*
X63384819Y-14214285D02*
X62384819Y-14214285D01*
X62384819Y-14214285D02*
X62384819Y-13833333D01*
X62384819Y-13833333D02*
X62432438Y-13738095D01*
X62432438Y-13738095D02*
X62480057Y-13690476D01*
X62480057Y-13690476D02*
X62575295Y-13642857D01*
X62575295Y-13642857D02*
X62718152Y-13642857D01*
X62718152Y-13642857D02*
X62813390Y-13690476D01*
X62813390Y-13690476D02*
X62861009Y-13738095D01*
X62861009Y-13738095D02*
X62908628Y-13833333D01*
X62908628Y-13833333D02*
X62908628Y-14214285D01*
X63384819Y-12690476D02*
X63384819Y-13261904D01*
X63384819Y-12976190D02*
X62384819Y-12976190D01*
X62384819Y-12976190D02*
X62527676Y-13071428D01*
X62527676Y-13071428D02*
X62622914Y-13166666D01*
X62622914Y-13166666D02*
X62670533Y-13261904D01*
X63384819Y-12214285D02*
X63384819Y-12023809D01*
X63384819Y-12023809D02*
X63337200Y-11928571D01*
X63337200Y-11928571D02*
X63289580Y-11880952D01*
X63289580Y-11880952D02*
X63146723Y-11785714D01*
X63146723Y-11785714D02*
X62956247Y-11738095D01*
X62956247Y-11738095D02*
X62575295Y-11738095D01*
X62575295Y-11738095D02*
X62480057Y-11785714D01*
X62480057Y-11785714D02*
X62432438Y-11833333D01*
X62432438Y-11833333D02*
X62384819Y-11928571D01*
X62384819Y-11928571D02*
X62384819Y-12119047D01*
X62384819Y-12119047D02*
X62432438Y-12214285D01*
X62432438Y-12214285D02*
X62480057Y-12261904D01*
X62480057Y-12261904D02*
X62575295Y-12309523D01*
X62575295Y-12309523D02*
X62813390Y-12309523D01*
X62813390Y-12309523D02*
X62908628Y-12261904D01*
X62908628Y-12261904D02*
X62956247Y-12214285D01*
X62956247Y-12214285D02*
X63003866Y-12119047D01*
X63003866Y-12119047D02*
X63003866Y-11928571D01*
X63003866Y-11928571D02*
X62956247Y-11833333D01*
X62956247Y-11833333D02*
X62908628Y-11785714D01*
X62908628Y-11785714D02*
X62813390Y-11738095D01*
X42069664Y-28270818D02*
X42069664Y-28985103D01*
X42069664Y-28985103D02*
X42022045Y-29127960D01*
X42022045Y-29127960D02*
X41926807Y-29223199D01*
X41926807Y-29223199D02*
X41783950Y-29270818D01*
X41783950Y-29270818D02*
X41688712Y-29270818D01*
X42974426Y-28270818D02*
X42783950Y-28270818D01*
X42783950Y-28270818D02*
X42688712Y-28318437D01*
X42688712Y-28318437D02*
X42641093Y-28366056D01*
X42641093Y-28366056D02*
X42545855Y-28508913D01*
X42545855Y-28508913D02*
X42498236Y-28699389D01*
X42498236Y-28699389D02*
X42498236Y-29080341D01*
X42498236Y-29080341D02*
X42545855Y-29175579D01*
X42545855Y-29175579D02*
X42593474Y-29223199D01*
X42593474Y-29223199D02*
X42688712Y-29270818D01*
X42688712Y-29270818D02*
X42879188Y-29270818D01*
X42879188Y-29270818D02*
X42974426Y-29223199D01*
X42974426Y-29223199D02*
X43022045Y-29175579D01*
X43022045Y-29175579D02*
X43069664Y-29080341D01*
X43069664Y-29080341D02*
X43069664Y-28842246D01*
X43069664Y-28842246D02*
X43022045Y-28747008D01*
X43022045Y-28747008D02*
X42974426Y-28699389D01*
X42974426Y-28699389D02*
X42879188Y-28651770D01*
X42879188Y-28651770D02*
X42688712Y-28651770D01*
X42688712Y-28651770D02*
X42593474Y-28699389D01*
X42593474Y-28699389D02*
X42545855Y-28747008D01*
X42545855Y-28747008D02*
X42498236Y-28842246D01*
X69857142Y-16024819D02*
X69523809Y-15548628D01*
X69285714Y-16024819D02*
X69285714Y-15024819D01*
X69285714Y-15024819D02*
X69666666Y-15024819D01*
X69666666Y-15024819D02*
X69761904Y-15072438D01*
X69761904Y-15072438D02*
X69809523Y-15120057D01*
X69809523Y-15120057D02*
X69857142Y-15215295D01*
X69857142Y-15215295D02*
X69857142Y-15358152D01*
X69857142Y-15358152D02*
X69809523Y-15453390D01*
X69809523Y-15453390D02*
X69761904Y-15501009D01*
X69761904Y-15501009D02*
X69666666Y-15548628D01*
X69666666Y-15548628D02*
X69285714Y-15548628D01*
X70238095Y-15120057D02*
X70285714Y-15072438D01*
X70285714Y-15072438D02*
X70380952Y-15024819D01*
X70380952Y-15024819D02*
X70619047Y-15024819D01*
X70619047Y-15024819D02*
X70714285Y-15072438D01*
X70714285Y-15072438D02*
X70761904Y-15120057D01*
X70761904Y-15120057D02*
X70809523Y-15215295D01*
X70809523Y-15215295D02*
X70809523Y-15310533D01*
X70809523Y-15310533D02*
X70761904Y-15453390D01*
X70761904Y-15453390D02*
X70190476Y-16024819D01*
X70190476Y-16024819D02*
X70809523Y-16024819D01*
X71761904Y-16024819D02*
X71190476Y-16024819D01*
X71476190Y-16024819D02*
X71476190Y-15024819D01*
X71476190Y-15024819D02*
X71380952Y-15167676D01*
X71380952Y-15167676D02*
X71285714Y-15262914D01*
X71285714Y-15262914D02*
X71190476Y-15310533D01*
X23527665Y-17602819D02*
X23527665Y-18317104D01*
X23527665Y-18317104D02*
X23480046Y-18459961D01*
X23480046Y-18459961D02*
X23384808Y-18555200D01*
X23384808Y-18555200D02*
X23241951Y-18602819D01*
X23241951Y-18602819D02*
X23146713Y-18602819D01*
X24432427Y-17936152D02*
X24432427Y-18602819D01*
X24194332Y-17555200D02*
X23956237Y-18269485D01*
X23956237Y-18269485D02*
X24575284Y-18269485D01*
X17418095Y-30064819D02*
X17418095Y-30874342D01*
X17418095Y-30874342D02*
X17465714Y-30969580D01*
X17465714Y-30969580D02*
X17513333Y-31017200D01*
X17513333Y-31017200D02*
X17608571Y-31064819D01*
X17608571Y-31064819D02*
X17799047Y-31064819D01*
X17799047Y-31064819D02*
X17894285Y-31017200D01*
X17894285Y-31017200D02*
X17941904Y-30969580D01*
X17941904Y-30969580D02*
X17989523Y-30874342D01*
X17989523Y-30874342D02*
X17989523Y-30064819D01*
X18989523Y-31064819D02*
X18418095Y-31064819D01*
X18703809Y-31064819D02*
X18703809Y-30064819D01*
X18703809Y-30064819D02*
X18608571Y-30207676D01*
X18608571Y-30207676D02*
X18513333Y-30302914D01*
X18513333Y-30302914D02*
X18418095Y-30350533D01*
X32204819Y-47738094D02*
X31204819Y-47738094D01*
X31204819Y-47738094D02*
X31204819Y-47499999D01*
X31204819Y-47499999D02*
X31252438Y-47357142D01*
X31252438Y-47357142D02*
X31347676Y-47261904D01*
X31347676Y-47261904D02*
X31442914Y-47214285D01*
X31442914Y-47214285D02*
X31633390Y-47166666D01*
X31633390Y-47166666D02*
X31776247Y-47166666D01*
X31776247Y-47166666D02*
X31966723Y-47214285D01*
X31966723Y-47214285D02*
X32061961Y-47261904D01*
X32061961Y-47261904D02*
X32157200Y-47357142D01*
X32157200Y-47357142D02*
X32204819Y-47499999D01*
X32204819Y-47499999D02*
X32204819Y-47738094D01*
X31538152Y-46309523D02*
X32204819Y-46309523D01*
X31157200Y-46547618D02*
X31871485Y-46785713D01*
X31871485Y-46785713D02*
X31871485Y-46166666D01*
X56928571Y-14300057D02*
X56833333Y-14252438D01*
X56833333Y-14252438D02*
X56738095Y-14157200D01*
X56738095Y-14157200D02*
X56595238Y-14014342D01*
X56595238Y-14014342D02*
X56500000Y-13966723D01*
X56500000Y-13966723D02*
X56404762Y-13966723D01*
X56452381Y-14204819D02*
X56357143Y-14157200D01*
X56357143Y-14157200D02*
X56261905Y-14061961D01*
X56261905Y-14061961D02*
X56214286Y-13871485D01*
X56214286Y-13871485D02*
X56214286Y-13538152D01*
X56214286Y-13538152D02*
X56261905Y-13347676D01*
X56261905Y-13347676D02*
X56357143Y-13252438D01*
X56357143Y-13252438D02*
X56452381Y-13204819D01*
X56452381Y-13204819D02*
X56642857Y-13204819D01*
X56642857Y-13204819D02*
X56738095Y-13252438D01*
X56738095Y-13252438D02*
X56833333Y-13347676D01*
X56833333Y-13347676D02*
X56880952Y-13538152D01*
X56880952Y-13538152D02*
X56880952Y-13871485D01*
X56880952Y-13871485D02*
X56833333Y-14061961D01*
X56833333Y-14061961D02*
X56738095Y-14157200D01*
X56738095Y-14157200D02*
X56642857Y-14204819D01*
X56642857Y-14204819D02*
X56452381Y-14204819D01*
X57833333Y-14204819D02*
X57261905Y-14204819D01*
X57547619Y-14204819D02*
X57547619Y-13204819D01*
X57547619Y-13204819D02*
X57452381Y-13347676D01*
X57452381Y-13347676D02*
X57357143Y-13442914D01*
X57357143Y-13442914D02*
X57261905Y-13490533D01*
X58690476Y-13538152D02*
X58690476Y-14204819D01*
X58452381Y-13157200D02*
X58214286Y-13871485D01*
X58214286Y-13871485D02*
X58833333Y-13871485D01*
X69857142Y-18024819D02*
X69523809Y-17548628D01*
X69285714Y-18024819D02*
X69285714Y-17024819D01*
X69285714Y-17024819D02*
X69666666Y-17024819D01*
X69666666Y-17024819D02*
X69761904Y-17072438D01*
X69761904Y-17072438D02*
X69809523Y-17120057D01*
X69809523Y-17120057D02*
X69857142Y-17215295D01*
X69857142Y-17215295D02*
X69857142Y-17358152D01*
X69857142Y-17358152D02*
X69809523Y-17453390D01*
X69809523Y-17453390D02*
X69761904Y-17501009D01*
X69761904Y-17501009D02*
X69666666Y-17548628D01*
X69666666Y-17548628D02*
X69285714Y-17548628D01*
X70238095Y-17120057D02*
X70285714Y-17072438D01*
X70285714Y-17072438D02*
X70380952Y-17024819D01*
X70380952Y-17024819D02*
X70619047Y-17024819D01*
X70619047Y-17024819D02*
X70714285Y-17072438D01*
X70714285Y-17072438D02*
X70761904Y-17120057D01*
X70761904Y-17120057D02*
X70809523Y-17215295D01*
X70809523Y-17215295D02*
X70809523Y-17310533D01*
X70809523Y-17310533D02*
X70761904Y-17453390D01*
X70761904Y-17453390D02*
X70190476Y-18024819D01*
X70190476Y-18024819D02*
X70809523Y-18024819D01*
X71428571Y-17024819D02*
X71523809Y-17024819D01*
X71523809Y-17024819D02*
X71619047Y-17072438D01*
X71619047Y-17072438D02*
X71666666Y-17120057D01*
X71666666Y-17120057D02*
X71714285Y-17215295D01*
X71714285Y-17215295D02*
X71761904Y-17405771D01*
X71761904Y-17405771D02*
X71761904Y-17643866D01*
X71761904Y-17643866D02*
X71714285Y-17834342D01*
X71714285Y-17834342D02*
X71666666Y-17929580D01*
X71666666Y-17929580D02*
X71619047Y-17977200D01*
X71619047Y-17977200D02*
X71523809Y-18024819D01*
X71523809Y-18024819D02*
X71428571Y-18024819D01*
X71428571Y-18024819D02*
X71333333Y-17977200D01*
X71333333Y-17977200D02*
X71285714Y-17929580D01*
X71285714Y-17929580D02*
X71238095Y-17834342D01*
X71238095Y-17834342D02*
X71190476Y-17643866D01*
X71190476Y-17643866D02*
X71190476Y-17405771D01*
X71190476Y-17405771D02*
X71238095Y-17215295D01*
X71238095Y-17215295D02*
X71285714Y-17120057D01*
X71285714Y-17120057D02*
X71333333Y-17072438D01*
X71333333Y-17072438D02*
X71428571Y-17024819D01*
X32333333Y-36384819D02*
X32000000Y-35908628D01*
X31761905Y-36384819D02*
X31761905Y-35384819D01*
X31761905Y-35384819D02*
X32142857Y-35384819D01*
X32142857Y-35384819D02*
X32238095Y-35432438D01*
X32238095Y-35432438D02*
X32285714Y-35480057D01*
X32285714Y-35480057D02*
X32333333Y-35575295D01*
X32333333Y-35575295D02*
X32333333Y-35718152D01*
X32333333Y-35718152D02*
X32285714Y-35813390D01*
X32285714Y-35813390D02*
X32238095Y-35861009D01*
X32238095Y-35861009D02*
X32142857Y-35908628D01*
X32142857Y-35908628D02*
X31761905Y-35908628D01*
X32809524Y-36384819D02*
X33000000Y-36384819D01*
X33000000Y-36384819D02*
X33095238Y-36337200D01*
X33095238Y-36337200D02*
X33142857Y-36289580D01*
X33142857Y-36289580D02*
X33238095Y-36146723D01*
X33238095Y-36146723D02*
X33285714Y-35956247D01*
X33285714Y-35956247D02*
X33285714Y-35575295D01*
X33285714Y-35575295D02*
X33238095Y-35480057D01*
X33238095Y-35480057D02*
X33190476Y-35432438D01*
X33190476Y-35432438D02*
X33095238Y-35384819D01*
X33095238Y-35384819D02*
X32904762Y-35384819D01*
X32904762Y-35384819D02*
X32809524Y-35432438D01*
X32809524Y-35432438D02*
X32761905Y-35480057D01*
X32761905Y-35480057D02*
X32714286Y-35575295D01*
X32714286Y-35575295D02*
X32714286Y-35813390D01*
X32714286Y-35813390D02*
X32761905Y-35908628D01*
X32761905Y-35908628D02*
X32809524Y-35956247D01*
X32809524Y-35956247D02*
X32904762Y-36003866D01*
X32904762Y-36003866D02*
X33095238Y-36003866D01*
X33095238Y-36003866D02*
X33190476Y-35956247D01*
X33190476Y-35956247D02*
X33238095Y-35908628D01*
X33238095Y-35908628D02*
X33285714Y-35813390D01*
X35800057Y-38095238D02*
X35752438Y-38190476D01*
X35752438Y-38190476D02*
X35657200Y-38285714D01*
X35657200Y-38285714D02*
X35514342Y-38428571D01*
X35514342Y-38428571D02*
X35466723Y-38523809D01*
X35466723Y-38523809D02*
X35466723Y-38619047D01*
X35704819Y-38571428D02*
X35657200Y-38666666D01*
X35657200Y-38666666D02*
X35561961Y-38761904D01*
X35561961Y-38761904D02*
X35371485Y-38809523D01*
X35371485Y-38809523D02*
X35038152Y-38809523D01*
X35038152Y-38809523D02*
X34847676Y-38761904D01*
X34847676Y-38761904D02*
X34752438Y-38666666D01*
X34752438Y-38666666D02*
X34704819Y-38571428D01*
X34704819Y-38571428D02*
X34704819Y-38380952D01*
X34704819Y-38380952D02*
X34752438Y-38285714D01*
X34752438Y-38285714D02*
X34847676Y-38190476D01*
X34847676Y-38190476D02*
X35038152Y-38142857D01*
X35038152Y-38142857D02*
X35371485Y-38142857D01*
X35371485Y-38142857D02*
X35561961Y-38190476D01*
X35561961Y-38190476D02*
X35657200Y-38285714D01*
X35657200Y-38285714D02*
X35704819Y-38380952D01*
X35704819Y-38380952D02*
X35704819Y-38571428D01*
X35704819Y-37666666D02*
X35704819Y-37476190D01*
X35704819Y-37476190D02*
X35657200Y-37380952D01*
X35657200Y-37380952D02*
X35609580Y-37333333D01*
X35609580Y-37333333D02*
X35466723Y-37238095D01*
X35466723Y-37238095D02*
X35276247Y-37190476D01*
X35276247Y-37190476D02*
X34895295Y-37190476D01*
X34895295Y-37190476D02*
X34800057Y-37238095D01*
X34800057Y-37238095D02*
X34752438Y-37285714D01*
X34752438Y-37285714D02*
X34704819Y-37380952D01*
X34704819Y-37380952D02*
X34704819Y-37571428D01*
X34704819Y-37571428D02*
X34752438Y-37666666D01*
X34752438Y-37666666D02*
X34800057Y-37714285D01*
X34800057Y-37714285D02*
X34895295Y-37761904D01*
X34895295Y-37761904D02*
X35133390Y-37761904D01*
X35133390Y-37761904D02*
X35228628Y-37714285D01*
X35228628Y-37714285D02*
X35276247Y-37666666D01*
X35276247Y-37666666D02*
X35323866Y-37571428D01*
X35323866Y-37571428D02*
X35323866Y-37380952D01*
X35323866Y-37380952D02*
X35276247Y-37285714D01*
X35276247Y-37285714D02*
X35228628Y-37238095D01*
X35228628Y-37238095D02*
X35133390Y-37190476D01*
X49884819Y-30142857D02*
X49408628Y-30476190D01*
X49884819Y-30714285D02*
X48884819Y-30714285D01*
X48884819Y-30714285D02*
X48884819Y-30333333D01*
X48884819Y-30333333D02*
X48932438Y-30238095D01*
X48932438Y-30238095D02*
X48980057Y-30190476D01*
X48980057Y-30190476D02*
X49075295Y-30142857D01*
X49075295Y-30142857D02*
X49218152Y-30142857D01*
X49218152Y-30142857D02*
X49313390Y-30190476D01*
X49313390Y-30190476D02*
X49361009Y-30238095D01*
X49361009Y-30238095D02*
X49408628Y-30333333D01*
X49408628Y-30333333D02*
X49408628Y-30714285D01*
X49884819Y-29190476D02*
X49884819Y-29761904D01*
X49884819Y-29476190D02*
X48884819Y-29476190D01*
X48884819Y-29476190D02*
X49027676Y-29571428D01*
X49027676Y-29571428D02*
X49122914Y-29666666D01*
X49122914Y-29666666D02*
X49170533Y-29761904D01*
X48884819Y-28857142D02*
X48884819Y-28238095D01*
X48884819Y-28238095D02*
X49265771Y-28571428D01*
X49265771Y-28571428D02*
X49265771Y-28428571D01*
X49265771Y-28428571D02*
X49313390Y-28333333D01*
X49313390Y-28333333D02*
X49361009Y-28285714D01*
X49361009Y-28285714D02*
X49456247Y-28238095D01*
X49456247Y-28238095D02*
X49694342Y-28238095D01*
X49694342Y-28238095D02*
X49789580Y-28285714D01*
X49789580Y-28285714D02*
X49837200Y-28333333D01*
X49837200Y-28333333D02*
X49884819Y-28428571D01*
X49884819Y-28428571D02*
X49884819Y-28714285D01*
X49884819Y-28714285D02*
X49837200Y-28809523D01*
X49837200Y-28809523D02*
X49789580Y-28857142D01*
X11333333Y-36384819D02*
X11000000Y-35908628D01*
X10761905Y-36384819D02*
X10761905Y-35384819D01*
X10761905Y-35384819D02*
X11142857Y-35384819D01*
X11142857Y-35384819D02*
X11238095Y-35432438D01*
X11238095Y-35432438D02*
X11285714Y-35480057D01*
X11285714Y-35480057D02*
X11333333Y-35575295D01*
X11333333Y-35575295D02*
X11333333Y-35718152D01*
X11333333Y-35718152D02*
X11285714Y-35813390D01*
X11285714Y-35813390D02*
X11238095Y-35861009D01*
X11238095Y-35861009D02*
X11142857Y-35908628D01*
X11142857Y-35908628D02*
X10761905Y-35908628D01*
X11666667Y-35384819D02*
X12285714Y-35384819D01*
X12285714Y-35384819D02*
X11952381Y-35765771D01*
X11952381Y-35765771D02*
X12095238Y-35765771D01*
X12095238Y-35765771D02*
X12190476Y-35813390D01*
X12190476Y-35813390D02*
X12238095Y-35861009D01*
X12238095Y-35861009D02*
X12285714Y-35956247D01*
X12285714Y-35956247D02*
X12285714Y-36194342D01*
X12285714Y-36194342D02*
X12238095Y-36289580D01*
X12238095Y-36289580D02*
X12190476Y-36337200D01*
X12190476Y-36337200D02*
X12095238Y-36384819D01*
X12095238Y-36384819D02*
X11809524Y-36384819D01*
X11809524Y-36384819D02*
X11714286Y-36337200D01*
X11714286Y-36337200D02*
X11666667Y-36289580D01*
X18333333Y-36384819D02*
X18000000Y-35908628D01*
X17761905Y-36384819D02*
X17761905Y-35384819D01*
X17761905Y-35384819D02*
X18142857Y-35384819D01*
X18142857Y-35384819D02*
X18238095Y-35432438D01*
X18238095Y-35432438D02*
X18285714Y-35480057D01*
X18285714Y-35480057D02*
X18333333Y-35575295D01*
X18333333Y-35575295D02*
X18333333Y-35718152D01*
X18333333Y-35718152D02*
X18285714Y-35813390D01*
X18285714Y-35813390D02*
X18238095Y-35861009D01*
X18238095Y-35861009D02*
X18142857Y-35908628D01*
X18142857Y-35908628D02*
X17761905Y-35908628D01*
X19238095Y-35384819D02*
X18761905Y-35384819D01*
X18761905Y-35384819D02*
X18714286Y-35861009D01*
X18714286Y-35861009D02*
X18761905Y-35813390D01*
X18761905Y-35813390D02*
X18857143Y-35765771D01*
X18857143Y-35765771D02*
X19095238Y-35765771D01*
X19095238Y-35765771D02*
X19190476Y-35813390D01*
X19190476Y-35813390D02*
X19238095Y-35861009D01*
X19238095Y-35861009D02*
X19285714Y-35956247D01*
X19285714Y-35956247D02*
X19285714Y-36194342D01*
X19285714Y-36194342D02*
X19238095Y-36289580D01*
X19238095Y-36289580D02*
X19190476Y-36337200D01*
X19190476Y-36337200D02*
X19095238Y-36384819D01*
X19095238Y-36384819D02*
X18857143Y-36384819D01*
X18857143Y-36384819D02*
X18761905Y-36337200D01*
X18761905Y-36337200D02*
X18714286Y-36289580D01*
X56928571Y-18300057D02*
X56833333Y-18252438D01*
X56833333Y-18252438D02*
X56738095Y-18157200D01*
X56738095Y-18157200D02*
X56595238Y-18014342D01*
X56595238Y-18014342D02*
X56500000Y-17966723D01*
X56500000Y-17966723D02*
X56404762Y-17966723D01*
X56452381Y-18204819D02*
X56357143Y-18157200D01*
X56357143Y-18157200D02*
X56261905Y-18061961D01*
X56261905Y-18061961D02*
X56214286Y-17871485D01*
X56214286Y-17871485D02*
X56214286Y-17538152D01*
X56214286Y-17538152D02*
X56261905Y-17347676D01*
X56261905Y-17347676D02*
X56357143Y-17252438D01*
X56357143Y-17252438D02*
X56452381Y-17204819D01*
X56452381Y-17204819D02*
X56642857Y-17204819D01*
X56642857Y-17204819D02*
X56738095Y-17252438D01*
X56738095Y-17252438D02*
X56833333Y-17347676D01*
X56833333Y-17347676D02*
X56880952Y-17538152D01*
X56880952Y-17538152D02*
X56880952Y-17871485D01*
X56880952Y-17871485D02*
X56833333Y-18061961D01*
X56833333Y-18061961D02*
X56738095Y-18157200D01*
X56738095Y-18157200D02*
X56642857Y-18204819D01*
X56642857Y-18204819D02*
X56452381Y-18204819D01*
X57833333Y-18204819D02*
X57261905Y-18204819D01*
X57547619Y-18204819D02*
X57547619Y-17204819D01*
X57547619Y-17204819D02*
X57452381Y-17347676D01*
X57452381Y-17347676D02*
X57357143Y-17442914D01*
X57357143Y-17442914D02*
X57261905Y-17490533D01*
X58738095Y-17204819D02*
X58261905Y-17204819D01*
X58261905Y-17204819D02*
X58214286Y-17681009D01*
X58214286Y-17681009D02*
X58261905Y-17633390D01*
X58261905Y-17633390D02*
X58357143Y-17585771D01*
X58357143Y-17585771D02*
X58595238Y-17585771D01*
X58595238Y-17585771D02*
X58690476Y-17633390D01*
X58690476Y-17633390D02*
X58738095Y-17681009D01*
X58738095Y-17681009D02*
X58785714Y-17776247D01*
X58785714Y-17776247D02*
X58785714Y-18014342D01*
X58785714Y-18014342D02*
X58738095Y-18109580D01*
X58738095Y-18109580D02*
X58690476Y-18157200D01*
X58690476Y-18157200D02*
X58595238Y-18204819D01*
X58595238Y-18204819D02*
X58357143Y-18204819D01*
X58357143Y-18204819D02*
X58261905Y-18157200D01*
X58261905Y-18157200D02*
X58214286Y-18109580D01*
X38109580Y-40166666D02*
X38157200Y-40214285D01*
X38157200Y-40214285D02*
X38204819Y-40357142D01*
X38204819Y-40357142D02*
X38204819Y-40452380D01*
X38204819Y-40452380D02*
X38157200Y-40595237D01*
X38157200Y-40595237D02*
X38061961Y-40690475D01*
X38061961Y-40690475D02*
X37966723Y-40738094D01*
X37966723Y-40738094D02*
X37776247Y-40785713D01*
X37776247Y-40785713D02*
X37633390Y-40785713D01*
X37633390Y-40785713D02*
X37442914Y-40738094D01*
X37442914Y-40738094D02*
X37347676Y-40690475D01*
X37347676Y-40690475D02*
X37252438Y-40595237D01*
X37252438Y-40595237D02*
X37204819Y-40452380D01*
X37204819Y-40452380D02*
X37204819Y-40357142D01*
X37204819Y-40357142D02*
X37252438Y-40214285D01*
X37252438Y-40214285D02*
X37300057Y-40166666D01*
X37633390Y-39595237D02*
X37585771Y-39690475D01*
X37585771Y-39690475D02*
X37538152Y-39738094D01*
X37538152Y-39738094D02*
X37442914Y-39785713D01*
X37442914Y-39785713D02*
X37395295Y-39785713D01*
X37395295Y-39785713D02*
X37300057Y-39738094D01*
X37300057Y-39738094D02*
X37252438Y-39690475D01*
X37252438Y-39690475D02*
X37204819Y-39595237D01*
X37204819Y-39595237D02*
X37204819Y-39404761D01*
X37204819Y-39404761D02*
X37252438Y-39309523D01*
X37252438Y-39309523D02*
X37300057Y-39261904D01*
X37300057Y-39261904D02*
X37395295Y-39214285D01*
X37395295Y-39214285D02*
X37442914Y-39214285D01*
X37442914Y-39214285D02*
X37538152Y-39261904D01*
X37538152Y-39261904D02*
X37585771Y-39309523D01*
X37585771Y-39309523D02*
X37633390Y-39404761D01*
X37633390Y-39404761D02*
X37633390Y-39595237D01*
X37633390Y-39595237D02*
X37681009Y-39690475D01*
X37681009Y-39690475D02*
X37728628Y-39738094D01*
X37728628Y-39738094D02*
X37823866Y-39785713D01*
X37823866Y-39785713D02*
X38014342Y-39785713D01*
X38014342Y-39785713D02*
X38109580Y-39738094D01*
X38109580Y-39738094D02*
X38157200Y-39690475D01*
X38157200Y-39690475D02*
X38204819Y-39595237D01*
X38204819Y-39595237D02*
X38204819Y-39404761D01*
X38204819Y-39404761D02*
X38157200Y-39309523D01*
X38157200Y-39309523D02*
X38109580Y-39261904D01*
X38109580Y-39261904D02*
X38014342Y-39214285D01*
X38014342Y-39214285D02*
X37823866Y-39214285D01*
X37823866Y-39214285D02*
X37728628Y-39261904D01*
X37728628Y-39261904D02*
X37681009Y-39309523D01*
X37681009Y-39309523D02*
X37633390Y-39404761D01*
X46300057Y-38571428D02*
X46252438Y-38666666D01*
X46252438Y-38666666D02*
X46157200Y-38761904D01*
X46157200Y-38761904D02*
X46014342Y-38904761D01*
X46014342Y-38904761D02*
X45966723Y-38999999D01*
X45966723Y-38999999D02*
X45966723Y-39095237D01*
X46204819Y-39047618D02*
X46157200Y-39142856D01*
X46157200Y-39142856D02*
X46061961Y-39238094D01*
X46061961Y-39238094D02*
X45871485Y-39285713D01*
X45871485Y-39285713D02*
X45538152Y-39285713D01*
X45538152Y-39285713D02*
X45347676Y-39238094D01*
X45347676Y-39238094D02*
X45252438Y-39142856D01*
X45252438Y-39142856D02*
X45204819Y-39047618D01*
X45204819Y-39047618D02*
X45204819Y-38857142D01*
X45204819Y-38857142D02*
X45252438Y-38761904D01*
X45252438Y-38761904D02*
X45347676Y-38666666D01*
X45347676Y-38666666D02*
X45538152Y-38619047D01*
X45538152Y-38619047D02*
X45871485Y-38619047D01*
X45871485Y-38619047D02*
X46061961Y-38666666D01*
X46061961Y-38666666D02*
X46157200Y-38761904D01*
X46157200Y-38761904D02*
X46204819Y-38857142D01*
X46204819Y-38857142D02*
X46204819Y-39047618D01*
X46204819Y-37666666D02*
X46204819Y-38238094D01*
X46204819Y-37952380D02*
X45204819Y-37952380D01*
X45204819Y-37952380D02*
X45347676Y-38047618D01*
X45347676Y-38047618D02*
X45442914Y-38142856D01*
X45442914Y-38142856D02*
X45490533Y-38238094D01*
X45300057Y-37285713D02*
X45252438Y-37238094D01*
X45252438Y-37238094D02*
X45204819Y-37142856D01*
X45204819Y-37142856D02*
X45204819Y-36904761D01*
X45204819Y-36904761D02*
X45252438Y-36809523D01*
X45252438Y-36809523D02*
X45300057Y-36761904D01*
X45300057Y-36761904D02*
X45395295Y-36714285D01*
X45395295Y-36714285D02*
X45490533Y-36714285D01*
X45490533Y-36714285D02*
X45633390Y-36761904D01*
X45633390Y-36761904D02*
X46204819Y-37333332D01*
X46204819Y-37333332D02*
X46204819Y-36714285D01*
X73554819Y-16761904D02*
X74364342Y-16761904D01*
X74364342Y-16761904D02*
X74459580Y-16714285D01*
X74459580Y-16714285D02*
X74507200Y-16666666D01*
X74507200Y-16666666D02*
X74554819Y-16571428D01*
X74554819Y-16571428D02*
X74554819Y-16380952D01*
X74554819Y-16380952D02*
X74507200Y-16285714D01*
X74507200Y-16285714D02*
X74459580Y-16238095D01*
X74459580Y-16238095D02*
X74364342Y-16190476D01*
X74364342Y-16190476D02*
X73554819Y-16190476D01*
X73650057Y-15761904D02*
X73602438Y-15714285D01*
X73602438Y-15714285D02*
X73554819Y-15619047D01*
X73554819Y-15619047D02*
X73554819Y-15380952D01*
X73554819Y-15380952D02*
X73602438Y-15285714D01*
X73602438Y-15285714D02*
X73650057Y-15238095D01*
X73650057Y-15238095D02*
X73745295Y-15190476D01*
X73745295Y-15190476D02*
X73840533Y-15190476D01*
X73840533Y-15190476D02*
X73983390Y-15238095D01*
X73983390Y-15238095D02*
X74554819Y-15809523D01*
X74554819Y-15809523D02*
X74554819Y-15190476D01*
D11*
X43329800Y-21333332D02*
X43377419Y-21190475D01*
X43377419Y-21190475D02*
X43377419Y-20952380D01*
X43377419Y-20952380D02*
X43329800Y-20857142D01*
X43329800Y-20857142D02*
X43282180Y-20809523D01*
X43282180Y-20809523D02*
X43186942Y-20761904D01*
X43186942Y-20761904D02*
X43091704Y-20761904D01*
X43091704Y-20761904D02*
X42996466Y-20809523D01*
X42996466Y-20809523D02*
X42948847Y-20857142D01*
X42948847Y-20857142D02*
X42901228Y-20952380D01*
X42901228Y-20952380D02*
X42853609Y-21142856D01*
X42853609Y-21142856D02*
X42805990Y-21238094D01*
X42805990Y-21238094D02*
X42758371Y-21285713D01*
X42758371Y-21285713D02*
X42663133Y-21333332D01*
X42663133Y-21333332D02*
X42567895Y-21333332D01*
X42567895Y-21333332D02*
X42472657Y-21285713D01*
X42472657Y-21285713D02*
X42425038Y-21238094D01*
X42425038Y-21238094D02*
X42377419Y-21142856D01*
X42377419Y-21142856D02*
X42377419Y-20904761D01*
X42377419Y-20904761D02*
X42425038Y-20761904D01*
X42377419Y-20428570D02*
X43377419Y-20190475D01*
X43377419Y-20190475D02*
X42663133Y-19999999D01*
X42663133Y-19999999D02*
X43377419Y-19809523D01*
X43377419Y-19809523D02*
X42377419Y-19571428D01*
X42472657Y-19238094D02*
X42425038Y-19190475D01*
X42425038Y-19190475D02*
X42377419Y-19095237D01*
X42377419Y-19095237D02*
X42377419Y-18857142D01*
X42377419Y-18857142D02*
X42425038Y-18761904D01*
X42425038Y-18761904D02*
X42472657Y-18714285D01*
X42472657Y-18714285D02*
X42567895Y-18666666D01*
X42567895Y-18666666D02*
X42663133Y-18666666D01*
X42663133Y-18666666D02*
X42805990Y-18714285D01*
X42805990Y-18714285D02*
X43377419Y-19285713D01*
X43377419Y-19285713D02*
X43377419Y-18666666D01*
D10*
X42069664Y-17602818D02*
X42069664Y-18317103D01*
X42069664Y-18317103D02*
X42022045Y-18459960D01*
X42022045Y-18459960D02*
X41926807Y-18555199D01*
X41926807Y-18555199D02*
X41783950Y-18602818D01*
X41783950Y-18602818D02*
X41688712Y-18602818D01*
X42450617Y-17602818D02*
X43117283Y-17602818D01*
X43117283Y-17602818D02*
X42688712Y-18602818D01*
X11300057Y-38095238D02*
X11252438Y-38190476D01*
X11252438Y-38190476D02*
X11157200Y-38285714D01*
X11157200Y-38285714D02*
X11014342Y-38428571D01*
X11014342Y-38428571D02*
X10966723Y-38523809D01*
X10966723Y-38523809D02*
X10966723Y-38619047D01*
X11204819Y-38571428D02*
X11157200Y-38666666D01*
X11157200Y-38666666D02*
X11061961Y-38761904D01*
X11061961Y-38761904D02*
X10871485Y-38809523D01*
X10871485Y-38809523D02*
X10538152Y-38809523D01*
X10538152Y-38809523D02*
X10347676Y-38761904D01*
X10347676Y-38761904D02*
X10252438Y-38666666D01*
X10252438Y-38666666D02*
X10204819Y-38571428D01*
X10204819Y-38571428D02*
X10204819Y-38380952D01*
X10204819Y-38380952D02*
X10252438Y-38285714D01*
X10252438Y-38285714D02*
X10347676Y-38190476D01*
X10347676Y-38190476D02*
X10538152Y-38142857D01*
X10538152Y-38142857D02*
X10871485Y-38142857D01*
X10871485Y-38142857D02*
X11061961Y-38190476D01*
X11061961Y-38190476D02*
X11157200Y-38285714D01*
X11157200Y-38285714D02*
X11204819Y-38380952D01*
X11204819Y-38380952D02*
X11204819Y-38571428D01*
X10300057Y-37761904D02*
X10252438Y-37714285D01*
X10252438Y-37714285D02*
X10204819Y-37619047D01*
X10204819Y-37619047D02*
X10204819Y-37380952D01*
X10204819Y-37380952D02*
X10252438Y-37285714D01*
X10252438Y-37285714D02*
X10300057Y-37238095D01*
X10300057Y-37238095D02*
X10395295Y-37190476D01*
X10395295Y-37190476D02*
X10490533Y-37190476D01*
X10490533Y-37190476D02*
X10633390Y-37238095D01*
X10633390Y-37238095D02*
X11204819Y-37809523D01*
X11204819Y-37809523D02*
X11204819Y-37190476D01*
X97857142Y-19024819D02*
X97523809Y-18548628D01*
X97285714Y-19024819D02*
X97285714Y-18024819D01*
X97285714Y-18024819D02*
X97666666Y-18024819D01*
X97666666Y-18024819D02*
X97761904Y-18072438D01*
X97761904Y-18072438D02*
X97809523Y-18120057D01*
X97809523Y-18120057D02*
X97857142Y-18215295D01*
X97857142Y-18215295D02*
X97857142Y-18358152D01*
X97857142Y-18358152D02*
X97809523Y-18453390D01*
X97809523Y-18453390D02*
X97761904Y-18501009D01*
X97761904Y-18501009D02*
X97666666Y-18548628D01*
X97666666Y-18548628D02*
X97285714Y-18548628D01*
X98809523Y-19024819D02*
X98238095Y-19024819D01*
X98523809Y-19024819D02*
X98523809Y-18024819D01*
X98523809Y-18024819D02*
X98428571Y-18167676D01*
X98428571Y-18167676D02*
X98333333Y-18262914D01*
X98333333Y-18262914D02*
X98238095Y-18310533D01*
X99142857Y-18024819D02*
X99809523Y-18024819D01*
X99809523Y-18024819D02*
X99380952Y-19024819D01*
X7800057Y-38095238D02*
X7752438Y-38190476D01*
X7752438Y-38190476D02*
X7657200Y-38285714D01*
X7657200Y-38285714D02*
X7514342Y-38428571D01*
X7514342Y-38428571D02*
X7466723Y-38523809D01*
X7466723Y-38523809D02*
X7466723Y-38619047D01*
X7704819Y-38571428D02*
X7657200Y-38666666D01*
X7657200Y-38666666D02*
X7561961Y-38761904D01*
X7561961Y-38761904D02*
X7371485Y-38809523D01*
X7371485Y-38809523D02*
X7038152Y-38809523D01*
X7038152Y-38809523D02*
X6847676Y-38761904D01*
X6847676Y-38761904D02*
X6752438Y-38666666D01*
X6752438Y-38666666D02*
X6704819Y-38571428D01*
X6704819Y-38571428D02*
X6704819Y-38380952D01*
X6704819Y-38380952D02*
X6752438Y-38285714D01*
X6752438Y-38285714D02*
X6847676Y-38190476D01*
X6847676Y-38190476D02*
X7038152Y-38142857D01*
X7038152Y-38142857D02*
X7371485Y-38142857D01*
X7371485Y-38142857D02*
X7561961Y-38190476D01*
X7561961Y-38190476D02*
X7657200Y-38285714D01*
X7657200Y-38285714D02*
X7704819Y-38380952D01*
X7704819Y-38380952D02*
X7704819Y-38571428D01*
X7704819Y-37190476D02*
X7704819Y-37761904D01*
X7704819Y-37476190D02*
X6704819Y-37476190D01*
X6704819Y-37476190D02*
X6847676Y-37571428D01*
X6847676Y-37571428D02*
X6942914Y-37666666D01*
X6942914Y-37666666D02*
X6990533Y-37761904D01*
X62524819Y-13642857D02*
X62048628Y-13976190D01*
X62524819Y-14214285D02*
X61524819Y-14214285D01*
X61524819Y-14214285D02*
X61524819Y-13833333D01*
X61524819Y-13833333D02*
X61572438Y-13738095D01*
X61572438Y-13738095D02*
X61620057Y-13690476D01*
X61620057Y-13690476D02*
X61715295Y-13642857D01*
X61715295Y-13642857D02*
X61858152Y-13642857D01*
X61858152Y-13642857D02*
X61953390Y-13690476D01*
X61953390Y-13690476D02*
X62001009Y-13738095D01*
X62001009Y-13738095D02*
X62048628Y-13833333D01*
X62048628Y-13833333D02*
X62048628Y-14214285D01*
X62524819Y-12690476D02*
X62524819Y-13261904D01*
X62524819Y-12976190D02*
X61524819Y-12976190D01*
X61524819Y-12976190D02*
X61667676Y-13071428D01*
X61667676Y-13071428D02*
X61762914Y-13166666D01*
X61762914Y-13166666D02*
X61810533Y-13261904D01*
X61953390Y-12119047D02*
X61905771Y-12214285D01*
X61905771Y-12214285D02*
X61858152Y-12261904D01*
X61858152Y-12261904D02*
X61762914Y-12309523D01*
X61762914Y-12309523D02*
X61715295Y-12309523D01*
X61715295Y-12309523D02*
X61620057Y-12261904D01*
X61620057Y-12261904D02*
X61572438Y-12214285D01*
X61572438Y-12214285D02*
X61524819Y-12119047D01*
X61524819Y-12119047D02*
X61524819Y-11928571D01*
X61524819Y-11928571D02*
X61572438Y-11833333D01*
X61572438Y-11833333D02*
X61620057Y-11785714D01*
X61620057Y-11785714D02*
X61715295Y-11738095D01*
X61715295Y-11738095D02*
X61762914Y-11738095D01*
X61762914Y-11738095D02*
X61858152Y-11785714D01*
X61858152Y-11785714D02*
X61905771Y-11833333D01*
X61905771Y-11833333D02*
X61953390Y-11928571D01*
X61953390Y-11928571D02*
X61953390Y-12119047D01*
X61953390Y-12119047D02*
X62001009Y-12214285D01*
X62001009Y-12214285D02*
X62048628Y-12261904D01*
X62048628Y-12261904D02*
X62143866Y-12309523D01*
X62143866Y-12309523D02*
X62334342Y-12309523D01*
X62334342Y-12309523D02*
X62429580Y-12261904D01*
X62429580Y-12261904D02*
X62477200Y-12214285D01*
X62477200Y-12214285D02*
X62524819Y-12119047D01*
X62524819Y-12119047D02*
X62524819Y-11928571D01*
X62524819Y-11928571D02*
X62477200Y-11833333D01*
X62477200Y-11833333D02*
X62429580Y-11785714D01*
X62429580Y-11785714D02*
X62334342Y-11738095D01*
X62334342Y-11738095D02*
X62143866Y-11738095D01*
X62143866Y-11738095D02*
X62048628Y-11785714D01*
X62048628Y-11785714D02*
X62001009Y-11833333D01*
X62001009Y-11833333D02*
X61953390Y-11928571D01*
X4333333Y-36384819D02*
X4000000Y-35908628D01*
X3761905Y-36384819D02*
X3761905Y-35384819D01*
X3761905Y-35384819D02*
X4142857Y-35384819D01*
X4142857Y-35384819D02*
X4238095Y-35432438D01*
X4238095Y-35432438D02*
X4285714Y-35480057D01*
X4285714Y-35480057D02*
X4333333Y-35575295D01*
X4333333Y-35575295D02*
X4333333Y-35718152D01*
X4333333Y-35718152D02*
X4285714Y-35813390D01*
X4285714Y-35813390D02*
X4238095Y-35861009D01*
X4238095Y-35861009D02*
X4142857Y-35908628D01*
X4142857Y-35908628D02*
X3761905Y-35908628D01*
X4714286Y-35480057D02*
X4761905Y-35432438D01*
X4761905Y-35432438D02*
X4857143Y-35384819D01*
X4857143Y-35384819D02*
X5095238Y-35384819D01*
X5095238Y-35384819D02*
X5190476Y-35432438D01*
X5190476Y-35432438D02*
X5238095Y-35480057D01*
X5238095Y-35480057D02*
X5285714Y-35575295D01*
X5285714Y-35575295D02*
X5285714Y-35670533D01*
X5285714Y-35670533D02*
X5238095Y-35813390D01*
X5238095Y-35813390D02*
X4666667Y-36384819D01*
X4666667Y-36384819D02*
X5285714Y-36384819D01*
X14800057Y-38095238D02*
X14752438Y-38190476D01*
X14752438Y-38190476D02*
X14657200Y-38285714D01*
X14657200Y-38285714D02*
X14514342Y-38428571D01*
X14514342Y-38428571D02*
X14466723Y-38523809D01*
X14466723Y-38523809D02*
X14466723Y-38619047D01*
X14704819Y-38571428D02*
X14657200Y-38666666D01*
X14657200Y-38666666D02*
X14561961Y-38761904D01*
X14561961Y-38761904D02*
X14371485Y-38809523D01*
X14371485Y-38809523D02*
X14038152Y-38809523D01*
X14038152Y-38809523D02*
X13847676Y-38761904D01*
X13847676Y-38761904D02*
X13752438Y-38666666D01*
X13752438Y-38666666D02*
X13704819Y-38571428D01*
X13704819Y-38571428D02*
X13704819Y-38380952D01*
X13704819Y-38380952D02*
X13752438Y-38285714D01*
X13752438Y-38285714D02*
X13847676Y-38190476D01*
X13847676Y-38190476D02*
X14038152Y-38142857D01*
X14038152Y-38142857D02*
X14371485Y-38142857D01*
X14371485Y-38142857D02*
X14561961Y-38190476D01*
X14561961Y-38190476D02*
X14657200Y-38285714D01*
X14657200Y-38285714D02*
X14704819Y-38380952D01*
X14704819Y-38380952D02*
X14704819Y-38571428D01*
X13704819Y-37809523D02*
X13704819Y-37190476D01*
X13704819Y-37190476D02*
X14085771Y-37523809D01*
X14085771Y-37523809D02*
X14085771Y-37380952D01*
X14085771Y-37380952D02*
X14133390Y-37285714D01*
X14133390Y-37285714D02*
X14181009Y-37238095D01*
X14181009Y-37238095D02*
X14276247Y-37190476D01*
X14276247Y-37190476D02*
X14514342Y-37190476D01*
X14514342Y-37190476D02*
X14609580Y-37238095D01*
X14609580Y-37238095D02*
X14657200Y-37285714D01*
X14657200Y-37285714D02*
X14704819Y-37380952D01*
X14704819Y-37380952D02*
X14704819Y-37666666D01*
X14704819Y-37666666D02*
X14657200Y-37761904D01*
X14657200Y-37761904D02*
X14609580Y-37809523D01*
X9704819Y-47738094D02*
X8704819Y-47738094D01*
X8704819Y-47738094D02*
X8704819Y-47499999D01*
X8704819Y-47499999D02*
X8752438Y-47357142D01*
X8752438Y-47357142D02*
X8847676Y-47261904D01*
X8847676Y-47261904D02*
X8942914Y-47214285D01*
X8942914Y-47214285D02*
X9133390Y-47166666D01*
X9133390Y-47166666D02*
X9276247Y-47166666D01*
X9276247Y-47166666D02*
X9466723Y-47214285D01*
X9466723Y-47214285D02*
X9561961Y-47261904D01*
X9561961Y-47261904D02*
X9657200Y-47357142D01*
X9657200Y-47357142D02*
X9704819Y-47499999D01*
X9704819Y-47499999D02*
X9704819Y-47738094D01*
X9704819Y-46214285D02*
X9704819Y-46785713D01*
X9704819Y-46499999D02*
X8704819Y-46499999D01*
X8704819Y-46499999D02*
X8847676Y-46595237D01*
X8847676Y-46595237D02*
X8942914Y-46690475D01*
X8942914Y-46690475D02*
X8990533Y-46785713D01*
X21800057Y-38095238D02*
X21752438Y-38190476D01*
X21752438Y-38190476D02*
X21657200Y-38285714D01*
X21657200Y-38285714D02*
X21514342Y-38428571D01*
X21514342Y-38428571D02*
X21466723Y-38523809D01*
X21466723Y-38523809D02*
X21466723Y-38619047D01*
X21704819Y-38571428D02*
X21657200Y-38666666D01*
X21657200Y-38666666D02*
X21561961Y-38761904D01*
X21561961Y-38761904D02*
X21371485Y-38809523D01*
X21371485Y-38809523D02*
X21038152Y-38809523D01*
X21038152Y-38809523D02*
X20847676Y-38761904D01*
X20847676Y-38761904D02*
X20752438Y-38666666D01*
X20752438Y-38666666D02*
X20704819Y-38571428D01*
X20704819Y-38571428D02*
X20704819Y-38380952D01*
X20704819Y-38380952D02*
X20752438Y-38285714D01*
X20752438Y-38285714D02*
X20847676Y-38190476D01*
X20847676Y-38190476D02*
X21038152Y-38142857D01*
X21038152Y-38142857D02*
X21371485Y-38142857D01*
X21371485Y-38142857D02*
X21561961Y-38190476D01*
X21561961Y-38190476D02*
X21657200Y-38285714D01*
X21657200Y-38285714D02*
X21704819Y-38380952D01*
X21704819Y-38380952D02*
X21704819Y-38571428D01*
X20704819Y-37238095D02*
X20704819Y-37714285D01*
X20704819Y-37714285D02*
X21181009Y-37761904D01*
X21181009Y-37761904D02*
X21133390Y-37714285D01*
X21133390Y-37714285D02*
X21085771Y-37619047D01*
X21085771Y-37619047D02*
X21085771Y-37380952D01*
X21085771Y-37380952D02*
X21133390Y-37285714D01*
X21133390Y-37285714D02*
X21181009Y-37238095D01*
X21181009Y-37238095D02*
X21276247Y-37190476D01*
X21276247Y-37190476D02*
X21514342Y-37190476D01*
X21514342Y-37190476D02*
X21609580Y-37238095D01*
X21609580Y-37238095D02*
X21657200Y-37285714D01*
X21657200Y-37285714D02*
X21704819Y-37380952D01*
X21704819Y-37380952D02*
X21704819Y-37619047D01*
X21704819Y-37619047D02*
X21657200Y-37714285D01*
X21657200Y-37714285D02*
X21609580Y-37761904D01*
X93333333Y-22429580D02*
X93285714Y-22477200D01*
X93285714Y-22477200D02*
X93142857Y-22524819D01*
X93142857Y-22524819D02*
X93047619Y-22524819D01*
X93047619Y-22524819D02*
X92904762Y-22477200D01*
X92904762Y-22477200D02*
X92809524Y-22381961D01*
X92809524Y-22381961D02*
X92761905Y-22286723D01*
X92761905Y-22286723D02*
X92714286Y-22096247D01*
X92714286Y-22096247D02*
X92714286Y-21953390D01*
X92714286Y-21953390D02*
X92761905Y-21762914D01*
X92761905Y-21762914D02*
X92809524Y-21667676D01*
X92809524Y-21667676D02*
X92904762Y-21572438D01*
X92904762Y-21572438D02*
X93047619Y-21524819D01*
X93047619Y-21524819D02*
X93142857Y-21524819D01*
X93142857Y-21524819D02*
X93285714Y-21572438D01*
X93285714Y-21572438D02*
X93333333Y-21620057D01*
X93666667Y-21524819D02*
X94285714Y-21524819D01*
X94285714Y-21524819D02*
X93952381Y-21905771D01*
X93952381Y-21905771D02*
X94095238Y-21905771D01*
X94095238Y-21905771D02*
X94190476Y-21953390D01*
X94190476Y-21953390D02*
X94238095Y-22001009D01*
X94238095Y-22001009D02*
X94285714Y-22096247D01*
X94285714Y-22096247D02*
X94285714Y-22334342D01*
X94285714Y-22334342D02*
X94238095Y-22429580D01*
X94238095Y-22429580D02*
X94190476Y-22477200D01*
X94190476Y-22477200D02*
X94095238Y-22524819D01*
X94095238Y-22524819D02*
X93809524Y-22524819D01*
X93809524Y-22524819D02*
X93714286Y-22477200D01*
X93714286Y-22477200D02*
X93666667Y-22429580D01*
X39300057Y-38571428D02*
X39252438Y-38666666D01*
X39252438Y-38666666D02*
X39157200Y-38761904D01*
X39157200Y-38761904D02*
X39014342Y-38904761D01*
X39014342Y-38904761D02*
X38966723Y-38999999D01*
X38966723Y-38999999D02*
X38966723Y-39095237D01*
X39204819Y-39047618D02*
X39157200Y-39142856D01*
X39157200Y-39142856D02*
X39061961Y-39238094D01*
X39061961Y-39238094D02*
X38871485Y-39285713D01*
X38871485Y-39285713D02*
X38538152Y-39285713D01*
X38538152Y-39285713D02*
X38347676Y-39238094D01*
X38347676Y-39238094D02*
X38252438Y-39142856D01*
X38252438Y-39142856D02*
X38204819Y-39047618D01*
X38204819Y-39047618D02*
X38204819Y-38857142D01*
X38204819Y-38857142D02*
X38252438Y-38761904D01*
X38252438Y-38761904D02*
X38347676Y-38666666D01*
X38347676Y-38666666D02*
X38538152Y-38619047D01*
X38538152Y-38619047D02*
X38871485Y-38619047D01*
X38871485Y-38619047D02*
X39061961Y-38666666D01*
X39061961Y-38666666D02*
X39157200Y-38761904D01*
X39157200Y-38761904D02*
X39204819Y-38857142D01*
X39204819Y-38857142D02*
X39204819Y-39047618D01*
X39204819Y-37666666D02*
X39204819Y-38238094D01*
X39204819Y-37952380D02*
X38204819Y-37952380D01*
X38204819Y-37952380D02*
X38347676Y-38047618D01*
X38347676Y-38047618D02*
X38442914Y-38142856D01*
X38442914Y-38142856D02*
X38490533Y-38238094D01*
X38204819Y-37047618D02*
X38204819Y-36952380D01*
X38204819Y-36952380D02*
X38252438Y-36857142D01*
X38252438Y-36857142D02*
X38300057Y-36809523D01*
X38300057Y-36809523D02*
X38395295Y-36761904D01*
X38395295Y-36761904D02*
X38585771Y-36714285D01*
X38585771Y-36714285D02*
X38823866Y-36714285D01*
X38823866Y-36714285D02*
X39014342Y-36761904D01*
X39014342Y-36761904D02*
X39109580Y-36809523D01*
X39109580Y-36809523D02*
X39157200Y-36857142D01*
X39157200Y-36857142D02*
X39204819Y-36952380D01*
X39204819Y-36952380D02*
X39204819Y-37047618D01*
X39204819Y-37047618D02*
X39157200Y-37142856D01*
X39157200Y-37142856D02*
X39109580Y-37190475D01*
X39109580Y-37190475D02*
X39014342Y-37238094D01*
X39014342Y-37238094D02*
X38823866Y-37285713D01*
X38823866Y-37285713D02*
X38585771Y-37285713D01*
X38585771Y-37285713D02*
X38395295Y-37238094D01*
X38395295Y-37238094D02*
X38300057Y-37190475D01*
X38300057Y-37190475D02*
X38252438Y-37142856D01*
X38252438Y-37142856D02*
X38204819Y-37047618D01*
X42357142Y-36384819D02*
X42023809Y-35908628D01*
X41785714Y-36384819D02*
X41785714Y-35384819D01*
X41785714Y-35384819D02*
X42166666Y-35384819D01*
X42166666Y-35384819D02*
X42261904Y-35432438D01*
X42261904Y-35432438D02*
X42309523Y-35480057D01*
X42309523Y-35480057D02*
X42357142Y-35575295D01*
X42357142Y-35575295D02*
X42357142Y-35718152D01*
X42357142Y-35718152D02*
X42309523Y-35813390D01*
X42309523Y-35813390D02*
X42261904Y-35861009D01*
X42261904Y-35861009D02*
X42166666Y-35908628D01*
X42166666Y-35908628D02*
X41785714Y-35908628D01*
X43309523Y-36384819D02*
X42738095Y-36384819D01*
X43023809Y-36384819D02*
X43023809Y-35384819D01*
X43023809Y-35384819D02*
X42928571Y-35527676D01*
X42928571Y-35527676D02*
X42833333Y-35622914D01*
X42833333Y-35622914D02*
X42738095Y-35670533D01*
X43690476Y-35480057D02*
X43738095Y-35432438D01*
X43738095Y-35432438D02*
X43833333Y-35384819D01*
X43833333Y-35384819D02*
X44071428Y-35384819D01*
X44071428Y-35384819D02*
X44166666Y-35432438D01*
X44166666Y-35432438D02*
X44214285Y-35480057D01*
X44214285Y-35480057D02*
X44261904Y-35575295D01*
X44261904Y-35575295D02*
X44261904Y-35670533D01*
X44261904Y-35670533D02*
X44214285Y-35813390D01*
X44214285Y-35813390D02*
X43642857Y-36384819D01*
X43642857Y-36384819D02*
X44261904Y-36384819D01*
X37704819Y-47738094D02*
X36704819Y-47738094D01*
X36704819Y-47738094D02*
X36704819Y-47499999D01*
X36704819Y-47499999D02*
X36752438Y-47357142D01*
X36752438Y-47357142D02*
X36847676Y-47261904D01*
X36847676Y-47261904D02*
X36942914Y-47214285D01*
X36942914Y-47214285D02*
X37133390Y-47166666D01*
X37133390Y-47166666D02*
X37276247Y-47166666D01*
X37276247Y-47166666D02*
X37466723Y-47214285D01*
X37466723Y-47214285D02*
X37561961Y-47261904D01*
X37561961Y-47261904D02*
X37657200Y-47357142D01*
X37657200Y-47357142D02*
X37704819Y-47499999D01*
X37704819Y-47499999D02*
X37704819Y-47738094D01*
X36704819Y-46261904D02*
X36704819Y-46738094D01*
X36704819Y-46738094D02*
X37181009Y-46785713D01*
X37181009Y-46785713D02*
X37133390Y-46738094D01*
X37133390Y-46738094D02*
X37085771Y-46642856D01*
X37085771Y-46642856D02*
X37085771Y-46404761D01*
X37085771Y-46404761D02*
X37133390Y-46309523D01*
X37133390Y-46309523D02*
X37181009Y-46261904D01*
X37181009Y-46261904D02*
X37276247Y-46214285D01*
X37276247Y-46214285D02*
X37514342Y-46214285D01*
X37514342Y-46214285D02*
X37609580Y-46261904D01*
X37609580Y-46261904D02*
X37657200Y-46309523D01*
X37657200Y-46309523D02*
X37704819Y-46404761D01*
X37704819Y-46404761D02*
X37704819Y-46642856D01*
X37704819Y-46642856D02*
X37657200Y-46738094D01*
X37657200Y-46738094D02*
X37609580Y-46785713D01*
D12*
%TO.C,C7*%
X91620000Y-40000000D02*
G75*
G03*
X75380000Y-40000000I-8120000J0D01*
G01*
X75380000Y-40000000D02*
G75*
G03*
X91620000Y-40000000I8120000J0D01*
G01*
%TO.C,D6*%
X43580000Y-46960000D02*
X43580000Y-46160000D01*
X43580000Y-46960000D02*
X43580000Y-47760000D01*
X43580000Y-47760000D02*
X42650000Y-47760000D01*
X40420000Y-47760000D02*
X40420000Y-46300000D01*
X40420000Y-47760000D02*
X41350000Y-47760000D01*
X43940000Y-45900000D02*
X43610000Y-45660000D01*
X43940000Y-45420000D01*
X43940000Y-45900000D01*
G36*
X43940000Y-45900000D02*
G01*
X43610000Y-45660000D01*
X43940000Y-45420000D01*
X43940000Y-45900000D01*
G37*
%TO.C,R4*%
X15254724Y-35022500D02*
X14745276Y-35022500D01*
X15254724Y-33977500D02*
X14745276Y-33977500D01*
%TO.C,R6*%
X22254724Y-35022500D02*
X21745276Y-35022500D01*
X22254724Y-33977500D02*
X21745276Y-33977500D01*
%TO.C,Q4*%
X16580000Y-37960000D02*
X16580000Y-37160000D01*
X16580000Y-37960000D02*
X16580000Y-38760000D01*
X16580000Y-38760000D02*
X15650000Y-38760000D01*
X13420000Y-38760000D02*
X13420000Y-37300000D01*
X13420000Y-38760000D02*
X14350000Y-38760000D01*
X16940000Y-36900000D02*
X16610000Y-36660000D01*
X16940000Y-36420000D01*
X16940000Y-36900000D01*
G36*
X16940000Y-36900000D02*
G01*
X16610000Y-36660000D01*
X16940000Y-36420000D01*
X16940000Y-36900000D01*
G37*
%TO.C,SW1*%
X44800000Y-12650000D02*
X51200000Y-12650000D01*
X44800000Y-12650000D02*
X44800000Y-6350000D01*
X51200000Y-12650000D02*
X51200000Y-6350000D01*
X44800000Y-6350000D02*
X51200000Y-6350000D01*
X49500000Y-9500000D02*
G75*
G03*
X46500000Y-9500000I-1500000J0D01*
G01*
X46500000Y-9500000D02*
G75*
G03*
X49500000Y-9500000I1500000J0D01*
G01*
%TO.C,C4*%
X77646267Y-21510000D02*
X77353733Y-21510000D01*
X77646267Y-20490000D02*
X77353733Y-20490000D01*
%TO.C,Q11*%
X41080000Y-37960000D02*
X41080000Y-37160000D01*
X41080000Y-37960000D02*
X41080000Y-38760000D01*
X41080000Y-38760000D02*
X40150000Y-38760000D01*
X37920000Y-38760000D02*
X37920000Y-37300000D01*
X37920000Y-38760000D02*
X38850000Y-38760000D01*
X41440000Y-36900000D02*
X41110000Y-36660000D01*
X41440000Y-36420000D01*
X41440000Y-36900000D01*
G36*
X41440000Y-36900000D02*
G01*
X41110000Y-36660000D01*
X41440000Y-36420000D01*
X41440000Y-36900000D01*
G37*
%TO.C,Q7*%
X27080000Y-37960000D02*
X27080000Y-37160000D01*
X27080000Y-37960000D02*
X27080000Y-38760000D01*
X27080000Y-38760000D02*
X26150000Y-38760000D01*
X23920000Y-38760000D02*
X23920000Y-37300000D01*
X23920000Y-38760000D02*
X24850000Y-38760000D01*
X27440000Y-36900000D02*
X27110000Y-36660000D01*
X27440000Y-36420000D01*
X27440000Y-36900000D01*
G36*
X27440000Y-36900000D02*
G01*
X27110000Y-36660000D01*
X27440000Y-36420000D01*
X27440000Y-36900000D01*
G37*
%TO.C,R8*%
X29254724Y-35022500D02*
X28745276Y-35022500D01*
X29254724Y-33977500D02*
X28745276Y-33977500D01*
%TO.C,R15*%
X45522500Y-29245276D02*
X45522500Y-29754724D01*
X44477500Y-29245276D02*
X44477500Y-29754724D01*
%TO.C,R14*%
X51477500Y-29754724D02*
X51477500Y-29245276D01*
X52522500Y-29754724D02*
X52522500Y-29245276D01*
%TO.C,R11*%
X39754724Y-35022500D02*
X39245276Y-35022500D01*
X39754724Y-33977500D02*
X39245276Y-33977500D01*
%TO.C,C1*%
X87010000Y-23853733D02*
X87010000Y-24146267D01*
X85990000Y-23853733D02*
X85990000Y-24146267D01*
%TO.C,R1*%
X8254724Y-35022500D02*
X7745276Y-35022500D01*
X8254724Y-33977500D02*
X7745276Y-33977500D01*
%TO.C,J8*%
X25190999Y-27816000D02*
X23860999Y-27816000D01*
X25190999Y-26486000D02*
X25190999Y-27816000D01*
X25190999Y-25216000D02*
X25190999Y-22616000D01*
X25190999Y-25216000D02*
X22530999Y-25216000D01*
X25190999Y-22616000D02*
X22530999Y-22616000D01*
X22530999Y-25216000D02*
X22530999Y-22616000D01*
%TO.C,Q8*%
X30580000Y-37960000D02*
X30580000Y-37160000D01*
X30580000Y-37960000D02*
X30580000Y-38760000D01*
X30580000Y-38760000D02*
X29650000Y-38760000D01*
X27420000Y-38760000D02*
X27420000Y-37300000D01*
X27420000Y-38760000D02*
X28350000Y-38760000D01*
X30940000Y-36900000D02*
X30610000Y-36660000D01*
X30940000Y-36420000D01*
X30940000Y-36900000D01*
G36*
X30940000Y-36900000D02*
G01*
X30610000Y-36660000D01*
X30940000Y-36420000D01*
X30940000Y-36900000D01*
G37*
%TO.C,C5*%
X2146267Y-31010000D02*
X1853733Y-31010000D01*
X2146267Y-29990000D02*
X1853733Y-29990000D01*
%TO.C,R7*%
X25754724Y-35022500D02*
X25245276Y-35022500D01*
X25754724Y-33977500D02*
X25245276Y-33977500D01*
%TO.C,R16*%
X5022500Y-31245276D02*
X5022500Y-31754724D01*
X3977500Y-31245276D02*
X3977500Y-31754724D01*
%TO.C,Q6*%
X23580000Y-37960000D02*
X23580000Y-37160000D01*
X23580000Y-37960000D02*
X23580000Y-38760000D01*
X23580000Y-38760000D02*
X22650000Y-38760000D01*
X20420000Y-38760000D02*
X20420000Y-37300000D01*
X20420000Y-38760000D02*
X21350000Y-38760000D01*
X23940000Y-36900000D02*
X23610000Y-36660000D01*
X23940000Y-36420000D01*
X23940000Y-36900000D01*
G36*
X23940000Y-36900000D02*
G01*
X23610000Y-36660000D01*
X23940000Y-36420000D01*
X23940000Y-36900000D01*
G37*
%TO.C,C2*%
X82010000Y-23853733D02*
X82010000Y-24146267D01*
X80990000Y-23853733D02*
X80990000Y-24146267D01*
%TO.C,D3*%
X18080000Y-46960000D02*
X18080000Y-46160000D01*
X18080000Y-46960000D02*
X18080000Y-47760000D01*
X18080000Y-47760000D02*
X17150000Y-47760000D01*
X14920000Y-47760000D02*
X14920000Y-46300000D01*
X14920000Y-47760000D02*
X15850000Y-47760000D01*
X18440000Y-45900000D02*
X18110000Y-45660000D01*
X18440000Y-45420000D01*
X18440000Y-45900000D01*
G36*
X18440000Y-45900000D02*
G01*
X18110000Y-45660000D01*
X18440000Y-45420000D01*
X18440000Y-45900000D01*
G37*
%TO.C,D2*%
X13080000Y-46960000D02*
X13080000Y-46160000D01*
X13080000Y-46960000D02*
X13080000Y-47760000D01*
X13080000Y-47760000D02*
X12150000Y-47760000D01*
X9920000Y-47760000D02*
X9920000Y-46300000D01*
X9920000Y-47760000D02*
X10850000Y-47760000D01*
X13440000Y-45900000D02*
X13110000Y-45660000D01*
X13440000Y-45420000D01*
X13440000Y-45900000D01*
G36*
X13440000Y-45900000D02*
G01*
X13110000Y-45660000D01*
X13440000Y-45420000D01*
X13440000Y-45900000D01*
G37*
%TO.C,C6*%
X2146267Y-33010000D02*
X1853733Y-33010000D01*
X2146267Y-31990000D02*
X1853733Y-31990000D01*
%TO.C,R10*%
X36254724Y-35022500D02*
X35745276Y-35022500D01*
X36254724Y-33977500D02*
X35745276Y-33977500D01*
%TO.C,R19*%
X62022500Y-12745276D02*
X62022500Y-13254724D01*
X60977500Y-12745276D02*
X60977500Y-13254724D01*
%TO.C,J6*%
X43732998Y-27815999D02*
X42402998Y-27815999D01*
X43732998Y-26485999D02*
X43732998Y-27815999D01*
X43732998Y-25215999D02*
X43732998Y-22615999D01*
X43732998Y-25215999D02*
X41072998Y-25215999D01*
X43732998Y-22615999D02*
X41072998Y-22615999D01*
X41072998Y-25215999D02*
X41072998Y-22615999D01*
%TO.C,R21*%
X70245276Y-16477500D02*
X70754724Y-16477500D01*
X70245276Y-17522500D02*
X70754724Y-17522500D01*
%TO.C,J4*%
X25190999Y-17148000D02*
X23860999Y-17148000D01*
X25190999Y-15818000D02*
X25190999Y-17148000D01*
X25190999Y-14548000D02*
X25190999Y-11948000D01*
X25190999Y-14548000D02*
X22530999Y-14548000D01*
X25190999Y-11948000D02*
X22530999Y-11948000D01*
X22530999Y-14548000D02*
X22530999Y-11948000D01*
%TO.C,U1*%
X-6110000Y-29120000D02*
X50000Y-29120000D01*
X-6110000Y-29120000D02*
X-6110000Y-10880000D01*
X18850000Y-29120000D02*
X19630000Y-29120000D01*
X19630000Y-29120000D02*
X19630000Y-28120000D01*
X-6110000Y-10880000D02*
X305000Y-10880000D01*
X18850000Y-10880000D02*
X19630000Y-10880000D01*
X19630000Y-10880000D02*
X19630000Y-11880000D01*
X775000Y-29625000D02*
X275000Y-29125000D01*
X775000Y-29125000D01*
X775000Y-29625000D01*
G36*
X775000Y-29625000D02*
G01*
X275000Y-29125000D01*
X775000Y-29125000D01*
X775000Y-29625000D01*
G37*
%TO.C,D4*%
X30580000Y-46960000D02*
X30580000Y-46160000D01*
X30580000Y-46960000D02*
X30580000Y-47760000D01*
X30580000Y-47760000D02*
X29650000Y-47760000D01*
X27420000Y-47760000D02*
X27420000Y-46300000D01*
X27420000Y-47760000D02*
X28350000Y-47760000D01*
X30940000Y-45900000D02*
X30610000Y-45660000D01*
X30940000Y-45420000D01*
X30940000Y-45900000D01*
G36*
X30940000Y-45900000D02*
G01*
X30610000Y-45660000D01*
X30940000Y-45420000D01*
X30940000Y-45900000D01*
G37*
%TO.C,Q14*%
X57540000Y-12580000D02*
X58340000Y-12580000D01*
X57540000Y-12580000D02*
X56740000Y-12580000D01*
X56740000Y-12580000D02*
X56740000Y-11650000D01*
X56740000Y-9420000D02*
X58200000Y-9420000D01*
X56740000Y-9420000D02*
X56740000Y-10350000D01*
X59080000Y-12940000D02*
X58600000Y-12940000D01*
X58840000Y-12610000D01*
X59080000Y-12940000D01*
G36*
X59080000Y-12940000D02*
G01*
X58600000Y-12940000D01*
X58840000Y-12610000D01*
X59080000Y-12940000D01*
G37*
%TO.C,R20*%
X70245276Y-18477500D02*
X70754724Y-18477500D01*
X70245276Y-19522500D02*
X70754724Y-19522500D01*
%TO.C,R9*%
X32754724Y-35022500D02*
X32245276Y-35022500D01*
X32754724Y-33977500D02*
X32245276Y-33977500D01*
%TO.C,Q9*%
X34080000Y-37960000D02*
X34080000Y-37160000D01*
X34080000Y-37960000D02*
X34080000Y-38760000D01*
X34080000Y-38760000D02*
X33150000Y-38760000D01*
X30920000Y-38760000D02*
X30920000Y-37300000D01*
X30920000Y-38760000D02*
X31850000Y-38760000D01*
X34440000Y-36900000D02*
X34110000Y-36660000D01*
X34440000Y-36420000D01*
X34440000Y-36900000D01*
G36*
X34440000Y-36900000D02*
G01*
X34110000Y-36660000D01*
X34440000Y-36420000D01*
X34440000Y-36900000D01*
G37*
%TO.C,R13*%
X48522500Y-29245276D02*
X48522500Y-29754724D01*
X47477500Y-29245276D02*
X47477500Y-29754724D01*
%TO.C,R3*%
X11754724Y-35022500D02*
X11245276Y-35022500D01*
X11754724Y-33977500D02*
X11245276Y-33977500D01*
%TO.C,R5*%
X18754724Y-35022500D02*
X18245276Y-35022500D01*
X18754724Y-33977500D02*
X18245276Y-33977500D01*
%TO.C,Q15*%
X57540000Y-16580000D02*
X58340000Y-16580000D01*
X57540000Y-16580000D02*
X56740000Y-16580000D01*
X56740000Y-16580000D02*
X56740000Y-15650000D01*
X56740000Y-13420000D02*
X58200000Y-13420000D01*
X56740000Y-13420000D02*
X56740000Y-14350000D01*
X59080000Y-16940000D02*
X58600000Y-16940000D01*
X58840000Y-16610000D01*
X59080000Y-16940000D01*
G36*
X59080000Y-16940000D02*
G01*
X58600000Y-16940000D01*
X58840000Y-16610000D01*
X59080000Y-16940000D01*
G37*
%TO.C,C8*%
X55120000Y-40000000D02*
G75*
G03*
X38880000Y-40000000I-8120000J0D01*
G01*
X38880000Y-40000000D02*
G75*
G03*
X55120000Y-40000000I8120000J0D01*
G01*
%TO.C,Q12*%
X44580000Y-37960000D02*
X44580000Y-37160000D01*
X44580000Y-37960000D02*
X44580000Y-38760000D01*
X44580000Y-38760000D02*
X43650000Y-38760000D01*
X41420000Y-38760000D02*
X41420000Y-37300000D01*
X41420000Y-38760000D02*
X42350000Y-38760000D01*
X44940000Y-36900000D02*
X44610000Y-36660000D01*
X44940000Y-36420000D01*
X44940000Y-36900000D01*
G36*
X44940000Y-36900000D02*
G01*
X44610000Y-36660000D01*
X44940000Y-36420000D01*
X44940000Y-36900000D01*
G37*
%TO.C,U2*%
X74940000Y-16000000D02*
X74940000Y-17950000D01*
X74940000Y-16000000D02*
X74940000Y-14050000D01*
X85060000Y-16000000D02*
X85060000Y-17950000D01*
X85060000Y-16000000D02*
X85060000Y-14050000D01*
X74995000Y-18700000D02*
X74665000Y-18940000D01*
X74665000Y-18460000D01*
X74995000Y-18700000D01*
G36*
X74995000Y-18700000D02*
G01*
X74665000Y-18940000D01*
X74665000Y-18460000D01*
X74995000Y-18700000D01*
G37*
%TO.C,SW2*%
X44800000Y-23150000D02*
X51200000Y-23150000D01*
X44800000Y-23150000D02*
X44800000Y-16850000D01*
X51200000Y-23150000D02*
X51200000Y-16850000D01*
X44800000Y-16850000D02*
X51200000Y-16850000D01*
X49500000Y-20000000D02*
G75*
G03*
X46500000Y-20000000I-1500000J0D01*
G01*
X46500000Y-20000000D02*
G75*
G03*
X49500000Y-20000000I1500000J0D01*
G01*
%TO.C,J7*%
X43732998Y-17147999D02*
X42402998Y-17147999D01*
X43732998Y-15817999D02*
X43732998Y-17147999D01*
X43732998Y-14547999D02*
X43732998Y-11947999D01*
X43732998Y-14547999D02*
X41072998Y-14547999D01*
X43732998Y-11947999D02*
X41072998Y-11947999D01*
X41072998Y-14547999D02*
X41072998Y-11947999D01*
%TO.C,Q2*%
X9580000Y-37960000D02*
X9580000Y-37160000D01*
X9580000Y-37960000D02*
X9580000Y-38760000D01*
X9580000Y-38760000D02*
X8650000Y-38760000D01*
X6420000Y-38760000D02*
X6420000Y-37300000D01*
X6420000Y-38760000D02*
X7350000Y-38760000D01*
X9940000Y-36900000D02*
X9610000Y-36660000D01*
X9940000Y-36420000D01*
X9940000Y-36900000D01*
G36*
X9940000Y-36900000D02*
G01*
X9610000Y-36660000D01*
X9940000Y-36420000D01*
X9940000Y-36900000D01*
G37*
%TO.C,R17*%
X98245276Y-19477500D02*
X98754724Y-19477500D01*
X98245276Y-20522500D02*
X98754724Y-20522500D01*
%TO.C,Q1*%
X6080000Y-37960000D02*
X6080000Y-37160000D01*
X6080000Y-37960000D02*
X6080000Y-38760000D01*
X6080000Y-38760000D02*
X5150000Y-38760000D01*
X2920000Y-38760000D02*
X2920000Y-37300000D01*
X2920000Y-38760000D02*
X3850000Y-38760000D01*
X6440000Y-36900000D02*
X6110000Y-36660000D01*
X6440000Y-36420000D01*
X6440000Y-36900000D01*
G36*
X6440000Y-36900000D02*
G01*
X6110000Y-36660000D01*
X6440000Y-36420000D01*
X6440000Y-36900000D01*
G37*
%TO.C,R18*%
X62977500Y-13254724D02*
X62977500Y-12745276D01*
X64022500Y-13254724D02*
X64022500Y-12745276D01*
%TO.C,R2*%
X4754724Y-35022500D02*
X4245276Y-35022500D01*
X4754724Y-33977500D02*
X4245276Y-33977500D01*
%TO.C,Q3*%
X13080000Y-37960000D02*
X13080000Y-37160000D01*
X13080000Y-37960000D02*
X13080000Y-38760000D01*
X13080000Y-38760000D02*
X12150000Y-38760000D01*
X9920000Y-38760000D02*
X9920000Y-37300000D01*
X9920000Y-38760000D02*
X10850000Y-38760000D01*
X13440000Y-36900000D02*
X13110000Y-36660000D01*
X13440000Y-36420000D01*
X13440000Y-36900000D01*
G36*
X13440000Y-36900000D02*
G01*
X13110000Y-36660000D01*
X13440000Y-36420000D01*
X13440000Y-36900000D01*
G37*
%TO.C,D1*%
X8080000Y-46960000D02*
X8080000Y-46160000D01*
X8080000Y-46960000D02*
X8080000Y-47760000D01*
X8080000Y-47760000D02*
X7150000Y-47760000D01*
X4920000Y-47760000D02*
X4920000Y-46300000D01*
X4920000Y-47760000D02*
X5850000Y-47760000D01*
X8440000Y-45900000D02*
X8110000Y-45660000D01*
X8440000Y-45420000D01*
X8440000Y-45900000D01*
G36*
X8440000Y-45900000D02*
G01*
X8110000Y-45660000D01*
X8440000Y-45420000D01*
X8440000Y-45900000D01*
G37*
%TO.C,Q5*%
X20080000Y-37960000D02*
X20080000Y-37160000D01*
X20080000Y-37960000D02*
X20080000Y-38760000D01*
X20080000Y-38760000D02*
X19150000Y-38760000D01*
X16920000Y-38760000D02*
X16920000Y-37300000D01*
X16920000Y-38760000D02*
X17850000Y-38760000D01*
X20440000Y-36900000D02*
X20110000Y-36660000D01*
X20440000Y-36420000D01*
X20440000Y-36900000D01*
G36*
X20440000Y-36900000D02*
G01*
X20110000Y-36660000D01*
X20440000Y-36420000D01*
X20440000Y-36900000D01*
G37*
%TO.C,C3*%
X93353733Y-22990000D02*
X93646267Y-22990000D01*
X93353733Y-24010000D02*
X93646267Y-24010000D01*
%TO.C,Q10*%
X37580000Y-37960000D02*
X37580000Y-37160000D01*
X37580000Y-37960000D02*
X37580000Y-38760000D01*
X37580000Y-38760000D02*
X36650000Y-38760000D01*
X34420000Y-38760000D02*
X34420000Y-37300000D01*
X34420000Y-38760000D02*
X35350000Y-38760000D01*
X37940000Y-36900000D02*
X37610000Y-36660000D01*
X37940000Y-36420000D01*
X37940000Y-36900000D01*
G36*
X37940000Y-36900000D02*
G01*
X37610000Y-36660000D01*
X37940000Y-36420000D01*
X37940000Y-36900000D01*
G37*
%TO.C,R12*%
X43254724Y-35022500D02*
X42745276Y-35022500D01*
X43254724Y-33977500D02*
X42745276Y-33977500D01*
%TO.C,D5*%
X36080000Y-46960000D02*
X36080000Y-46160000D01*
X36080000Y-46960000D02*
X36080000Y-47760000D01*
X36080000Y-47760000D02*
X35150000Y-47760000D01*
X32920000Y-47760000D02*
X32920000Y-46300000D01*
X32920000Y-47760000D02*
X33850000Y-47760000D01*
X36440000Y-45900000D02*
X36110000Y-45660000D01*
X36440000Y-45420000D01*
X36440000Y-45900000D01*
G36*
X36440000Y-45900000D02*
G01*
X36110000Y-45660000D01*
X36440000Y-45420000D01*
X36440000Y-45900000D01*
G37*
%TD*%
M02*
