%TF.GenerationSoftware,KiCad,Pcbnew,7.0.10-7.0.10~ubuntu20.04.1*%
%TF.CreationDate,2024-07-25T22:54:35+03:00*%
%TF.ProjectId,Dot-Matrix-Terminal,446f742d-4d61-4747-9269-782d5465726d,rev?*%
%TF.SameCoordinates,PX5f5e100PY8f0d180*%
%TF.FileFunction,Soldermask,Top*%
%TF.FilePolarity,Negative*%
%FSLAX46Y46*%
G04 Gerber Fmt 4.6, Leading zero omitted, Abs format (unit mm)*
G04 Created by KiCad (PCBNEW 7.0.10-7.0.10~ubuntu20.04.1) date 2024-07-25 22:54:35*
%MOMM*%
%LPD*%
G01*
G04 APERTURE LIST*
G04 Aperture macros list*
%AMRoundRect*
0 Rectangle with rounded corners*
0 $1 Rounding radius*
0 $2 $3 $4 $5 $6 $7 $8 $9 X,Y pos of 4 corners*
0 Add a 4 corners polygon primitive as box body*
4,1,4,$2,$3,$4,$5,$6,$7,$8,$9,$2,$3,0*
0 Add four circle primitives for the rounded corners*
1,1,$1+$1,$2,$3*
1,1,$1+$1,$4,$5*
1,1,$1+$1,$6,$7*
1,1,$1+$1,$8,$9*
0 Add four rect primitives between the rounded corners*
20,1,$1+$1,$2,$3,$4,$5,0*
20,1,$1+$1,$4,$5,$6,$7,0*
20,1,$1+$1,$6,$7,$8,$9,0*
20,1,$1+$1,$8,$9,$2,$3,0*%
G04 Aperture macros list end*
%ADD10C,2.000000*%
%ADD11RoundRect,0.200000X-0.750000X-0.200000X0.750000X-0.200000X0.750000X0.200000X-0.750000X0.200000X0*%
%ADD12RoundRect,0.237500X-0.237500X0.250000X-0.237500X-0.250000X0.237500X-0.250000X0.237500X0.250000X0*%
%ADD13RoundRect,0.150000X0.450000X0.350000X-0.450000X0.350000X-0.450000X-0.350000X0.450000X-0.350000X0*%
%ADD14RoundRect,0.237500X-0.237500X0.300000X-0.237500X-0.300000X0.237500X-0.300000X0.237500X0.300000X0*%
%ADD15RoundRect,0.237500X-0.250000X-0.237500X0.250000X-0.237500X0.250000X0.237500X-0.250000X0.237500X0*%
%ADD16RoundRect,0.237500X0.250000X0.237500X-0.250000X0.237500X-0.250000X-0.237500X0.250000X-0.237500X0*%
%ADD17RoundRect,0.237500X-0.300000X-0.237500X0.300000X-0.237500X0.300000X0.237500X-0.300000X0.237500X0*%
%ADD18R,1.700000X1.700000*%
%ADD19O,1.700000X1.700000*%
%ADD20RoundRect,0.237500X0.237500X-0.250000X0.237500X0.250000X-0.237500X0.250000X-0.237500X-0.250000X0*%
%ADD21C,5.600000*%
%ADD22R,1.500000X0.900000*%
%ADD23R,0.900000X1.500000*%
%ADD24C,0.600000*%
%ADD25R,4.200000X4.200000*%
%ADD26RoundRect,0.200000X-0.200000X0.750000X-0.200000X-0.750000X0.200000X-0.750000X0.200000X0.750000X0*%
%ADD27RoundRect,0.150000X0.825000X0.150000X-0.825000X0.150000X-0.825000X-0.150000X0.825000X-0.150000X0*%
%ADD28RoundRect,0.237500X0.237500X-0.300000X0.237500X0.300000X-0.237500X0.300000X-0.237500X-0.300000X0*%
%ADD29R,3.500000X3.500000*%
%ADD30RoundRect,0.750000X-1.000000X0.750000X-1.000000X-0.750000X1.000000X-0.750000X1.000000X0.750000X0*%
%ADD31RoundRect,0.875000X-0.875000X0.875000X-0.875000X-0.875000X0.875000X-0.875000X0.875000X0.875000X0*%
%ADD32R,1.600000X1.600000*%
%ADD33C,1.600000*%
%ADD34C,4.000000*%
%ADD35C,1.500000*%
G04 APERTURE END LIST*
D10*
%TO.C,C7*%
X43750000Y83500000D03*
X36250000Y83500000D03*
%TD*%
D11*
%TO.C,D6*%
X45500000Y42950000D03*
X45500000Y41050000D03*
X48500000Y42000000D03*
%TD*%
D12*
%TO.C,R4*%
X34500000Y15912500D03*
X34500000Y14087500D03*
%TD*%
%TO.C,R6*%
X34500000Y22912500D03*
X34500000Y21087500D03*
%TD*%
D11*
%TO.C,Q4*%
X36500000Y15950000D03*
X36500000Y14050000D03*
X39500000Y15000000D03*
%TD*%
D13*
%TO.C,SW1*%
X13700000Y45750000D03*
X5300000Y45750000D03*
X13700000Y50250000D03*
X5300000Y50250000D03*
X13700000Y48000000D03*
%TD*%
D14*
%TO.C,C4*%
X20999999Y78362500D03*
X20999999Y76637500D03*
%TD*%
D11*
%TO.C,Q11*%
X36499999Y40450000D03*
X36499999Y38550000D03*
X39499999Y39500000D03*
%TD*%
%TO.C,Q7*%
X36500000Y26450000D03*
X36500000Y24550000D03*
X39500000Y25500000D03*
%TD*%
D12*
%TO.C,R8*%
X34499999Y29912500D03*
X34499999Y28087500D03*
%TD*%
D15*
%TO.C,R15*%
X28587500Y45000000D03*
X30412500Y45000000D03*
%TD*%
D16*
%TO.C,R14*%
X30412500Y52000000D03*
X28587500Y52000000D03*
%TD*%
D12*
%TO.C,R11*%
X34499999Y40412500D03*
X34499999Y38587500D03*
%TD*%
D17*
%TO.C,C1*%
X23137500Y86499999D03*
X24862500Y86499999D03*
%TD*%
D12*
%TO.C,R1*%
X34500000Y8912500D03*
X34500000Y7087500D03*
%TD*%
D18*
%TO.C,J8*%
X26486000Y23860999D03*
D19*
X23946000Y23860999D03*
%TD*%
D11*
%TO.C,Q8*%
X36500000Y29950000D03*
X36500000Y28050000D03*
X39500000Y29000000D03*
%TD*%
D14*
%TO.C,C5*%
X30500000Y2862500D03*
X30500000Y1137500D03*
%TD*%
D12*
%TO.C,R7*%
X34500000Y26412500D03*
X34500000Y24587500D03*
%TD*%
D15*
%TO.C,R16*%
X30587500Y4500000D03*
X32412500Y4500000D03*
%TD*%
D11*
%TO.C,Q6*%
X36500000Y22950000D03*
X36500000Y21050000D03*
X39500000Y22000000D03*
%TD*%
D17*
%TO.C,C2*%
X23137500Y81499999D03*
X24862500Y81499999D03*
%TD*%
D11*
%TO.C,D3*%
X45500000Y17450000D03*
X45500000Y15550000D03*
X48500000Y16500000D03*
%TD*%
%TO.C,D2*%
X45500000Y12450000D03*
X45500000Y10550000D03*
X48500000Y11500000D03*
%TD*%
D14*
%TO.C,C6*%
X32500000Y2862500D03*
X32500000Y1137500D03*
%TD*%
D12*
%TO.C,R10*%
X34500000Y36912501D03*
X34500000Y35087501D03*
%TD*%
D15*
%TO.C,R19*%
X12087500Y61500000D03*
X13912500Y61500000D03*
%TD*%
D18*
%TO.C,J6*%
X26485999Y42402998D03*
D19*
X23945999Y42402998D03*
%TD*%
D20*
%TO.C,R21*%
X17000000Y69587500D03*
X17000000Y71412500D03*
%TD*%
D18*
%TO.C,J4*%
X15818000Y23860999D03*
D19*
X13278000Y23860999D03*
%TD*%
D21*
%TO.C,H1*%
X32500000Y97500000D03*
%TD*%
D22*
%TO.C,U1*%
X28750000Y1500000D03*
X28750000Y2770000D03*
X28750000Y4040000D03*
X28750000Y5310000D03*
X28750000Y6580000D03*
X28750000Y7850000D03*
X28750000Y9120000D03*
X28750000Y10390000D03*
X28750000Y11660000D03*
X28750000Y12930000D03*
X28750000Y14200000D03*
X28750000Y15470000D03*
X28750000Y16740000D03*
X28750000Y18010000D03*
D23*
X25710000Y19260000D03*
X24440000Y19260000D03*
X23170000Y19260000D03*
X21900000Y19260000D03*
X20630000Y19260000D03*
X19360000Y19260000D03*
X18090000Y19260000D03*
X16820000Y19260000D03*
X15550000Y19260000D03*
X14280000Y19260000D03*
D22*
X11250000Y18010000D03*
X11250000Y16740000D03*
X11250000Y15470000D03*
X11250000Y14200000D03*
X11250000Y12930000D03*
X11250000Y11660000D03*
X11250000Y10390000D03*
X11250000Y9120000D03*
X11250000Y7850000D03*
X11250000Y6580000D03*
X11250000Y5310000D03*
X11250000Y4040000D03*
X11250000Y2770000D03*
X11250000Y1500000D03*
D24*
X22205000Y8077500D03*
X22205000Y9602500D03*
X21442500Y7315000D03*
X21442500Y8840000D03*
X21442500Y10365000D03*
X20680000Y8077500D03*
D25*
X20680000Y8840000D03*
D24*
X20680000Y9602500D03*
X19917500Y7315000D03*
X19917500Y8840000D03*
X19917500Y10365000D03*
X19155000Y8077500D03*
X19155000Y9602500D03*
%TD*%
D11*
%TO.C,D4*%
X45500000Y29950000D03*
X45500000Y28050000D03*
X48500000Y29000000D03*
%TD*%
D26*
%TO.C,Q14*%
X11949999Y59000000D03*
X10049999Y59000000D03*
X10999999Y56000000D03*
%TD*%
D20*
%TO.C,R20*%
X19000000Y69587500D03*
X19000000Y71412500D03*
%TD*%
D12*
%TO.C,R9*%
X34500000Y33412501D03*
X34500000Y31587501D03*
%TD*%
D11*
%TO.C,Q9*%
X36500000Y33450000D03*
X36500000Y31550000D03*
X39500000Y32500000D03*
%TD*%
D15*
%TO.C,R13*%
X28587499Y48000000D03*
X30412499Y48000000D03*
%TD*%
D12*
%TO.C,R3*%
X34500000Y12412500D03*
X34500000Y10587500D03*
%TD*%
%TO.C,R5*%
X34500000Y19412500D03*
X34500000Y17587500D03*
%TD*%
D26*
%TO.C,Q15*%
X15950000Y59000000D03*
X14050000Y59000000D03*
X15000000Y56000000D03*
%TD*%
D10*
%TO.C,C8*%
X43750000Y47000000D03*
X36250000Y47000000D03*
%TD*%
D11*
%TO.C,Q12*%
X36500000Y43950000D03*
X36500000Y42050000D03*
X39500000Y43000000D03*
%TD*%
D27*
%TO.C,U2*%
X18474999Y75555000D03*
X18474999Y76825000D03*
X18474999Y78095000D03*
X18474999Y79365000D03*
X18474999Y80635000D03*
X18474999Y81905000D03*
X18474999Y83175000D03*
X18474999Y84445000D03*
X13524999Y84445000D03*
X13524999Y83175000D03*
X13524999Y81905000D03*
X13524999Y80635000D03*
X13524999Y79365000D03*
X13524999Y78095000D03*
X13524999Y76825000D03*
X13524999Y75555000D03*
%TD*%
D13*
%TO.C,SW2*%
X24200000Y45750000D03*
X15800000Y45750000D03*
X24200000Y50250000D03*
X15800000Y50250000D03*
X24200000Y48000000D03*
%TD*%
D18*
%TO.C,J7*%
X15817999Y42402998D03*
D19*
X13277999Y42402998D03*
%TD*%
D11*
%TO.C,Q2*%
X36500000Y8950000D03*
X36500000Y7050000D03*
X39500000Y8000000D03*
%TD*%
D20*
%TO.C,R17*%
X20000000Y97587500D03*
X20000000Y99412500D03*
%TD*%
D11*
%TO.C,Q1*%
X36500000Y5450000D03*
X36500000Y3550000D03*
X39500000Y4500000D03*
%TD*%
D16*
%TO.C,R18*%
X13912500Y63500000D03*
X12087500Y63500000D03*
%TD*%
D12*
%TO.C,R2*%
X34499999Y5412500D03*
X34499999Y3587500D03*
%TD*%
D11*
%TO.C,Q3*%
X36500000Y12450000D03*
X36500000Y10550000D03*
X39500000Y11500000D03*
%TD*%
%TO.C,D1*%
X45500000Y7450000D03*
X45500000Y5550000D03*
X48500000Y6500000D03*
%TD*%
%TO.C,Q5*%
X36500000Y19450000D03*
X36500000Y17550000D03*
X39500000Y18500000D03*
%TD*%
D28*
%TO.C,C3*%
X23500000Y92637500D03*
X23500000Y94362500D03*
%TD*%
D21*
%TO.C,H2*%
X7500000Y97500000D03*
%TD*%
D11*
%TO.C,Q10*%
X36500000Y36950001D03*
X36500000Y35050001D03*
X39500000Y36000001D03*
%TD*%
D12*
%TO.C,R12*%
X34499999Y43912500D03*
X34499999Y42087500D03*
%TD*%
D11*
%TO.C,D5*%
X45500000Y35450000D03*
X45500000Y33550000D03*
X48500000Y34500000D03*
%TD*%
D18*
%TO.C,J3*%
X42500000Y50000000D03*
D19*
X42500000Y52540000D03*
X42500000Y55080000D03*
X42500000Y57620000D03*
X42500000Y60160000D03*
X42500000Y62700000D03*
X42500000Y65240000D03*
X42500000Y67780000D03*
X42500000Y70320000D03*
X42500000Y72860000D03*
%TD*%
D29*
%TO.C,J5*%
X41750000Y94000000D03*
D30*
X41750000Y100000000D03*
D31*
X46450000Y97000000D03*
%TD*%
D32*
%TO.C,J1*%
X21250000Y92750000D03*
D33*
X18750000Y92750000D03*
X18750000Y94750000D03*
X21250000Y94750000D03*
D34*
X14000000Y97610000D03*
X26000000Y97610000D03*
%TD*%
D18*
%TO.C,J2*%
X42500001Y2500000D03*
D19*
X42500001Y5040000D03*
X42500001Y7580000D03*
X42500001Y10120000D03*
X42500001Y12660000D03*
X42500001Y15200000D03*
X42500001Y17740000D03*
X42500001Y20280000D03*
X42500001Y22820000D03*
X42500001Y25360000D03*
X42500001Y27900000D03*
X42500001Y30440000D03*
X42500001Y32980000D03*
X42500001Y35520000D03*
X42500001Y38060000D03*
X42500001Y40600000D03*
X42500001Y43140000D03*
%TD*%
D35*
%TO.C,Y1*%
X21000000Y81550001D03*
X21000000Y86430001D03*
%TD*%
M02*
