%TF.GenerationSoftware,KiCad,Pcbnew,7.0.10-7.0.10~ubuntu20.04.1*%
%TF.CreationDate,2024-07-22T22:54:13+03:00*%
%TF.ProjectId,Dot-Matrix-Terminal,446f742d-4d61-4747-9269-782d5465726d,rev?*%
%TF.SameCoordinates,PX5f5e100PY5f5e100*%
%TF.FileFunction,Paste,Top*%
%TF.FilePolarity,Positive*%
%FSLAX46Y46*%
G04 Gerber Fmt 4.6, Leading zero omitted, Abs format (unit mm)*
G04 Created by KiCad (PCBNEW 7.0.10-7.0.10~ubuntu20.04.1) date 2024-07-22 22:54:13*
%MOMM*%
%LPD*%
G01*
G04 APERTURE LIST*
G04 Aperture macros list*
%AMRoundRect*
0 Rectangle with rounded corners*
0 $1 Rounding radius*
0 $2 $3 $4 $5 $6 $7 $8 $9 X,Y pos of 4 corners*
0 Add a 4 corners polygon primitive as box body*
4,1,4,$2,$3,$4,$5,$6,$7,$8,$9,$2,$3,0*
0 Add four circle primitives for the rounded corners*
1,1,$1+$1,$2,$3*
1,1,$1+$1,$4,$5*
1,1,$1+$1,$6,$7*
1,1,$1+$1,$8,$9*
0 Add four rect primitives between the rounded corners*
20,1,$1+$1,$2,$3,$4,$5,0*
20,1,$1+$1,$4,$5,$6,$7,0*
20,1,$1+$1,$6,$7,$8,$9,0*
20,1,$1+$1,$8,$9,$2,$3,0*%
G04 Aperture macros list end*
%ADD10RoundRect,0.200000X-0.200000X0.750000X-0.200000X-0.750000X0.200000X-0.750000X0.200000X0.750000X0*%
%ADD11RoundRect,0.237500X0.250000X0.237500X-0.250000X0.237500X-0.250000X-0.237500X0.250000X-0.237500X0*%
%ADD12RoundRect,0.150000X0.350000X-0.450000X0.350000X0.450000X-0.350000X0.450000X-0.350000X-0.450000X0*%
%ADD13RoundRect,0.237500X0.300000X0.237500X-0.300000X0.237500X-0.300000X-0.237500X0.300000X-0.237500X0*%
%ADD14RoundRect,0.237500X-0.237500X0.250000X-0.237500X-0.250000X0.237500X-0.250000X0.237500X0.250000X0*%
%ADD15RoundRect,0.237500X0.237500X-0.250000X0.237500X0.250000X-0.237500X0.250000X-0.237500X-0.250000X0*%
%ADD16RoundRect,0.237500X-0.237500X0.300000X-0.237500X-0.300000X0.237500X-0.300000X0.237500X0.300000X0*%
%ADD17RoundRect,0.237500X-0.250000X-0.237500X0.250000X-0.237500X0.250000X0.237500X-0.250000X0.237500X0*%
%ADD18R,0.900000X1.500000*%
%ADD19R,1.500000X0.900000*%
%ADD20R,1.050000X1.050000*%
%ADD21RoundRect,0.200000X0.750000X0.200000X-0.750000X0.200000X-0.750000X-0.200000X0.750000X-0.200000X0*%
%ADD22RoundRect,0.150000X0.150000X-0.825000X0.150000X0.825000X-0.150000X0.825000X-0.150000X-0.825000X0*%
%ADD23RoundRect,0.237500X-0.300000X-0.237500X0.300000X-0.237500X0.300000X0.237500X-0.300000X0.237500X0*%
G04 APERTURE END LIST*
D10*
%TO.C,D6*%
X42950000Y-45500000D03*
X41050000Y-45500000D03*
X42000000Y-48500000D03*
%TD*%
D11*
%TO.C,R4*%
X15912500Y-34500000D03*
X14087500Y-34500000D03*
%TD*%
%TO.C,R6*%
X22912500Y-34500000D03*
X21087500Y-34500000D03*
%TD*%
D10*
%TO.C,Q4*%
X15950000Y-36500000D03*
X14050000Y-36500000D03*
X15000000Y-39500000D03*
%TD*%
D12*
%TO.C,SW1*%
X45750000Y-13700000D03*
X45750000Y-5300000D03*
X50250000Y-13700000D03*
X50250000Y-5300000D03*
X48000000Y-13700000D03*
%TD*%
D13*
%TO.C,C4*%
X78362500Y-21000000D03*
X76637500Y-21000000D03*
%TD*%
D10*
%TO.C,Q11*%
X40450000Y-36500000D03*
X38550000Y-36500000D03*
X39500000Y-39500000D03*
%TD*%
%TO.C,Q7*%
X26450000Y-36500000D03*
X24550000Y-36500000D03*
X25500000Y-39500000D03*
%TD*%
D11*
%TO.C,R8*%
X29912500Y-34500000D03*
X28087500Y-34500000D03*
%TD*%
D14*
%TO.C,R15*%
X45000000Y-28587500D03*
X45000000Y-30412500D03*
%TD*%
D15*
%TO.C,R14*%
X52000000Y-30412500D03*
X52000000Y-28587500D03*
%TD*%
D11*
%TO.C,R11*%
X40412500Y-34500000D03*
X38587500Y-34500000D03*
%TD*%
D16*
%TO.C,C1*%
X86500000Y-23137500D03*
X86500000Y-24862500D03*
%TD*%
D11*
%TO.C,R1*%
X8912500Y-34500000D03*
X7087500Y-34500000D03*
%TD*%
D10*
%TO.C,Q8*%
X29950000Y-36500000D03*
X28050000Y-36500000D03*
X29000000Y-39500000D03*
%TD*%
D13*
%TO.C,C5*%
X2862500Y-30500000D03*
X1137500Y-30500000D03*
%TD*%
D11*
%TO.C,R7*%
X26412500Y-34500000D03*
X24587500Y-34500000D03*
%TD*%
D14*
%TO.C,R16*%
X4500000Y-30587500D03*
X4500000Y-32412500D03*
%TD*%
D10*
%TO.C,Q6*%
X22950000Y-36500000D03*
X21050000Y-36500000D03*
X22000000Y-39500000D03*
%TD*%
D16*
%TO.C,C2*%
X81500000Y-23137500D03*
X81500000Y-24862500D03*
%TD*%
D10*
%TO.C,D3*%
X17450000Y-45500000D03*
X15550000Y-45500000D03*
X16500000Y-48500000D03*
%TD*%
%TO.C,D2*%
X12450000Y-45500000D03*
X10550000Y-45500000D03*
X11500000Y-48500000D03*
%TD*%
D13*
%TO.C,C6*%
X2862500Y-32500000D03*
X1137500Y-32500000D03*
%TD*%
D11*
%TO.C,R10*%
X36912500Y-34500000D03*
X35087500Y-34500000D03*
%TD*%
D14*
%TO.C,R19*%
X61500000Y-12087500D03*
X61500000Y-13912500D03*
%TD*%
D17*
%TO.C,R21*%
X69587500Y-17000000D03*
X71412500Y-17000000D03*
%TD*%
D18*
%TO.C,U1*%
X1500000Y-28750000D03*
X2770000Y-28750000D03*
X4040000Y-28750000D03*
X5310000Y-28750000D03*
X6580000Y-28750000D03*
X7850000Y-28750000D03*
X9120000Y-28750000D03*
X10390000Y-28750000D03*
X11660000Y-28750000D03*
X12930000Y-28750000D03*
X14200000Y-28750000D03*
X15470000Y-28750000D03*
X16740000Y-28750000D03*
X18010000Y-28750000D03*
D19*
X19260000Y-25710000D03*
X19260000Y-24440000D03*
X19260000Y-23170000D03*
X19260000Y-21900000D03*
X19260000Y-20630000D03*
X19260000Y-19360000D03*
X19260000Y-18090000D03*
X19260000Y-16820000D03*
X19260000Y-15550000D03*
X19260000Y-14280000D03*
D18*
X18010000Y-11250000D03*
X16740000Y-11250000D03*
X15470000Y-11250000D03*
X14200000Y-11250000D03*
X12930000Y-11250000D03*
X11660000Y-11250000D03*
X10390000Y-11250000D03*
X9120000Y-11250000D03*
X7850000Y-11250000D03*
X6580000Y-11250000D03*
X5310000Y-11250000D03*
X4040000Y-11250000D03*
X2770000Y-11250000D03*
X1500000Y-11250000D03*
D20*
X7315000Y-22205000D03*
X8840000Y-22205000D03*
X10365000Y-22205000D03*
X7315000Y-20680000D03*
X8840000Y-20680000D03*
X10365000Y-20680000D03*
X7315000Y-19155000D03*
X8840000Y-19155000D03*
X10365000Y-19155000D03*
%TD*%
D10*
%TO.C,D4*%
X29950000Y-45500000D03*
X28050000Y-45500000D03*
X29000000Y-48500000D03*
%TD*%
D21*
%TO.C,Q14*%
X59000000Y-11950000D03*
X59000000Y-10050000D03*
X56000000Y-11000000D03*
%TD*%
D17*
%TO.C,R20*%
X69587500Y-19000000D03*
X71412500Y-19000000D03*
%TD*%
D11*
%TO.C,R9*%
X33412500Y-34500000D03*
X31587500Y-34500000D03*
%TD*%
D10*
%TO.C,Q9*%
X33450000Y-36500000D03*
X31550000Y-36500000D03*
X32500000Y-39500000D03*
%TD*%
D14*
%TO.C,R13*%
X48000000Y-28587500D03*
X48000000Y-30412500D03*
%TD*%
D11*
%TO.C,R3*%
X12412500Y-34500000D03*
X10587500Y-34500000D03*
%TD*%
%TO.C,R5*%
X19412500Y-34500000D03*
X17587500Y-34500000D03*
%TD*%
D21*
%TO.C,Q15*%
X59000000Y-15950000D03*
X59000000Y-14050000D03*
X56000000Y-15000000D03*
%TD*%
D10*
%TO.C,Q12*%
X43950000Y-36500000D03*
X42050000Y-36500000D03*
X43000000Y-39500000D03*
%TD*%
D22*
%TO.C,U2*%
X75555000Y-18475000D03*
X76825000Y-18475000D03*
X78095000Y-18475000D03*
X79365000Y-18475000D03*
X80635000Y-18475000D03*
X81905000Y-18475000D03*
X83175000Y-18475000D03*
X84445000Y-18475000D03*
X84445000Y-13525000D03*
X83175000Y-13525000D03*
X81905000Y-13525000D03*
X80635000Y-13525000D03*
X79365000Y-13525000D03*
X78095000Y-13525000D03*
X76825000Y-13525000D03*
X75555000Y-13525000D03*
%TD*%
D12*
%TO.C,SW2*%
X45750000Y-24200000D03*
X45750000Y-15800000D03*
X50250000Y-24200000D03*
X50250000Y-15800000D03*
X48000000Y-24200000D03*
%TD*%
D10*
%TO.C,Q2*%
X8950000Y-36500000D03*
X7050000Y-36500000D03*
X8000000Y-39500000D03*
%TD*%
D17*
%TO.C,R17*%
X97587500Y-20000000D03*
X99412500Y-20000000D03*
%TD*%
D10*
%TO.C,Q1*%
X5450000Y-36500000D03*
X3550000Y-36500000D03*
X4500000Y-39500000D03*
%TD*%
D15*
%TO.C,R18*%
X63500000Y-13912500D03*
X63500000Y-12087500D03*
%TD*%
D11*
%TO.C,R2*%
X5412500Y-34500000D03*
X3587500Y-34500000D03*
%TD*%
D10*
%TO.C,Q3*%
X12450000Y-36500000D03*
X10550000Y-36500000D03*
X11500000Y-39500000D03*
%TD*%
%TO.C,D1*%
X7450000Y-45500000D03*
X5550000Y-45500000D03*
X6500000Y-48500000D03*
%TD*%
%TO.C,Q5*%
X19450000Y-36500000D03*
X17550000Y-36500000D03*
X18500000Y-39500000D03*
%TD*%
D23*
%TO.C,C3*%
X92637500Y-23500000D03*
X94362500Y-23500000D03*
%TD*%
D10*
%TO.C,Q10*%
X36950000Y-36500000D03*
X35050000Y-36500000D03*
X36000000Y-39500000D03*
%TD*%
D11*
%TO.C,R12*%
X43912500Y-34500000D03*
X42087500Y-34500000D03*
%TD*%
D10*
%TO.C,D5*%
X35450000Y-45500000D03*
X33550000Y-45500000D03*
X34500000Y-48500000D03*
%TD*%
M02*
