%TF.GenerationSoftware,KiCad,Pcbnew,7.0.10-7.0.10~ubuntu20.04.1*%
%TF.CreationDate,2024-07-23T03:20:51+03:00*%
%TF.ProjectId,Dot-Matrix-Terminal,446f742d-4d61-4747-9269-782d5465726d,rev?*%
%TF.SameCoordinates,PX5f5e100PY8f0d180*%
%TF.FileFunction,Legend,Top*%
%TF.FilePolarity,Positive*%
%FSLAX46Y46*%
G04 Gerber Fmt 4.6, Leading zero omitted, Abs format (unit mm)*
G04 Created by KiCad (PCBNEW 7.0.10-7.0.10~ubuntu20.04.1) date 2024-07-23 03:20:51*
%MOMM*%
%LPD*%
G01*
G04 APERTURE LIST*
%ADD10C,0.150000*%
%ADD11C,0.100000*%
%ADD12C,0.120000*%
G04 APERTURE END LIST*
D10*
X28264000Y22083000D02*
X11500000Y22083001D01*
X11500000Y44181000D01*
X28264002Y44181000D01*
X28264000Y22083000D01*
X39833333Y73890420D02*
X39785714Y73842800D01*
X39785714Y73842800D02*
X39642857Y73795181D01*
X39642857Y73795181D02*
X39547619Y73795181D01*
X39547619Y73795181D02*
X39404762Y73842800D01*
X39404762Y73842800D02*
X39309524Y73938039D01*
X39309524Y73938039D02*
X39261905Y74033277D01*
X39261905Y74033277D02*
X39214286Y74223753D01*
X39214286Y74223753D02*
X39214286Y74366610D01*
X39214286Y74366610D02*
X39261905Y74557086D01*
X39261905Y74557086D02*
X39309524Y74652324D01*
X39309524Y74652324D02*
X39404762Y74747562D01*
X39404762Y74747562D02*
X39547619Y74795181D01*
X39547619Y74795181D02*
X39642857Y74795181D01*
X39642857Y74795181D02*
X39785714Y74747562D01*
X39785714Y74747562D02*
X39833333Y74699943D01*
X40166667Y74795181D02*
X40833333Y74795181D01*
X40833333Y74795181D02*
X40404762Y73795181D01*
X46261905Y44295181D02*
X46261905Y45295181D01*
X46261905Y45295181D02*
X46500000Y45295181D01*
X46500000Y45295181D02*
X46642857Y45247562D01*
X46642857Y45247562D02*
X46738095Y45152324D01*
X46738095Y45152324D02*
X46785714Y45057086D01*
X46785714Y45057086D02*
X46833333Y44866610D01*
X46833333Y44866610D02*
X46833333Y44723753D01*
X46833333Y44723753D02*
X46785714Y44533277D01*
X46785714Y44533277D02*
X46738095Y44438039D01*
X46738095Y44438039D02*
X46642857Y44342800D01*
X46642857Y44342800D02*
X46500000Y44295181D01*
X46500000Y44295181D02*
X46261905Y44295181D01*
X47690476Y45295181D02*
X47500000Y45295181D01*
X47500000Y45295181D02*
X47404762Y45247562D01*
X47404762Y45247562D02*
X47357143Y45199943D01*
X47357143Y45199943D02*
X47261905Y45057086D01*
X47261905Y45057086D02*
X47214286Y44866610D01*
X47214286Y44866610D02*
X47214286Y44485658D01*
X47214286Y44485658D02*
X47261905Y44390420D01*
X47261905Y44390420D02*
X47309524Y44342800D01*
X47309524Y44342800D02*
X47404762Y44295181D01*
X47404762Y44295181D02*
X47595238Y44295181D01*
X47595238Y44295181D02*
X47690476Y44342800D01*
X47690476Y44342800D02*
X47738095Y44390420D01*
X47738095Y44390420D02*
X47785714Y44485658D01*
X47785714Y44485658D02*
X47785714Y44723753D01*
X47785714Y44723753D02*
X47738095Y44818991D01*
X47738095Y44818991D02*
X47690476Y44866610D01*
X47690476Y44866610D02*
X47595238Y44914229D01*
X47595238Y44914229D02*
X47404762Y44914229D01*
X47404762Y44914229D02*
X47309524Y44866610D01*
X47309524Y44866610D02*
X47261905Y44818991D01*
X47261905Y44818991D02*
X47214286Y44723753D01*
X36384819Y14833334D02*
X35908628Y14500001D01*
X36384819Y14261906D02*
X35384819Y14261906D01*
X35384819Y14261906D02*
X35384819Y14642858D01*
X35384819Y14642858D02*
X35432438Y14738096D01*
X35432438Y14738096D02*
X35480057Y14785715D01*
X35480057Y14785715D02*
X35575295Y14833334D01*
X35575295Y14833334D02*
X35718152Y14833334D01*
X35718152Y14833334D02*
X35813390Y14785715D01*
X35813390Y14785715D02*
X35861009Y14738096D01*
X35861009Y14738096D02*
X35908628Y14642858D01*
X35908628Y14642858D02*
X35908628Y14261906D01*
X35718152Y15690477D02*
X36384819Y15690477D01*
X35337200Y15452382D02*
X36051485Y15214287D01*
X36051485Y15214287D02*
X36051485Y15833334D01*
X36384819Y21833334D02*
X35908628Y21500001D01*
X36384819Y21261906D02*
X35384819Y21261906D01*
X35384819Y21261906D02*
X35384819Y21642858D01*
X35384819Y21642858D02*
X35432438Y21738096D01*
X35432438Y21738096D02*
X35480057Y21785715D01*
X35480057Y21785715D02*
X35575295Y21833334D01*
X35575295Y21833334D02*
X35718152Y21833334D01*
X35718152Y21833334D02*
X35813390Y21785715D01*
X35813390Y21785715D02*
X35861009Y21738096D01*
X35861009Y21738096D02*
X35908628Y21642858D01*
X35908628Y21642858D02*
X35908628Y21261906D01*
X35384819Y22690477D02*
X35384819Y22500001D01*
X35384819Y22500001D02*
X35432438Y22404763D01*
X35432438Y22404763D02*
X35480057Y22357144D01*
X35480057Y22357144D02*
X35622914Y22261906D01*
X35622914Y22261906D02*
X35813390Y22214287D01*
X35813390Y22214287D02*
X36194342Y22214287D01*
X36194342Y22214287D02*
X36289580Y22261906D01*
X36289580Y22261906D02*
X36337200Y22309525D01*
X36337200Y22309525D02*
X36384819Y22404763D01*
X36384819Y22404763D02*
X36384819Y22595239D01*
X36384819Y22595239D02*
X36337200Y22690477D01*
X36337200Y22690477D02*
X36289580Y22738096D01*
X36289580Y22738096D02*
X36194342Y22785715D01*
X36194342Y22785715D02*
X35956247Y22785715D01*
X35956247Y22785715D02*
X35861009Y22738096D01*
X35861009Y22738096D02*
X35813390Y22690477D01*
X35813390Y22690477D02*
X35765771Y22595239D01*
X35765771Y22595239D02*
X35765771Y22404763D01*
X35765771Y22404763D02*
X35813390Y22309525D01*
X35813390Y22309525D02*
X35861009Y22261906D01*
X35861009Y22261906D02*
X35956247Y22214287D01*
X37904761Y17199943D02*
X37809523Y17247562D01*
X37809523Y17247562D02*
X37714285Y17342800D01*
X37714285Y17342800D02*
X37571428Y17485658D01*
X37571428Y17485658D02*
X37476190Y17533277D01*
X37476190Y17533277D02*
X37380952Y17533277D01*
X37428571Y17295181D02*
X37333333Y17342800D01*
X37333333Y17342800D02*
X37238095Y17438039D01*
X37238095Y17438039D02*
X37190476Y17628515D01*
X37190476Y17628515D02*
X37190476Y17961848D01*
X37190476Y17961848D02*
X37238095Y18152324D01*
X37238095Y18152324D02*
X37333333Y18247562D01*
X37333333Y18247562D02*
X37428571Y18295181D01*
X37428571Y18295181D02*
X37619047Y18295181D01*
X37619047Y18295181D02*
X37714285Y18247562D01*
X37714285Y18247562D02*
X37809523Y18152324D01*
X37809523Y18152324D02*
X37857142Y17961848D01*
X37857142Y17961848D02*
X37857142Y17628515D01*
X37857142Y17628515D02*
X37809523Y17438039D01*
X37809523Y17438039D02*
X37714285Y17342800D01*
X37714285Y17342800D02*
X37619047Y17295181D01*
X37619047Y17295181D02*
X37428571Y17295181D01*
X38714285Y17961848D02*
X38714285Y17295181D01*
X38476190Y18342800D02*
X38238095Y17628515D01*
X38238095Y17628515D02*
X38857142Y17628515D01*
D11*
X10833332Y43329800D02*
X10690475Y43377420D01*
X10690475Y43377420D02*
X10452380Y43377420D01*
X10452380Y43377420D02*
X10357142Y43329800D01*
X10357142Y43329800D02*
X10309523Y43282181D01*
X10309523Y43282181D02*
X10261904Y43186943D01*
X10261904Y43186943D02*
X10261904Y43091705D01*
X10261904Y43091705D02*
X10309523Y42996467D01*
X10309523Y42996467D02*
X10357142Y42948848D01*
X10357142Y42948848D02*
X10452380Y42901229D01*
X10452380Y42901229D02*
X10642856Y42853610D01*
X10642856Y42853610D02*
X10738094Y42805991D01*
X10738094Y42805991D02*
X10785713Y42758372D01*
X10785713Y42758372D02*
X10833332Y42663134D01*
X10833332Y42663134D02*
X10833332Y42567896D01*
X10833332Y42567896D02*
X10785713Y42472658D01*
X10785713Y42472658D02*
X10738094Y42425039D01*
X10738094Y42425039D02*
X10642856Y42377420D01*
X10642856Y42377420D02*
X10404761Y42377420D01*
X10404761Y42377420D02*
X10261904Y42425039D01*
X9928570Y42377420D02*
X9690475Y43377420D01*
X9690475Y43377420D02*
X9499999Y42663134D01*
X9499999Y42663134D02*
X9309523Y43377420D01*
X9309523Y43377420D02*
X9071428Y42377420D01*
X8166666Y43377420D02*
X8738094Y43377420D01*
X8452380Y43377420D02*
X8452380Y42377420D01*
X8452380Y42377420D02*
X8547618Y42520277D01*
X8547618Y42520277D02*
X8642856Y42615515D01*
X8642856Y42615515D02*
X8738094Y42663134D01*
D10*
X22789579Y77333334D02*
X22837199Y77285715D01*
X22837199Y77285715D02*
X22884818Y77142858D01*
X22884818Y77142858D02*
X22884818Y77047620D01*
X22884818Y77047620D02*
X22837199Y76904763D01*
X22837199Y76904763D02*
X22741960Y76809525D01*
X22741960Y76809525D02*
X22646722Y76761906D01*
X22646722Y76761906D02*
X22456246Y76714287D01*
X22456246Y76714287D02*
X22313389Y76714287D01*
X22313389Y76714287D02*
X22122913Y76761906D01*
X22122913Y76761906D02*
X22027675Y76809525D01*
X22027675Y76809525D02*
X21932437Y76904763D01*
X21932437Y76904763D02*
X21884818Y77047620D01*
X21884818Y77047620D02*
X21884818Y77142858D01*
X21884818Y77142858D02*
X21932437Y77285715D01*
X21932437Y77285715D02*
X21980056Y77333334D01*
X22218151Y78190477D02*
X22884818Y78190477D01*
X21837199Y77952382D02*
X22551484Y77714287D01*
X22551484Y77714287D02*
X22551484Y78333334D01*
X37428570Y41699943D02*
X37333332Y41747562D01*
X37333332Y41747562D02*
X37238094Y41842800D01*
X37238094Y41842800D02*
X37095237Y41985658D01*
X37095237Y41985658D02*
X36999999Y42033277D01*
X36999999Y42033277D02*
X36904761Y42033277D01*
X36952380Y41795181D02*
X36857142Y41842800D01*
X36857142Y41842800D02*
X36761904Y41938039D01*
X36761904Y41938039D02*
X36714285Y42128515D01*
X36714285Y42128515D02*
X36714285Y42461848D01*
X36714285Y42461848D02*
X36761904Y42652324D01*
X36761904Y42652324D02*
X36857142Y42747562D01*
X36857142Y42747562D02*
X36952380Y42795181D01*
X36952380Y42795181D02*
X37142856Y42795181D01*
X37142856Y42795181D02*
X37238094Y42747562D01*
X37238094Y42747562D02*
X37333332Y42652324D01*
X37333332Y42652324D02*
X37380951Y42461848D01*
X37380951Y42461848D02*
X37380951Y42128515D01*
X37380951Y42128515D02*
X37333332Y41938039D01*
X37333332Y41938039D02*
X37238094Y41842800D01*
X37238094Y41842800D02*
X37142856Y41795181D01*
X37142856Y41795181D02*
X36952380Y41795181D01*
X38333332Y41795181D02*
X37761904Y41795181D01*
X38047618Y41795181D02*
X38047618Y42795181D01*
X38047618Y42795181D02*
X37952380Y42652324D01*
X37952380Y42652324D02*
X37857142Y42557086D01*
X37857142Y42557086D02*
X37761904Y42509467D01*
X39285713Y41795181D02*
X38714285Y41795181D01*
X38999999Y41795181D02*
X38999999Y42795181D01*
X38999999Y42795181D02*
X38904761Y42652324D01*
X38904761Y42652324D02*
X38809523Y42557086D01*
X38809523Y42557086D02*
X38714285Y42509467D01*
X37904761Y27699943D02*
X37809523Y27747562D01*
X37809523Y27747562D02*
X37714285Y27842800D01*
X37714285Y27842800D02*
X37571428Y27985658D01*
X37571428Y27985658D02*
X37476190Y28033277D01*
X37476190Y28033277D02*
X37380952Y28033277D01*
X37428571Y27795181D02*
X37333333Y27842800D01*
X37333333Y27842800D02*
X37238095Y27938039D01*
X37238095Y27938039D02*
X37190476Y28128515D01*
X37190476Y28128515D02*
X37190476Y28461848D01*
X37190476Y28461848D02*
X37238095Y28652324D01*
X37238095Y28652324D02*
X37333333Y28747562D01*
X37333333Y28747562D02*
X37428571Y28795181D01*
X37428571Y28795181D02*
X37619047Y28795181D01*
X37619047Y28795181D02*
X37714285Y28747562D01*
X37714285Y28747562D02*
X37809523Y28652324D01*
X37809523Y28652324D02*
X37857142Y28461848D01*
X37857142Y28461848D02*
X37857142Y28128515D01*
X37857142Y28128515D02*
X37809523Y27938039D01*
X37809523Y27938039D02*
X37714285Y27842800D01*
X37714285Y27842800D02*
X37619047Y27795181D01*
X37619047Y27795181D02*
X37428571Y27795181D01*
X38190476Y28795181D02*
X38857142Y28795181D01*
X38857142Y28795181D02*
X38428571Y27795181D01*
X36384818Y28833334D02*
X35908627Y28500001D01*
X36384818Y28261906D02*
X35384818Y28261906D01*
X35384818Y28261906D02*
X35384818Y28642858D01*
X35384818Y28642858D02*
X35432437Y28738096D01*
X35432437Y28738096D02*
X35480056Y28785715D01*
X35480056Y28785715D02*
X35575294Y28833334D01*
X35575294Y28833334D02*
X35718151Y28833334D01*
X35718151Y28833334D02*
X35813389Y28785715D01*
X35813389Y28785715D02*
X35861008Y28738096D01*
X35861008Y28738096D02*
X35908627Y28642858D01*
X35908627Y28642858D02*
X35908627Y28261906D01*
X35813389Y29404763D02*
X35765770Y29309525D01*
X35765770Y29309525D02*
X35718151Y29261906D01*
X35718151Y29261906D02*
X35622913Y29214287D01*
X35622913Y29214287D02*
X35575294Y29214287D01*
X35575294Y29214287D02*
X35480056Y29261906D01*
X35480056Y29261906D02*
X35432437Y29309525D01*
X35432437Y29309525D02*
X35384818Y29404763D01*
X35384818Y29404763D02*
X35384818Y29595239D01*
X35384818Y29595239D02*
X35432437Y29690477D01*
X35432437Y29690477D02*
X35480056Y29738096D01*
X35480056Y29738096D02*
X35575294Y29785715D01*
X35575294Y29785715D02*
X35622913Y29785715D01*
X35622913Y29785715D02*
X35718151Y29738096D01*
X35718151Y29738096D02*
X35765770Y29690477D01*
X35765770Y29690477D02*
X35813389Y29595239D01*
X35813389Y29595239D02*
X35813389Y29404763D01*
X35813389Y29404763D02*
X35861008Y29309525D01*
X35861008Y29309525D02*
X35908627Y29261906D01*
X35908627Y29261906D02*
X36003865Y29214287D01*
X36003865Y29214287D02*
X36194341Y29214287D01*
X36194341Y29214287D02*
X36289579Y29261906D01*
X36289579Y29261906D02*
X36337199Y29309525D01*
X36337199Y29309525D02*
X36384818Y29404763D01*
X36384818Y29404763D02*
X36384818Y29595239D01*
X36384818Y29595239D02*
X36337199Y29690477D01*
X36337199Y29690477D02*
X36289579Y29738096D01*
X36289579Y29738096D02*
X36194341Y29785715D01*
X36194341Y29785715D02*
X36003865Y29785715D01*
X36003865Y29785715D02*
X35908627Y29738096D01*
X35908627Y29738096D02*
X35861008Y29690477D01*
X35861008Y29690477D02*
X35813389Y29595239D01*
X28857142Y45975181D02*
X28523809Y46451372D01*
X28285714Y45975181D02*
X28285714Y46975181D01*
X28285714Y46975181D02*
X28666666Y46975181D01*
X28666666Y46975181D02*
X28761904Y46927562D01*
X28761904Y46927562D02*
X28809523Y46879943D01*
X28809523Y46879943D02*
X28857142Y46784705D01*
X28857142Y46784705D02*
X28857142Y46641848D01*
X28857142Y46641848D02*
X28809523Y46546610D01*
X28809523Y46546610D02*
X28761904Y46498991D01*
X28761904Y46498991D02*
X28666666Y46451372D01*
X28666666Y46451372D02*
X28285714Y46451372D01*
X29809523Y45975181D02*
X29238095Y45975181D01*
X29523809Y45975181D02*
X29523809Y46975181D01*
X29523809Y46975181D02*
X29428571Y46832324D01*
X29428571Y46832324D02*
X29333333Y46737086D01*
X29333333Y46737086D02*
X29238095Y46689467D01*
X30714285Y46975181D02*
X30238095Y46975181D01*
X30238095Y46975181D02*
X30190476Y46498991D01*
X30190476Y46498991D02*
X30238095Y46546610D01*
X30238095Y46546610D02*
X30333333Y46594229D01*
X30333333Y46594229D02*
X30571428Y46594229D01*
X30571428Y46594229D02*
X30666666Y46546610D01*
X30666666Y46546610D02*
X30714285Y46498991D01*
X30714285Y46498991D02*
X30761904Y46403753D01*
X30761904Y46403753D02*
X30761904Y46165658D01*
X30761904Y46165658D02*
X30714285Y46070420D01*
X30714285Y46070420D02*
X30666666Y46022800D01*
X30666666Y46022800D02*
X30571428Y45975181D01*
X30571428Y45975181D02*
X30333333Y45975181D01*
X30333333Y45975181D02*
X30238095Y46022800D01*
X30238095Y46022800D02*
X30190476Y46070420D01*
X28857142Y50115181D02*
X28523809Y50591372D01*
X28285714Y50115181D02*
X28285714Y51115181D01*
X28285714Y51115181D02*
X28666666Y51115181D01*
X28666666Y51115181D02*
X28761904Y51067562D01*
X28761904Y51067562D02*
X28809523Y51019943D01*
X28809523Y51019943D02*
X28857142Y50924705D01*
X28857142Y50924705D02*
X28857142Y50781848D01*
X28857142Y50781848D02*
X28809523Y50686610D01*
X28809523Y50686610D02*
X28761904Y50638991D01*
X28761904Y50638991D02*
X28666666Y50591372D01*
X28666666Y50591372D02*
X28285714Y50591372D01*
X29809523Y50115181D02*
X29238095Y50115181D01*
X29523809Y50115181D02*
X29523809Y51115181D01*
X29523809Y51115181D02*
X29428571Y50972324D01*
X29428571Y50972324D02*
X29333333Y50877086D01*
X29333333Y50877086D02*
X29238095Y50829467D01*
X30666666Y50781848D02*
X30666666Y50115181D01*
X30428571Y51162800D02*
X30190476Y50448515D01*
X30190476Y50448515D02*
X30809523Y50448515D01*
X36384818Y38857143D02*
X35908627Y38523810D01*
X36384818Y38285715D02*
X35384818Y38285715D01*
X35384818Y38285715D02*
X35384818Y38666667D01*
X35384818Y38666667D02*
X35432437Y38761905D01*
X35432437Y38761905D02*
X35480056Y38809524D01*
X35480056Y38809524D02*
X35575294Y38857143D01*
X35575294Y38857143D02*
X35718151Y38857143D01*
X35718151Y38857143D02*
X35813389Y38809524D01*
X35813389Y38809524D02*
X35861008Y38761905D01*
X35861008Y38761905D02*
X35908627Y38666667D01*
X35908627Y38666667D02*
X35908627Y38285715D01*
X36384818Y39809524D02*
X36384818Y39238096D01*
X36384818Y39523810D02*
X35384818Y39523810D01*
X35384818Y39523810D02*
X35527675Y39428572D01*
X35527675Y39428572D02*
X35622913Y39333334D01*
X35622913Y39333334D02*
X35670532Y39238096D01*
X36384818Y40761905D02*
X36384818Y40190477D01*
X36384818Y40476191D02*
X35384818Y40476191D01*
X35384818Y40476191D02*
X35527675Y40380953D01*
X35527675Y40380953D02*
X35622913Y40285715D01*
X35622913Y40285715D02*
X35670532Y40190477D01*
X23833333Y87570419D02*
X23785714Y87522799D01*
X23785714Y87522799D02*
X23642857Y87475180D01*
X23642857Y87475180D02*
X23547619Y87475180D01*
X23547619Y87475180D02*
X23404762Y87522799D01*
X23404762Y87522799D02*
X23309524Y87618038D01*
X23309524Y87618038D02*
X23261905Y87713276D01*
X23261905Y87713276D02*
X23214286Y87903752D01*
X23214286Y87903752D02*
X23214286Y88046609D01*
X23214286Y88046609D02*
X23261905Y88237085D01*
X23261905Y88237085D02*
X23309524Y88332323D01*
X23309524Y88332323D02*
X23404762Y88427561D01*
X23404762Y88427561D02*
X23547619Y88475180D01*
X23547619Y88475180D02*
X23642857Y88475180D01*
X23642857Y88475180D02*
X23785714Y88427561D01*
X23785714Y88427561D02*
X23833333Y88379942D01*
X24785714Y87475180D02*
X24214286Y87475180D01*
X24500000Y87475180D02*
X24500000Y88475180D01*
X24500000Y88475180D02*
X24404762Y88332323D01*
X24404762Y88332323D02*
X24309524Y88237085D01*
X24309524Y88237085D02*
X24214286Y88189466D01*
X36384819Y7833334D02*
X35908628Y7500001D01*
X36384819Y7261906D02*
X35384819Y7261906D01*
X35384819Y7261906D02*
X35384819Y7642858D01*
X35384819Y7642858D02*
X35432438Y7738096D01*
X35432438Y7738096D02*
X35480057Y7785715D01*
X35480057Y7785715D02*
X35575295Y7833334D01*
X35575295Y7833334D02*
X35718152Y7833334D01*
X35718152Y7833334D02*
X35813390Y7785715D01*
X35813390Y7785715D02*
X35861009Y7738096D01*
X35861009Y7738096D02*
X35908628Y7642858D01*
X35908628Y7642858D02*
X35908628Y7261906D01*
X36384819Y8785715D02*
X36384819Y8214287D01*
X36384819Y8500001D02*
X35384819Y8500001D01*
X35384819Y8500001D02*
X35527676Y8404763D01*
X35527676Y8404763D02*
X35622914Y8309525D01*
X35622914Y8309525D02*
X35670533Y8214287D01*
X28270819Y23527666D02*
X28985104Y23527666D01*
X28985104Y23527666D02*
X29127961Y23480047D01*
X29127961Y23480047D02*
X29223200Y23384809D01*
X29223200Y23384809D02*
X29270819Y23241952D01*
X29270819Y23241952D02*
X29270819Y23146714D01*
X28699390Y24146714D02*
X28651771Y24051476D01*
X28651771Y24051476D02*
X28604152Y24003857D01*
X28604152Y24003857D02*
X28508914Y23956238D01*
X28508914Y23956238D02*
X28461295Y23956238D01*
X28461295Y23956238D02*
X28366057Y24003857D01*
X28366057Y24003857D02*
X28318438Y24051476D01*
X28318438Y24051476D02*
X28270819Y24146714D01*
X28270819Y24146714D02*
X28270819Y24337190D01*
X28270819Y24337190D02*
X28318438Y24432428D01*
X28318438Y24432428D02*
X28366057Y24480047D01*
X28366057Y24480047D02*
X28461295Y24527666D01*
X28461295Y24527666D02*
X28508914Y24527666D01*
X28508914Y24527666D02*
X28604152Y24480047D01*
X28604152Y24480047D02*
X28651771Y24432428D01*
X28651771Y24432428D02*
X28699390Y24337190D01*
X28699390Y24337190D02*
X28699390Y24146714D01*
X28699390Y24146714D02*
X28747009Y24051476D01*
X28747009Y24051476D02*
X28794628Y24003857D01*
X28794628Y24003857D02*
X28889866Y23956238D01*
X28889866Y23956238D02*
X29080342Y23956238D01*
X29080342Y23956238D02*
X29175580Y24003857D01*
X29175580Y24003857D02*
X29223200Y24051476D01*
X29223200Y24051476D02*
X29270819Y24146714D01*
X29270819Y24146714D02*
X29270819Y24337190D01*
X29270819Y24337190D02*
X29223200Y24432428D01*
X29223200Y24432428D02*
X29175580Y24480047D01*
X29175580Y24480047D02*
X29080342Y24527666D01*
X29080342Y24527666D02*
X28889866Y24527666D01*
X28889866Y24527666D02*
X28794628Y24480047D01*
X28794628Y24480047D02*
X28747009Y24432428D01*
X28747009Y24432428D02*
X28699390Y24337190D01*
X37904761Y31199943D02*
X37809523Y31247562D01*
X37809523Y31247562D02*
X37714285Y31342800D01*
X37714285Y31342800D02*
X37571428Y31485658D01*
X37571428Y31485658D02*
X37476190Y31533277D01*
X37476190Y31533277D02*
X37380952Y31533277D01*
X37428571Y31295181D02*
X37333333Y31342800D01*
X37333333Y31342800D02*
X37238095Y31438039D01*
X37238095Y31438039D02*
X37190476Y31628515D01*
X37190476Y31628515D02*
X37190476Y31961848D01*
X37190476Y31961848D02*
X37238095Y32152324D01*
X37238095Y32152324D02*
X37333333Y32247562D01*
X37333333Y32247562D02*
X37428571Y32295181D01*
X37428571Y32295181D02*
X37619047Y32295181D01*
X37619047Y32295181D02*
X37714285Y32247562D01*
X37714285Y32247562D02*
X37809523Y32152324D01*
X37809523Y32152324D02*
X37857142Y31961848D01*
X37857142Y31961848D02*
X37857142Y31628515D01*
X37857142Y31628515D02*
X37809523Y31438039D01*
X37809523Y31438039D02*
X37714285Y31342800D01*
X37714285Y31342800D02*
X37619047Y31295181D01*
X37619047Y31295181D02*
X37428571Y31295181D01*
X38428571Y31866610D02*
X38333333Y31914229D01*
X38333333Y31914229D02*
X38285714Y31961848D01*
X38285714Y31961848D02*
X38238095Y32057086D01*
X38238095Y32057086D02*
X38238095Y32104705D01*
X38238095Y32104705D02*
X38285714Y32199943D01*
X38285714Y32199943D02*
X38333333Y32247562D01*
X38333333Y32247562D02*
X38428571Y32295181D01*
X38428571Y32295181D02*
X38619047Y32295181D01*
X38619047Y32295181D02*
X38714285Y32247562D01*
X38714285Y32247562D02*
X38761904Y32199943D01*
X38761904Y32199943D02*
X38809523Y32104705D01*
X38809523Y32104705D02*
X38809523Y32057086D01*
X38809523Y32057086D02*
X38761904Y31961848D01*
X38761904Y31961848D02*
X38714285Y31914229D01*
X38714285Y31914229D02*
X38619047Y31866610D01*
X38619047Y31866610D02*
X38428571Y31866610D01*
X38428571Y31866610D02*
X38333333Y31818991D01*
X38333333Y31818991D02*
X38285714Y31771372D01*
X38285714Y31771372D02*
X38238095Y31676134D01*
X38238095Y31676134D02*
X38238095Y31485658D01*
X38238095Y31485658D02*
X38285714Y31390420D01*
X38285714Y31390420D02*
X38333333Y31342800D01*
X38333333Y31342800D02*
X38428571Y31295181D01*
X38428571Y31295181D02*
X38619047Y31295181D01*
X38619047Y31295181D02*
X38714285Y31342800D01*
X38714285Y31342800D02*
X38761904Y31390420D01*
X38761904Y31390420D02*
X38809523Y31485658D01*
X38809523Y31485658D02*
X38809523Y31676134D01*
X38809523Y31676134D02*
X38761904Y31771372D01*
X38761904Y31771372D02*
X38714285Y31818991D01*
X38714285Y31818991D02*
X38619047Y31866610D01*
X32289580Y1833334D02*
X32337200Y1785715D01*
X32337200Y1785715D02*
X32384819Y1642858D01*
X32384819Y1642858D02*
X32384819Y1547620D01*
X32384819Y1547620D02*
X32337200Y1404763D01*
X32337200Y1404763D02*
X32241961Y1309525D01*
X32241961Y1309525D02*
X32146723Y1261906D01*
X32146723Y1261906D02*
X31956247Y1214287D01*
X31956247Y1214287D02*
X31813390Y1214287D01*
X31813390Y1214287D02*
X31622914Y1261906D01*
X31622914Y1261906D02*
X31527676Y1309525D01*
X31527676Y1309525D02*
X31432438Y1404763D01*
X31432438Y1404763D02*
X31384819Y1547620D01*
X31384819Y1547620D02*
X31384819Y1642858D01*
X31384819Y1642858D02*
X31432438Y1785715D01*
X31432438Y1785715D02*
X31480057Y1833334D01*
X31384819Y2738096D02*
X31384819Y2261906D01*
X31384819Y2261906D02*
X31861009Y2214287D01*
X31861009Y2214287D02*
X31813390Y2261906D01*
X31813390Y2261906D02*
X31765771Y2357144D01*
X31765771Y2357144D02*
X31765771Y2595239D01*
X31765771Y2595239D02*
X31813390Y2690477D01*
X31813390Y2690477D02*
X31861009Y2738096D01*
X31861009Y2738096D02*
X31956247Y2785715D01*
X31956247Y2785715D02*
X32194342Y2785715D01*
X32194342Y2785715D02*
X32289580Y2738096D01*
X32289580Y2738096D02*
X32337200Y2690477D01*
X32337200Y2690477D02*
X32384819Y2595239D01*
X32384819Y2595239D02*
X32384819Y2357144D01*
X32384819Y2357144D02*
X32337200Y2261906D01*
X32337200Y2261906D02*
X32289580Y2214287D01*
X36384819Y25333334D02*
X35908628Y25000001D01*
X36384819Y24761906D02*
X35384819Y24761906D01*
X35384819Y24761906D02*
X35384819Y25142858D01*
X35384819Y25142858D02*
X35432438Y25238096D01*
X35432438Y25238096D02*
X35480057Y25285715D01*
X35480057Y25285715D02*
X35575295Y25333334D01*
X35575295Y25333334D02*
X35718152Y25333334D01*
X35718152Y25333334D02*
X35813390Y25285715D01*
X35813390Y25285715D02*
X35861009Y25238096D01*
X35861009Y25238096D02*
X35908628Y25142858D01*
X35908628Y25142858D02*
X35908628Y24761906D01*
X35384819Y25666668D02*
X35384819Y26333334D01*
X35384819Y26333334D02*
X36384819Y25904763D01*
X30857142Y5475181D02*
X30523809Y5951372D01*
X30285714Y5475181D02*
X30285714Y6475181D01*
X30285714Y6475181D02*
X30666666Y6475181D01*
X30666666Y6475181D02*
X30761904Y6427562D01*
X30761904Y6427562D02*
X30809523Y6379943D01*
X30809523Y6379943D02*
X30857142Y6284705D01*
X30857142Y6284705D02*
X30857142Y6141848D01*
X30857142Y6141848D02*
X30809523Y6046610D01*
X30809523Y6046610D02*
X30761904Y5998991D01*
X30761904Y5998991D02*
X30666666Y5951372D01*
X30666666Y5951372D02*
X30285714Y5951372D01*
X31809523Y5475181D02*
X31238095Y5475181D01*
X31523809Y5475181D02*
X31523809Y6475181D01*
X31523809Y6475181D02*
X31428571Y6332324D01*
X31428571Y6332324D02*
X31333333Y6237086D01*
X31333333Y6237086D02*
X31238095Y6189467D01*
X32666666Y6475181D02*
X32476190Y6475181D01*
X32476190Y6475181D02*
X32380952Y6427562D01*
X32380952Y6427562D02*
X32333333Y6379943D01*
X32333333Y6379943D02*
X32238095Y6237086D01*
X32238095Y6237086D02*
X32190476Y6046610D01*
X32190476Y6046610D02*
X32190476Y5665658D01*
X32190476Y5665658D02*
X32238095Y5570420D01*
X32238095Y5570420D02*
X32285714Y5522800D01*
X32285714Y5522800D02*
X32380952Y5475181D01*
X32380952Y5475181D02*
X32571428Y5475181D01*
X32571428Y5475181D02*
X32666666Y5522800D01*
X32666666Y5522800D02*
X32714285Y5570420D01*
X32714285Y5570420D02*
X32761904Y5665658D01*
X32761904Y5665658D02*
X32761904Y5903753D01*
X32761904Y5903753D02*
X32714285Y5998991D01*
X32714285Y5998991D02*
X32666666Y6046610D01*
X32666666Y6046610D02*
X32571428Y6094229D01*
X32571428Y6094229D02*
X32380952Y6094229D01*
X32380952Y6094229D02*
X32285714Y6046610D01*
X32285714Y6046610D02*
X32238095Y5998991D01*
X32238095Y5998991D02*
X32190476Y5903753D01*
X37904761Y24199943D02*
X37809523Y24247562D01*
X37809523Y24247562D02*
X37714285Y24342800D01*
X37714285Y24342800D02*
X37571428Y24485658D01*
X37571428Y24485658D02*
X37476190Y24533277D01*
X37476190Y24533277D02*
X37380952Y24533277D01*
X37428571Y24295181D02*
X37333333Y24342800D01*
X37333333Y24342800D02*
X37238095Y24438039D01*
X37238095Y24438039D02*
X37190476Y24628515D01*
X37190476Y24628515D02*
X37190476Y24961848D01*
X37190476Y24961848D02*
X37238095Y25152324D01*
X37238095Y25152324D02*
X37333333Y25247562D01*
X37333333Y25247562D02*
X37428571Y25295181D01*
X37428571Y25295181D02*
X37619047Y25295181D01*
X37619047Y25295181D02*
X37714285Y25247562D01*
X37714285Y25247562D02*
X37809523Y25152324D01*
X37809523Y25152324D02*
X37857142Y24961848D01*
X37857142Y24961848D02*
X37857142Y24628515D01*
X37857142Y24628515D02*
X37809523Y24438039D01*
X37809523Y24438039D02*
X37714285Y24342800D01*
X37714285Y24342800D02*
X37619047Y24295181D01*
X37619047Y24295181D02*
X37428571Y24295181D01*
X38714285Y25295181D02*
X38523809Y25295181D01*
X38523809Y25295181D02*
X38428571Y25247562D01*
X38428571Y25247562D02*
X38380952Y25199943D01*
X38380952Y25199943D02*
X38285714Y25057086D01*
X38285714Y25057086D02*
X38238095Y24866610D01*
X38238095Y24866610D02*
X38238095Y24485658D01*
X38238095Y24485658D02*
X38285714Y24390420D01*
X38285714Y24390420D02*
X38333333Y24342800D01*
X38333333Y24342800D02*
X38428571Y24295181D01*
X38428571Y24295181D02*
X38619047Y24295181D01*
X38619047Y24295181D02*
X38714285Y24342800D01*
X38714285Y24342800D02*
X38761904Y24390420D01*
X38761904Y24390420D02*
X38809523Y24485658D01*
X38809523Y24485658D02*
X38809523Y24723753D01*
X38809523Y24723753D02*
X38761904Y24818991D01*
X38761904Y24818991D02*
X38714285Y24866610D01*
X38714285Y24866610D02*
X38619047Y24914229D01*
X38619047Y24914229D02*
X38428571Y24914229D01*
X38428571Y24914229D02*
X38333333Y24866610D01*
X38333333Y24866610D02*
X38285714Y24818991D01*
X38285714Y24818991D02*
X38238095Y24723753D01*
X23833333Y82570419D02*
X23785714Y82522799D01*
X23785714Y82522799D02*
X23642857Y82475180D01*
X23642857Y82475180D02*
X23547619Y82475180D01*
X23547619Y82475180D02*
X23404762Y82522799D01*
X23404762Y82522799D02*
X23309524Y82618038D01*
X23309524Y82618038D02*
X23261905Y82713276D01*
X23261905Y82713276D02*
X23214286Y82903752D01*
X23214286Y82903752D02*
X23214286Y83046609D01*
X23214286Y83046609D02*
X23261905Y83237085D01*
X23261905Y83237085D02*
X23309524Y83332323D01*
X23309524Y83332323D02*
X23404762Y83427561D01*
X23404762Y83427561D02*
X23547619Y83475180D01*
X23547619Y83475180D02*
X23642857Y83475180D01*
X23642857Y83475180D02*
X23785714Y83427561D01*
X23785714Y83427561D02*
X23833333Y83379942D01*
X24214286Y83379942D02*
X24261905Y83427561D01*
X24261905Y83427561D02*
X24357143Y83475180D01*
X24357143Y83475180D02*
X24595238Y83475180D01*
X24595238Y83475180D02*
X24690476Y83427561D01*
X24690476Y83427561D02*
X24738095Y83379942D01*
X24738095Y83379942D02*
X24785714Y83284704D01*
X24785714Y83284704D02*
X24785714Y83189466D01*
X24785714Y83189466D02*
X24738095Y83046609D01*
X24738095Y83046609D02*
X24166667Y82475180D01*
X24166667Y82475180D02*
X24785714Y82475180D01*
X46261905Y18795181D02*
X46261905Y19795181D01*
X46261905Y19795181D02*
X46500000Y19795181D01*
X46500000Y19795181D02*
X46642857Y19747562D01*
X46642857Y19747562D02*
X46738095Y19652324D01*
X46738095Y19652324D02*
X46785714Y19557086D01*
X46785714Y19557086D02*
X46833333Y19366610D01*
X46833333Y19366610D02*
X46833333Y19223753D01*
X46833333Y19223753D02*
X46785714Y19033277D01*
X46785714Y19033277D02*
X46738095Y18938039D01*
X46738095Y18938039D02*
X46642857Y18842800D01*
X46642857Y18842800D02*
X46500000Y18795181D01*
X46500000Y18795181D02*
X46261905Y18795181D01*
X47166667Y19795181D02*
X47785714Y19795181D01*
X47785714Y19795181D02*
X47452381Y19414229D01*
X47452381Y19414229D02*
X47595238Y19414229D01*
X47595238Y19414229D02*
X47690476Y19366610D01*
X47690476Y19366610D02*
X47738095Y19318991D01*
X47738095Y19318991D02*
X47785714Y19223753D01*
X47785714Y19223753D02*
X47785714Y18985658D01*
X47785714Y18985658D02*
X47738095Y18890420D01*
X47738095Y18890420D02*
X47690476Y18842800D01*
X47690476Y18842800D02*
X47595238Y18795181D01*
X47595238Y18795181D02*
X47309524Y18795181D01*
X47309524Y18795181D02*
X47214286Y18842800D01*
X47214286Y18842800D02*
X47166667Y18890420D01*
X46261905Y13795181D02*
X46261905Y14795181D01*
X46261905Y14795181D02*
X46500000Y14795181D01*
X46500000Y14795181D02*
X46642857Y14747562D01*
X46642857Y14747562D02*
X46738095Y14652324D01*
X46738095Y14652324D02*
X46785714Y14557086D01*
X46785714Y14557086D02*
X46833333Y14366610D01*
X46833333Y14366610D02*
X46833333Y14223753D01*
X46833333Y14223753D02*
X46785714Y14033277D01*
X46785714Y14033277D02*
X46738095Y13938039D01*
X46738095Y13938039D02*
X46642857Y13842800D01*
X46642857Y13842800D02*
X46500000Y13795181D01*
X46500000Y13795181D02*
X46261905Y13795181D01*
X47214286Y14699943D02*
X47261905Y14747562D01*
X47261905Y14747562D02*
X47357143Y14795181D01*
X47357143Y14795181D02*
X47595238Y14795181D01*
X47595238Y14795181D02*
X47690476Y14747562D01*
X47690476Y14747562D02*
X47738095Y14699943D01*
X47738095Y14699943D02*
X47785714Y14604705D01*
X47785714Y14604705D02*
X47785714Y14509467D01*
X47785714Y14509467D02*
X47738095Y14366610D01*
X47738095Y14366610D02*
X47166667Y13795181D01*
X47166667Y13795181D02*
X47785714Y13795181D01*
X34289580Y1833334D02*
X34337200Y1785715D01*
X34337200Y1785715D02*
X34384819Y1642858D01*
X34384819Y1642858D02*
X34384819Y1547620D01*
X34384819Y1547620D02*
X34337200Y1404763D01*
X34337200Y1404763D02*
X34241961Y1309525D01*
X34241961Y1309525D02*
X34146723Y1261906D01*
X34146723Y1261906D02*
X33956247Y1214287D01*
X33956247Y1214287D02*
X33813390Y1214287D01*
X33813390Y1214287D02*
X33622914Y1261906D01*
X33622914Y1261906D02*
X33527676Y1309525D01*
X33527676Y1309525D02*
X33432438Y1404763D01*
X33432438Y1404763D02*
X33384819Y1547620D01*
X33384819Y1547620D02*
X33384819Y1642858D01*
X33384819Y1642858D02*
X33432438Y1785715D01*
X33432438Y1785715D02*
X33480057Y1833334D01*
X33384819Y2690477D02*
X33384819Y2500001D01*
X33384819Y2500001D02*
X33432438Y2404763D01*
X33432438Y2404763D02*
X33480057Y2357144D01*
X33480057Y2357144D02*
X33622914Y2261906D01*
X33622914Y2261906D02*
X33813390Y2214287D01*
X33813390Y2214287D02*
X34194342Y2214287D01*
X34194342Y2214287D02*
X34289580Y2261906D01*
X34289580Y2261906D02*
X34337200Y2309525D01*
X34337200Y2309525D02*
X34384819Y2404763D01*
X34384819Y2404763D02*
X34384819Y2595239D01*
X34384819Y2595239D02*
X34337200Y2690477D01*
X34337200Y2690477D02*
X34289580Y2738096D01*
X34289580Y2738096D02*
X34194342Y2785715D01*
X34194342Y2785715D02*
X33956247Y2785715D01*
X33956247Y2785715D02*
X33861009Y2738096D01*
X33861009Y2738096D02*
X33813390Y2690477D01*
X33813390Y2690477D02*
X33765771Y2595239D01*
X33765771Y2595239D02*
X33765771Y2404763D01*
X33765771Y2404763D02*
X33813390Y2309525D01*
X33813390Y2309525D02*
X33861009Y2261906D01*
X33861009Y2261906D02*
X33956247Y2214287D01*
X36384819Y35357144D02*
X35908628Y35023811D01*
X36384819Y34785716D02*
X35384819Y34785716D01*
X35384819Y34785716D02*
X35384819Y35166668D01*
X35384819Y35166668D02*
X35432438Y35261906D01*
X35432438Y35261906D02*
X35480057Y35309525D01*
X35480057Y35309525D02*
X35575295Y35357144D01*
X35575295Y35357144D02*
X35718152Y35357144D01*
X35718152Y35357144D02*
X35813390Y35309525D01*
X35813390Y35309525D02*
X35861009Y35261906D01*
X35861009Y35261906D02*
X35908628Y35166668D01*
X35908628Y35166668D02*
X35908628Y34785716D01*
X36384819Y36309525D02*
X36384819Y35738097D01*
X36384819Y36023811D02*
X35384819Y36023811D01*
X35384819Y36023811D02*
X35527676Y35928573D01*
X35527676Y35928573D02*
X35622914Y35833335D01*
X35622914Y35833335D02*
X35670533Y35738097D01*
X35384819Y36928573D02*
X35384819Y37023811D01*
X35384819Y37023811D02*
X35432438Y37119049D01*
X35432438Y37119049D02*
X35480057Y37166668D01*
X35480057Y37166668D02*
X35575295Y37214287D01*
X35575295Y37214287D02*
X35765771Y37261906D01*
X35765771Y37261906D02*
X36003866Y37261906D01*
X36003866Y37261906D02*
X36194342Y37214287D01*
X36194342Y37214287D02*
X36289580Y37166668D01*
X36289580Y37166668D02*
X36337200Y37119049D01*
X36337200Y37119049D02*
X36384819Y37023811D01*
X36384819Y37023811D02*
X36384819Y36928573D01*
X36384819Y36928573D02*
X36337200Y36833335D01*
X36337200Y36833335D02*
X36289580Y36785716D01*
X36289580Y36785716D02*
X36194342Y36738097D01*
X36194342Y36738097D02*
X36003866Y36690478D01*
X36003866Y36690478D02*
X35765771Y36690478D01*
X35765771Y36690478D02*
X35575295Y36738097D01*
X35575295Y36738097D02*
X35480057Y36785716D01*
X35480057Y36785716D02*
X35432438Y36833335D01*
X35432438Y36833335D02*
X35384819Y36928573D01*
X12357142Y62475181D02*
X12023809Y62951372D01*
X11785714Y62475181D02*
X11785714Y63475181D01*
X11785714Y63475181D02*
X12166666Y63475181D01*
X12166666Y63475181D02*
X12261904Y63427562D01*
X12261904Y63427562D02*
X12309523Y63379943D01*
X12309523Y63379943D02*
X12357142Y63284705D01*
X12357142Y63284705D02*
X12357142Y63141848D01*
X12357142Y63141848D02*
X12309523Y63046610D01*
X12309523Y63046610D02*
X12261904Y62998991D01*
X12261904Y62998991D02*
X12166666Y62951372D01*
X12166666Y62951372D02*
X11785714Y62951372D01*
X13309523Y62475181D02*
X12738095Y62475181D01*
X13023809Y62475181D02*
X13023809Y63475181D01*
X13023809Y63475181D02*
X12928571Y63332324D01*
X12928571Y63332324D02*
X12833333Y63237086D01*
X12833333Y63237086D02*
X12738095Y63189467D01*
X13785714Y62475181D02*
X13976190Y62475181D01*
X13976190Y62475181D02*
X14071428Y62522800D01*
X14071428Y62522800D02*
X14119047Y62570420D01*
X14119047Y62570420D02*
X14214285Y62713277D01*
X14214285Y62713277D02*
X14261904Y62903753D01*
X14261904Y62903753D02*
X14261904Y63284705D01*
X14261904Y63284705D02*
X14214285Y63379943D01*
X14214285Y63379943D02*
X14166666Y63427562D01*
X14166666Y63427562D02*
X14071428Y63475181D01*
X14071428Y63475181D02*
X13880952Y63475181D01*
X13880952Y63475181D02*
X13785714Y63427562D01*
X13785714Y63427562D02*
X13738095Y63379943D01*
X13738095Y63379943D02*
X13690476Y63284705D01*
X13690476Y63284705D02*
X13690476Y63046610D01*
X13690476Y63046610D02*
X13738095Y62951372D01*
X13738095Y62951372D02*
X13785714Y62903753D01*
X13785714Y62903753D02*
X13880952Y62856134D01*
X13880952Y62856134D02*
X14071428Y62856134D01*
X14071428Y62856134D02*
X14166666Y62903753D01*
X14166666Y62903753D02*
X14214285Y62951372D01*
X14214285Y62951372D02*
X14261904Y63046610D01*
X28270818Y42069665D02*
X28985103Y42069665D01*
X28985103Y42069665D02*
X29127960Y42022046D01*
X29127960Y42022046D02*
X29223199Y41926808D01*
X29223199Y41926808D02*
X29270818Y41783951D01*
X29270818Y41783951D02*
X29270818Y41688713D01*
X28270818Y42974427D02*
X28270818Y42783951D01*
X28270818Y42783951D02*
X28318437Y42688713D01*
X28318437Y42688713D02*
X28366056Y42641094D01*
X28366056Y42641094D02*
X28508913Y42545856D01*
X28508913Y42545856D02*
X28699389Y42498237D01*
X28699389Y42498237D02*
X29080341Y42498237D01*
X29080341Y42498237D02*
X29175579Y42545856D01*
X29175579Y42545856D02*
X29223199Y42593475D01*
X29223199Y42593475D02*
X29270818Y42688713D01*
X29270818Y42688713D02*
X29270818Y42879189D01*
X29270818Y42879189D02*
X29223199Y42974427D01*
X29223199Y42974427D02*
X29175579Y43022046D01*
X29175579Y43022046D02*
X29080341Y43069665D01*
X29080341Y43069665D02*
X28842246Y43069665D01*
X28842246Y43069665D02*
X28747008Y43022046D01*
X28747008Y43022046D02*
X28699389Y42974427D01*
X28699389Y42974427D02*
X28651770Y42879189D01*
X28651770Y42879189D02*
X28651770Y42688713D01*
X28651770Y42688713D02*
X28699389Y42593475D01*
X28699389Y42593475D02*
X28747008Y42545856D01*
X28747008Y42545856D02*
X28842246Y42498237D01*
X16024819Y69857143D02*
X15548628Y69523810D01*
X16024819Y69285715D02*
X15024819Y69285715D01*
X15024819Y69285715D02*
X15024819Y69666667D01*
X15024819Y69666667D02*
X15072438Y69761905D01*
X15072438Y69761905D02*
X15120057Y69809524D01*
X15120057Y69809524D02*
X15215295Y69857143D01*
X15215295Y69857143D02*
X15358152Y69857143D01*
X15358152Y69857143D02*
X15453390Y69809524D01*
X15453390Y69809524D02*
X15501009Y69761905D01*
X15501009Y69761905D02*
X15548628Y69666667D01*
X15548628Y69666667D02*
X15548628Y69285715D01*
X15120057Y70238096D02*
X15072438Y70285715D01*
X15072438Y70285715D02*
X15024819Y70380953D01*
X15024819Y70380953D02*
X15024819Y70619048D01*
X15024819Y70619048D02*
X15072438Y70714286D01*
X15072438Y70714286D02*
X15120057Y70761905D01*
X15120057Y70761905D02*
X15215295Y70809524D01*
X15215295Y70809524D02*
X15310533Y70809524D01*
X15310533Y70809524D02*
X15453390Y70761905D01*
X15453390Y70761905D02*
X16024819Y70190477D01*
X16024819Y70190477D02*
X16024819Y70809524D01*
X16024819Y71761905D02*
X16024819Y71190477D01*
X16024819Y71476191D02*
X15024819Y71476191D01*
X15024819Y71476191D02*
X15167676Y71380953D01*
X15167676Y71380953D02*
X15262914Y71285715D01*
X15262914Y71285715D02*
X15310533Y71190477D01*
X17602819Y23527666D02*
X18317104Y23527666D01*
X18317104Y23527666D02*
X18459961Y23480047D01*
X18459961Y23480047D02*
X18555200Y23384809D01*
X18555200Y23384809D02*
X18602819Y23241952D01*
X18602819Y23241952D02*
X18602819Y23146714D01*
X17936152Y24432428D02*
X18602819Y24432428D01*
X17555200Y24194333D02*
X18269485Y23956238D01*
X18269485Y23956238D02*
X18269485Y24575285D01*
X29154819Y96738096D02*
X28154819Y96738096D01*
X28631009Y96738096D02*
X28631009Y97309524D01*
X29154819Y97309524D02*
X28154819Y97309524D01*
X29154819Y98309524D02*
X29154819Y97738096D01*
X29154819Y98023810D02*
X28154819Y98023810D01*
X28154819Y98023810D02*
X28297676Y97928572D01*
X28297676Y97928572D02*
X28392914Y97833334D01*
X28392914Y97833334D02*
X28440533Y97738096D01*
X30064819Y17418096D02*
X30874342Y17418096D01*
X30874342Y17418096D02*
X30969580Y17465715D01*
X30969580Y17465715D02*
X31017200Y17513334D01*
X31017200Y17513334D02*
X31064819Y17608572D01*
X31064819Y17608572D02*
X31064819Y17799048D01*
X31064819Y17799048D02*
X31017200Y17894286D01*
X31017200Y17894286D02*
X30969580Y17941905D01*
X30969580Y17941905D02*
X30874342Y17989524D01*
X30874342Y17989524D02*
X30064819Y17989524D01*
X31064819Y18989524D02*
X31064819Y18418096D01*
X31064819Y18703810D02*
X30064819Y18703810D01*
X30064819Y18703810D02*
X30207676Y18608572D01*
X30207676Y18608572D02*
X30302914Y18513334D01*
X30302914Y18513334D02*
X30350533Y18418096D01*
X46261905Y31295181D02*
X46261905Y32295181D01*
X46261905Y32295181D02*
X46500000Y32295181D01*
X46500000Y32295181D02*
X46642857Y32247562D01*
X46642857Y32247562D02*
X46738095Y32152324D01*
X46738095Y32152324D02*
X46785714Y32057086D01*
X46785714Y32057086D02*
X46833333Y31866610D01*
X46833333Y31866610D02*
X46833333Y31723753D01*
X46833333Y31723753D02*
X46785714Y31533277D01*
X46785714Y31533277D02*
X46738095Y31438039D01*
X46738095Y31438039D02*
X46642857Y31342800D01*
X46642857Y31342800D02*
X46500000Y31295181D01*
X46500000Y31295181D02*
X46261905Y31295181D01*
X47690476Y31961848D02*
X47690476Y31295181D01*
X47452381Y32342800D02*
X47214286Y31628515D01*
X47214286Y31628515D02*
X47833333Y31628515D01*
X14300056Y56928572D02*
X14252437Y56833334D01*
X14252437Y56833334D02*
X14157199Y56738096D01*
X14157199Y56738096D02*
X14014341Y56595239D01*
X14014341Y56595239D02*
X13966722Y56500001D01*
X13966722Y56500001D02*
X13966722Y56404763D01*
X14204818Y56452382D02*
X14157199Y56357144D01*
X14157199Y56357144D02*
X14061960Y56261906D01*
X14061960Y56261906D02*
X13871484Y56214287D01*
X13871484Y56214287D02*
X13538151Y56214287D01*
X13538151Y56214287D02*
X13347675Y56261906D01*
X13347675Y56261906D02*
X13252437Y56357144D01*
X13252437Y56357144D02*
X13204818Y56452382D01*
X13204818Y56452382D02*
X13204818Y56642858D01*
X13204818Y56642858D02*
X13252437Y56738096D01*
X13252437Y56738096D02*
X13347675Y56833334D01*
X13347675Y56833334D02*
X13538151Y56880953D01*
X13538151Y56880953D02*
X13871484Y56880953D01*
X13871484Y56880953D02*
X14061960Y56833334D01*
X14061960Y56833334D02*
X14157199Y56738096D01*
X14157199Y56738096D02*
X14204818Y56642858D01*
X14204818Y56642858D02*
X14204818Y56452382D01*
X14204818Y57833334D02*
X14204818Y57261906D01*
X14204818Y57547620D02*
X13204818Y57547620D01*
X13204818Y57547620D02*
X13347675Y57452382D01*
X13347675Y57452382D02*
X13442913Y57357144D01*
X13442913Y57357144D02*
X13490532Y57261906D01*
X13538151Y58690477D02*
X14204818Y58690477D01*
X13157199Y58452382D02*
X13871484Y58214287D01*
X13871484Y58214287D02*
X13871484Y58833334D01*
X18024819Y69857143D02*
X17548628Y69523810D01*
X18024819Y69285715D02*
X17024819Y69285715D01*
X17024819Y69285715D02*
X17024819Y69666667D01*
X17024819Y69666667D02*
X17072438Y69761905D01*
X17072438Y69761905D02*
X17120057Y69809524D01*
X17120057Y69809524D02*
X17215295Y69857143D01*
X17215295Y69857143D02*
X17358152Y69857143D01*
X17358152Y69857143D02*
X17453390Y69809524D01*
X17453390Y69809524D02*
X17501009Y69761905D01*
X17501009Y69761905D02*
X17548628Y69666667D01*
X17548628Y69666667D02*
X17548628Y69285715D01*
X17120057Y70238096D02*
X17072438Y70285715D01*
X17072438Y70285715D02*
X17024819Y70380953D01*
X17024819Y70380953D02*
X17024819Y70619048D01*
X17024819Y70619048D02*
X17072438Y70714286D01*
X17072438Y70714286D02*
X17120057Y70761905D01*
X17120057Y70761905D02*
X17215295Y70809524D01*
X17215295Y70809524D02*
X17310533Y70809524D01*
X17310533Y70809524D02*
X17453390Y70761905D01*
X17453390Y70761905D02*
X18024819Y70190477D01*
X18024819Y70190477D02*
X18024819Y70809524D01*
X17024819Y71428572D02*
X17024819Y71523810D01*
X17024819Y71523810D02*
X17072438Y71619048D01*
X17072438Y71619048D02*
X17120057Y71666667D01*
X17120057Y71666667D02*
X17215295Y71714286D01*
X17215295Y71714286D02*
X17405771Y71761905D01*
X17405771Y71761905D02*
X17643866Y71761905D01*
X17643866Y71761905D02*
X17834342Y71714286D01*
X17834342Y71714286D02*
X17929580Y71666667D01*
X17929580Y71666667D02*
X17977200Y71619048D01*
X17977200Y71619048D02*
X18024819Y71523810D01*
X18024819Y71523810D02*
X18024819Y71428572D01*
X18024819Y71428572D02*
X17977200Y71333334D01*
X17977200Y71333334D02*
X17929580Y71285715D01*
X17929580Y71285715D02*
X17834342Y71238096D01*
X17834342Y71238096D02*
X17643866Y71190477D01*
X17643866Y71190477D02*
X17405771Y71190477D01*
X17405771Y71190477D02*
X17215295Y71238096D01*
X17215295Y71238096D02*
X17120057Y71285715D01*
X17120057Y71285715D02*
X17072438Y71333334D01*
X17072438Y71333334D02*
X17024819Y71428572D01*
X36384819Y32333335D02*
X35908628Y32000002D01*
X36384819Y31761907D02*
X35384819Y31761907D01*
X35384819Y31761907D02*
X35384819Y32142859D01*
X35384819Y32142859D02*
X35432438Y32238097D01*
X35432438Y32238097D02*
X35480057Y32285716D01*
X35480057Y32285716D02*
X35575295Y32333335D01*
X35575295Y32333335D02*
X35718152Y32333335D01*
X35718152Y32333335D02*
X35813390Y32285716D01*
X35813390Y32285716D02*
X35861009Y32238097D01*
X35861009Y32238097D02*
X35908628Y32142859D01*
X35908628Y32142859D02*
X35908628Y31761907D01*
X36384819Y32809526D02*
X36384819Y33000002D01*
X36384819Y33000002D02*
X36337200Y33095240D01*
X36337200Y33095240D02*
X36289580Y33142859D01*
X36289580Y33142859D02*
X36146723Y33238097D01*
X36146723Y33238097D02*
X35956247Y33285716D01*
X35956247Y33285716D02*
X35575295Y33285716D01*
X35575295Y33285716D02*
X35480057Y33238097D01*
X35480057Y33238097D02*
X35432438Y33190478D01*
X35432438Y33190478D02*
X35384819Y33095240D01*
X35384819Y33095240D02*
X35384819Y32904764D01*
X35384819Y32904764D02*
X35432438Y32809526D01*
X35432438Y32809526D02*
X35480057Y32761907D01*
X35480057Y32761907D02*
X35575295Y32714288D01*
X35575295Y32714288D02*
X35813390Y32714288D01*
X35813390Y32714288D02*
X35908628Y32761907D01*
X35908628Y32761907D02*
X35956247Y32809526D01*
X35956247Y32809526D02*
X36003866Y32904764D01*
X36003866Y32904764D02*
X36003866Y33095240D01*
X36003866Y33095240D02*
X35956247Y33190478D01*
X35956247Y33190478D02*
X35908628Y33238097D01*
X35908628Y33238097D02*
X35813390Y33285716D01*
X37904761Y34699943D02*
X37809523Y34747562D01*
X37809523Y34747562D02*
X37714285Y34842800D01*
X37714285Y34842800D02*
X37571428Y34985658D01*
X37571428Y34985658D02*
X37476190Y35033277D01*
X37476190Y35033277D02*
X37380952Y35033277D01*
X37428571Y34795181D02*
X37333333Y34842800D01*
X37333333Y34842800D02*
X37238095Y34938039D01*
X37238095Y34938039D02*
X37190476Y35128515D01*
X37190476Y35128515D02*
X37190476Y35461848D01*
X37190476Y35461848D02*
X37238095Y35652324D01*
X37238095Y35652324D02*
X37333333Y35747562D01*
X37333333Y35747562D02*
X37428571Y35795181D01*
X37428571Y35795181D02*
X37619047Y35795181D01*
X37619047Y35795181D02*
X37714285Y35747562D01*
X37714285Y35747562D02*
X37809523Y35652324D01*
X37809523Y35652324D02*
X37857142Y35461848D01*
X37857142Y35461848D02*
X37857142Y35128515D01*
X37857142Y35128515D02*
X37809523Y34938039D01*
X37809523Y34938039D02*
X37714285Y34842800D01*
X37714285Y34842800D02*
X37619047Y34795181D01*
X37619047Y34795181D02*
X37428571Y34795181D01*
X38333333Y34795181D02*
X38523809Y34795181D01*
X38523809Y34795181D02*
X38619047Y34842800D01*
X38619047Y34842800D02*
X38666666Y34890420D01*
X38666666Y34890420D02*
X38761904Y35033277D01*
X38761904Y35033277D02*
X38809523Y35223753D01*
X38809523Y35223753D02*
X38809523Y35604705D01*
X38809523Y35604705D02*
X38761904Y35699943D01*
X38761904Y35699943D02*
X38714285Y35747562D01*
X38714285Y35747562D02*
X38619047Y35795181D01*
X38619047Y35795181D02*
X38428571Y35795181D01*
X38428571Y35795181D02*
X38333333Y35747562D01*
X38333333Y35747562D02*
X38285714Y35699943D01*
X38285714Y35699943D02*
X38238095Y35604705D01*
X38238095Y35604705D02*
X38238095Y35366610D01*
X38238095Y35366610D02*
X38285714Y35271372D01*
X38285714Y35271372D02*
X38333333Y35223753D01*
X38333333Y35223753D02*
X38428571Y35176134D01*
X38428571Y35176134D02*
X38619047Y35176134D01*
X38619047Y35176134D02*
X38714285Y35223753D01*
X38714285Y35223753D02*
X38761904Y35271372D01*
X38761904Y35271372D02*
X38809523Y35366610D01*
X28857141Y48975181D02*
X28523808Y49451372D01*
X28285713Y48975181D02*
X28285713Y49975181D01*
X28285713Y49975181D02*
X28666665Y49975181D01*
X28666665Y49975181D02*
X28761903Y49927562D01*
X28761903Y49927562D02*
X28809522Y49879943D01*
X28809522Y49879943D02*
X28857141Y49784705D01*
X28857141Y49784705D02*
X28857141Y49641848D01*
X28857141Y49641848D02*
X28809522Y49546610D01*
X28809522Y49546610D02*
X28761903Y49498991D01*
X28761903Y49498991D02*
X28666665Y49451372D01*
X28666665Y49451372D02*
X28285713Y49451372D01*
X29809522Y48975181D02*
X29238094Y48975181D01*
X29523808Y48975181D02*
X29523808Y49975181D01*
X29523808Y49975181D02*
X29428570Y49832324D01*
X29428570Y49832324D02*
X29333332Y49737086D01*
X29333332Y49737086D02*
X29238094Y49689467D01*
X30142856Y49975181D02*
X30761903Y49975181D01*
X30761903Y49975181D02*
X30428570Y49594229D01*
X30428570Y49594229D02*
X30571427Y49594229D01*
X30571427Y49594229D02*
X30666665Y49546610D01*
X30666665Y49546610D02*
X30714284Y49498991D01*
X30714284Y49498991D02*
X30761903Y49403753D01*
X30761903Y49403753D02*
X30761903Y49165658D01*
X30761903Y49165658D02*
X30714284Y49070420D01*
X30714284Y49070420D02*
X30666665Y49022800D01*
X30666665Y49022800D02*
X30571427Y48975181D01*
X30571427Y48975181D02*
X30285713Y48975181D01*
X30285713Y48975181D02*
X30190475Y49022800D01*
X30190475Y49022800D02*
X30142856Y49070420D01*
X36384819Y11333334D02*
X35908628Y11000001D01*
X36384819Y10761906D02*
X35384819Y10761906D01*
X35384819Y10761906D02*
X35384819Y11142858D01*
X35384819Y11142858D02*
X35432438Y11238096D01*
X35432438Y11238096D02*
X35480057Y11285715D01*
X35480057Y11285715D02*
X35575295Y11333334D01*
X35575295Y11333334D02*
X35718152Y11333334D01*
X35718152Y11333334D02*
X35813390Y11285715D01*
X35813390Y11285715D02*
X35861009Y11238096D01*
X35861009Y11238096D02*
X35908628Y11142858D01*
X35908628Y11142858D02*
X35908628Y10761906D01*
X35384819Y11666668D02*
X35384819Y12285715D01*
X35384819Y12285715D02*
X35765771Y11952382D01*
X35765771Y11952382D02*
X35765771Y12095239D01*
X35765771Y12095239D02*
X35813390Y12190477D01*
X35813390Y12190477D02*
X35861009Y12238096D01*
X35861009Y12238096D02*
X35956247Y12285715D01*
X35956247Y12285715D02*
X36194342Y12285715D01*
X36194342Y12285715D02*
X36289580Y12238096D01*
X36289580Y12238096D02*
X36337200Y12190477D01*
X36337200Y12190477D02*
X36384819Y12095239D01*
X36384819Y12095239D02*
X36384819Y11809525D01*
X36384819Y11809525D02*
X36337200Y11714287D01*
X36337200Y11714287D02*
X36289580Y11666668D01*
X36384819Y18333334D02*
X35908628Y18000001D01*
X36384819Y17761906D02*
X35384819Y17761906D01*
X35384819Y17761906D02*
X35384819Y18142858D01*
X35384819Y18142858D02*
X35432438Y18238096D01*
X35432438Y18238096D02*
X35480057Y18285715D01*
X35480057Y18285715D02*
X35575295Y18333334D01*
X35575295Y18333334D02*
X35718152Y18333334D01*
X35718152Y18333334D02*
X35813390Y18285715D01*
X35813390Y18285715D02*
X35861009Y18238096D01*
X35861009Y18238096D02*
X35908628Y18142858D01*
X35908628Y18142858D02*
X35908628Y17761906D01*
X35384819Y19238096D02*
X35384819Y18761906D01*
X35384819Y18761906D02*
X35861009Y18714287D01*
X35861009Y18714287D02*
X35813390Y18761906D01*
X35813390Y18761906D02*
X35765771Y18857144D01*
X35765771Y18857144D02*
X35765771Y19095239D01*
X35765771Y19095239D02*
X35813390Y19190477D01*
X35813390Y19190477D02*
X35861009Y19238096D01*
X35861009Y19238096D02*
X35956247Y19285715D01*
X35956247Y19285715D02*
X36194342Y19285715D01*
X36194342Y19285715D02*
X36289580Y19238096D01*
X36289580Y19238096D02*
X36337200Y19190477D01*
X36337200Y19190477D02*
X36384819Y19095239D01*
X36384819Y19095239D02*
X36384819Y18857144D01*
X36384819Y18857144D02*
X36337200Y18761906D01*
X36337200Y18761906D02*
X36289580Y18714287D01*
X18300057Y56928572D02*
X18252438Y56833334D01*
X18252438Y56833334D02*
X18157200Y56738096D01*
X18157200Y56738096D02*
X18014342Y56595239D01*
X18014342Y56595239D02*
X17966723Y56500001D01*
X17966723Y56500001D02*
X17966723Y56404763D01*
X18204819Y56452382D02*
X18157200Y56357144D01*
X18157200Y56357144D02*
X18061961Y56261906D01*
X18061961Y56261906D02*
X17871485Y56214287D01*
X17871485Y56214287D02*
X17538152Y56214287D01*
X17538152Y56214287D02*
X17347676Y56261906D01*
X17347676Y56261906D02*
X17252438Y56357144D01*
X17252438Y56357144D02*
X17204819Y56452382D01*
X17204819Y56452382D02*
X17204819Y56642858D01*
X17204819Y56642858D02*
X17252438Y56738096D01*
X17252438Y56738096D02*
X17347676Y56833334D01*
X17347676Y56833334D02*
X17538152Y56880953D01*
X17538152Y56880953D02*
X17871485Y56880953D01*
X17871485Y56880953D02*
X18061961Y56833334D01*
X18061961Y56833334D02*
X18157200Y56738096D01*
X18157200Y56738096D02*
X18204819Y56642858D01*
X18204819Y56642858D02*
X18204819Y56452382D01*
X18204819Y57833334D02*
X18204819Y57261906D01*
X18204819Y57547620D02*
X17204819Y57547620D01*
X17204819Y57547620D02*
X17347676Y57452382D01*
X17347676Y57452382D02*
X17442914Y57357144D01*
X17442914Y57357144D02*
X17490533Y57261906D01*
X17204819Y58738096D02*
X17204819Y58261906D01*
X17204819Y58261906D02*
X17681009Y58214287D01*
X17681009Y58214287D02*
X17633390Y58261906D01*
X17633390Y58261906D02*
X17585771Y58357144D01*
X17585771Y58357144D02*
X17585771Y58595239D01*
X17585771Y58595239D02*
X17633390Y58690477D01*
X17633390Y58690477D02*
X17681009Y58738096D01*
X17681009Y58738096D02*
X17776247Y58785715D01*
X17776247Y58785715D02*
X18014342Y58785715D01*
X18014342Y58785715D02*
X18109580Y58738096D01*
X18109580Y58738096D02*
X18157200Y58690477D01*
X18157200Y58690477D02*
X18204819Y58595239D01*
X18204819Y58595239D02*
X18204819Y58357144D01*
X18204819Y58357144D02*
X18157200Y58261906D01*
X18157200Y58261906D02*
X18109580Y58214287D01*
X39833333Y37390420D02*
X39785714Y37342800D01*
X39785714Y37342800D02*
X39642857Y37295181D01*
X39642857Y37295181D02*
X39547619Y37295181D01*
X39547619Y37295181D02*
X39404762Y37342800D01*
X39404762Y37342800D02*
X39309524Y37438039D01*
X39309524Y37438039D02*
X39261905Y37533277D01*
X39261905Y37533277D02*
X39214286Y37723753D01*
X39214286Y37723753D02*
X39214286Y37866610D01*
X39214286Y37866610D02*
X39261905Y38057086D01*
X39261905Y38057086D02*
X39309524Y38152324D01*
X39309524Y38152324D02*
X39404762Y38247562D01*
X39404762Y38247562D02*
X39547619Y38295181D01*
X39547619Y38295181D02*
X39642857Y38295181D01*
X39642857Y38295181D02*
X39785714Y38247562D01*
X39785714Y38247562D02*
X39833333Y38199943D01*
X40404762Y37866610D02*
X40309524Y37914229D01*
X40309524Y37914229D02*
X40261905Y37961848D01*
X40261905Y37961848D02*
X40214286Y38057086D01*
X40214286Y38057086D02*
X40214286Y38104705D01*
X40214286Y38104705D02*
X40261905Y38199943D01*
X40261905Y38199943D02*
X40309524Y38247562D01*
X40309524Y38247562D02*
X40404762Y38295181D01*
X40404762Y38295181D02*
X40595238Y38295181D01*
X40595238Y38295181D02*
X40690476Y38247562D01*
X40690476Y38247562D02*
X40738095Y38199943D01*
X40738095Y38199943D02*
X40785714Y38104705D01*
X40785714Y38104705D02*
X40785714Y38057086D01*
X40785714Y38057086D02*
X40738095Y37961848D01*
X40738095Y37961848D02*
X40690476Y37914229D01*
X40690476Y37914229D02*
X40595238Y37866610D01*
X40595238Y37866610D02*
X40404762Y37866610D01*
X40404762Y37866610D02*
X40309524Y37818991D01*
X40309524Y37818991D02*
X40261905Y37771372D01*
X40261905Y37771372D02*
X40214286Y37676134D01*
X40214286Y37676134D02*
X40214286Y37485658D01*
X40214286Y37485658D02*
X40261905Y37390420D01*
X40261905Y37390420D02*
X40309524Y37342800D01*
X40309524Y37342800D02*
X40404762Y37295181D01*
X40404762Y37295181D02*
X40595238Y37295181D01*
X40595238Y37295181D02*
X40690476Y37342800D01*
X40690476Y37342800D02*
X40738095Y37390420D01*
X40738095Y37390420D02*
X40785714Y37485658D01*
X40785714Y37485658D02*
X40785714Y37676134D01*
X40785714Y37676134D02*
X40738095Y37771372D01*
X40738095Y37771372D02*
X40690476Y37818991D01*
X40690476Y37818991D02*
X40595238Y37866610D01*
X37428571Y45199943D02*
X37333333Y45247562D01*
X37333333Y45247562D02*
X37238095Y45342800D01*
X37238095Y45342800D02*
X37095238Y45485658D01*
X37095238Y45485658D02*
X37000000Y45533277D01*
X37000000Y45533277D02*
X36904762Y45533277D01*
X36952381Y45295181D02*
X36857143Y45342800D01*
X36857143Y45342800D02*
X36761905Y45438039D01*
X36761905Y45438039D02*
X36714286Y45628515D01*
X36714286Y45628515D02*
X36714286Y45961848D01*
X36714286Y45961848D02*
X36761905Y46152324D01*
X36761905Y46152324D02*
X36857143Y46247562D01*
X36857143Y46247562D02*
X36952381Y46295181D01*
X36952381Y46295181D02*
X37142857Y46295181D01*
X37142857Y46295181D02*
X37238095Y46247562D01*
X37238095Y46247562D02*
X37333333Y46152324D01*
X37333333Y46152324D02*
X37380952Y45961848D01*
X37380952Y45961848D02*
X37380952Y45628515D01*
X37380952Y45628515D02*
X37333333Y45438039D01*
X37333333Y45438039D02*
X37238095Y45342800D01*
X37238095Y45342800D02*
X37142857Y45295181D01*
X37142857Y45295181D02*
X36952381Y45295181D01*
X38333333Y45295181D02*
X37761905Y45295181D01*
X38047619Y45295181D02*
X38047619Y46295181D01*
X38047619Y46295181D02*
X37952381Y46152324D01*
X37952381Y46152324D02*
X37857143Y46057086D01*
X37857143Y46057086D02*
X37761905Y46009467D01*
X38714286Y46199943D02*
X38761905Y46247562D01*
X38761905Y46247562D02*
X38857143Y46295181D01*
X38857143Y46295181D02*
X39095238Y46295181D01*
X39095238Y46295181D02*
X39190476Y46247562D01*
X39190476Y46247562D02*
X39238095Y46199943D01*
X39238095Y46199943D02*
X39285714Y46104705D01*
X39285714Y46104705D02*
X39285714Y46009467D01*
X39285714Y46009467D02*
X39238095Y45866610D01*
X39238095Y45866610D02*
X38666667Y45295181D01*
X38666667Y45295181D02*
X39285714Y45295181D01*
X15238094Y74645181D02*
X15238094Y73835658D01*
X15238094Y73835658D02*
X15285713Y73740420D01*
X15285713Y73740420D02*
X15333332Y73692800D01*
X15333332Y73692800D02*
X15428570Y73645181D01*
X15428570Y73645181D02*
X15619046Y73645181D01*
X15619046Y73645181D02*
X15714284Y73692800D01*
X15714284Y73692800D02*
X15761903Y73740420D01*
X15761903Y73740420D02*
X15809522Y73835658D01*
X15809522Y73835658D02*
X15809522Y74645181D01*
X16238094Y74549943D02*
X16285713Y74597562D01*
X16285713Y74597562D02*
X16380951Y74645181D01*
X16380951Y74645181D02*
X16619046Y74645181D01*
X16619046Y74645181D02*
X16714284Y74597562D01*
X16714284Y74597562D02*
X16761903Y74549943D01*
X16761903Y74549943D02*
X16809522Y74454705D01*
X16809522Y74454705D02*
X16809522Y74359467D01*
X16809522Y74359467D02*
X16761903Y74216610D01*
X16761903Y74216610D02*
X16190475Y73645181D01*
X16190475Y73645181D02*
X16809522Y73645181D01*
D11*
X21333332Y43329800D02*
X21190475Y43377420D01*
X21190475Y43377420D02*
X20952380Y43377420D01*
X20952380Y43377420D02*
X20857142Y43329800D01*
X20857142Y43329800D02*
X20809523Y43282181D01*
X20809523Y43282181D02*
X20761904Y43186943D01*
X20761904Y43186943D02*
X20761904Y43091705D01*
X20761904Y43091705D02*
X20809523Y42996467D01*
X20809523Y42996467D02*
X20857142Y42948848D01*
X20857142Y42948848D02*
X20952380Y42901229D01*
X20952380Y42901229D02*
X21142856Y42853610D01*
X21142856Y42853610D02*
X21238094Y42805991D01*
X21238094Y42805991D02*
X21285713Y42758372D01*
X21285713Y42758372D02*
X21333332Y42663134D01*
X21333332Y42663134D02*
X21333332Y42567896D01*
X21333332Y42567896D02*
X21285713Y42472658D01*
X21285713Y42472658D02*
X21238094Y42425039D01*
X21238094Y42425039D02*
X21142856Y42377420D01*
X21142856Y42377420D02*
X20904761Y42377420D01*
X20904761Y42377420D02*
X20761904Y42425039D01*
X20428570Y42377420D02*
X20190475Y43377420D01*
X20190475Y43377420D02*
X19999999Y42663134D01*
X19999999Y42663134D02*
X19809523Y43377420D01*
X19809523Y43377420D02*
X19571428Y42377420D01*
X19238094Y42472658D02*
X19190475Y42425039D01*
X19190475Y42425039D02*
X19095237Y42377420D01*
X19095237Y42377420D02*
X18857142Y42377420D01*
X18857142Y42377420D02*
X18761904Y42425039D01*
X18761904Y42425039D02*
X18714285Y42472658D01*
X18714285Y42472658D02*
X18666666Y42567896D01*
X18666666Y42567896D02*
X18666666Y42663134D01*
X18666666Y42663134D02*
X18714285Y42805991D01*
X18714285Y42805991D02*
X19285713Y43377420D01*
X19285713Y43377420D02*
X18666666Y43377420D01*
D10*
X17602818Y42069665D02*
X18317103Y42069665D01*
X18317103Y42069665D02*
X18459960Y42022046D01*
X18459960Y42022046D02*
X18555199Y41926808D01*
X18555199Y41926808D02*
X18602818Y41783951D01*
X18602818Y41783951D02*
X18602818Y41688713D01*
X17602818Y42450618D02*
X17602818Y43117284D01*
X17602818Y43117284D02*
X18602818Y42688713D01*
X37904761Y10199943D02*
X37809523Y10247562D01*
X37809523Y10247562D02*
X37714285Y10342800D01*
X37714285Y10342800D02*
X37571428Y10485658D01*
X37571428Y10485658D02*
X37476190Y10533277D01*
X37476190Y10533277D02*
X37380952Y10533277D01*
X37428571Y10295181D02*
X37333333Y10342800D01*
X37333333Y10342800D02*
X37238095Y10438039D01*
X37238095Y10438039D02*
X37190476Y10628515D01*
X37190476Y10628515D02*
X37190476Y10961848D01*
X37190476Y10961848D02*
X37238095Y11152324D01*
X37238095Y11152324D02*
X37333333Y11247562D01*
X37333333Y11247562D02*
X37428571Y11295181D01*
X37428571Y11295181D02*
X37619047Y11295181D01*
X37619047Y11295181D02*
X37714285Y11247562D01*
X37714285Y11247562D02*
X37809523Y11152324D01*
X37809523Y11152324D02*
X37857142Y10961848D01*
X37857142Y10961848D02*
X37857142Y10628515D01*
X37857142Y10628515D02*
X37809523Y10438039D01*
X37809523Y10438039D02*
X37714285Y10342800D01*
X37714285Y10342800D02*
X37619047Y10295181D01*
X37619047Y10295181D02*
X37428571Y10295181D01*
X38238095Y11199943D02*
X38285714Y11247562D01*
X38285714Y11247562D02*
X38380952Y11295181D01*
X38380952Y11295181D02*
X38619047Y11295181D01*
X38619047Y11295181D02*
X38714285Y11247562D01*
X38714285Y11247562D02*
X38761904Y11199943D01*
X38761904Y11199943D02*
X38809523Y11104705D01*
X38809523Y11104705D02*
X38809523Y11009467D01*
X38809523Y11009467D02*
X38761904Y10866610D01*
X38761904Y10866610D02*
X38190476Y10295181D01*
X38190476Y10295181D02*
X38809523Y10295181D01*
X19024819Y97857143D02*
X18548628Y97523810D01*
X19024819Y97285715D02*
X18024819Y97285715D01*
X18024819Y97285715D02*
X18024819Y97666667D01*
X18024819Y97666667D02*
X18072438Y97761905D01*
X18072438Y97761905D02*
X18120057Y97809524D01*
X18120057Y97809524D02*
X18215295Y97857143D01*
X18215295Y97857143D02*
X18358152Y97857143D01*
X18358152Y97857143D02*
X18453390Y97809524D01*
X18453390Y97809524D02*
X18501009Y97761905D01*
X18501009Y97761905D02*
X18548628Y97666667D01*
X18548628Y97666667D02*
X18548628Y97285715D01*
X19024819Y98809524D02*
X19024819Y98238096D01*
X19024819Y98523810D02*
X18024819Y98523810D01*
X18024819Y98523810D02*
X18167676Y98428572D01*
X18167676Y98428572D02*
X18262914Y98333334D01*
X18262914Y98333334D02*
X18310533Y98238096D01*
X18024819Y99142858D02*
X18024819Y99809524D01*
X18024819Y99809524D02*
X19024819Y99380953D01*
X37904761Y6699943D02*
X37809523Y6747562D01*
X37809523Y6747562D02*
X37714285Y6842800D01*
X37714285Y6842800D02*
X37571428Y6985658D01*
X37571428Y6985658D02*
X37476190Y7033277D01*
X37476190Y7033277D02*
X37380952Y7033277D01*
X37428571Y6795181D02*
X37333333Y6842800D01*
X37333333Y6842800D02*
X37238095Y6938039D01*
X37238095Y6938039D02*
X37190476Y7128515D01*
X37190476Y7128515D02*
X37190476Y7461848D01*
X37190476Y7461848D02*
X37238095Y7652324D01*
X37238095Y7652324D02*
X37333333Y7747562D01*
X37333333Y7747562D02*
X37428571Y7795181D01*
X37428571Y7795181D02*
X37619047Y7795181D01*
X37619047Y7795181D02*
X37714285Y7747562D01*
X37714285Y7747562D02*
X37809523Y7652324D01*
X37809523Y7652324D02*
X37857142Y7461848D01*
X37857142Y7461848D02*
X37857142Y7128515D01*
X37857142Y7128515D02*
X37809523Y6938039D01*
X37809523Y6938039D02*
X37714285Y6842800D01*
X37714285Y6842800D02*
X37619047Y6795181D01*
X37619047Y6795181D02*
X37428571Y6795181D01*
X38809523Y6795181D02*
X38238095Y6795181D01*
X38523809Y6795181D02*
X38523809Y7795181D01*
X38523809Y7795181D02*
X38428571Y7652324D01*
X38428571Y7652324D02*
X38333333Y7557086D01*
X38333333Y7557086D02*
X38238095Y7509467D01*
X12357142Y61615181D02*
X12023809Y62091372D01*
X11785714Y61615181D02*
X11785714Y62615181D01*
X11785714Y62615181D02*
X12166666Y62615181D01*
X12166666Y62615181D02*
X12261904Y62567562D01*
X12261904Y62567562D02*
X12309523Y62519943D01*
X12309523Y62519943D02*
X12357142Y62424705D01*
X12357142Y62424705D02*
X12357142Y62281848D01*
X12357142Y62281848D02*
X12309523Y62186610D01*
X12309523Y62186610D02*
X12261904Y62138991D01*
X12261904Y62138991D02*
X12166666Y62091372D01*
X12166666Y62091372D02*
X11785714Y62091372D01*
X13309523Y61615181D02*
X12738095Y61615181D01*
X13023809Y61615181D02*
X13023809Y62615181D01*
X13023809Y62615181D02*
X12928571Y62472324D01*
X12928571Y62472324D02*
X12833333Y62377086D01*
X12833333Y62377086D02*
X12738095Y62329467D01*
X13880952Y62186610D02*
X13785714Y62234229D01*
X13785714Y62234229D02*
X13738095Y62281848D01*
X13738095Y62281848D02*
X13690476Y62377086D01*
X13690476Y62377086D02*
X13690476Y62424705D01*
X13690476Y62424705D02*
X13738095Y62519943D01*
X13738095Y62519943D02*
X13785714Y62567562D01*
X13785714Y62567562D02*
X13880952Y62615181D01*
X13880952Y62615181D02*
X14071428Y62615181D01*
X14071428Y62615181D02*
X14166666Y62567562D01*
X14166666Y62567562D02*
X14214285Y62519943D01*
X14214285Y62519943D02*
X14261904Y62424705D01*
X14261904Y62424705D02*
X14261904Y62377086D01*
X14261904Y62377086D02*
X14214285Y62281848D01*
X14214285Y62281848D02*
X14166666Y62234229D01*
X14166666Y62234229D02*
X14071428Y62186610D01*
X14071428Y62186610D02*
X13880952Y62186610D01*
X13880952Y62186610D02*
X13785714Y62138991D01*
X13785714Y62138991D02*
X13738095Y62091372D01*
X13738095Y62091372D02*
X13690476Y61996134D01*
X13690476Y61996134D02*
X13690476Y61805658D01*
X13690476Y61805658D02*
X13738095Y61710420D01*
X13738095Y61710420D02*
X13785714Y61662800D01*
X13785714Y61662800D02*
X13880952Y61615181D01*
X13880952Y61615181D02*
X14071428Y61615181D01*
X14071428Y61615181D02*
X14166666Y61662800D01*
X14166666Y61662800D02*
X14214285Y61710420D01*
X14214285Y61710420D02*
X14261904Y61805658D01*
X14261904Y61805658D02*
X14261904Y61996134D01*
X14261904Y61996134D02*
X14214285Y62091372D01*
X14214285Y62091372D02*
X14166666Y62138991D01*
X14166666Y62138991D02*
X14071428Y62186610D01*
X36384818Y4333334D02*
X35908627Y4000001D01*
X36384818Y3761906D02*
X35384818Y3761906D01*
X35384818Y3761906D02*
X35384818Y4142858D01*
X35384818Y4142858D02*
X35432437Y4238096D01*
X35432437Y4238096D02*
X35480056Y4285715D01*
X35480056Y4285715D02*
X35575294Y4333334D01*
X35575294Y4333334D02*
X35718151Y4333334D01*
X35718151Y4333334D02*
X35813389Y4285715D01*
X35813389Y4285715D02*
X35861008Y4238096D01*
X35861008Y4238096D02*
X35908627Y4142858D01*
X35908627Y4142858D02*
X35908627Y3761906D01*
X35480056Y4714287D02*
X35432437Y4761906D01*
X35432437Y4761906D02*
X35384818Y4857144D01*
X35384818Y4857144D02*
X35384818Y5095239D01*
X35384818Y5095239D02*
X35432437Y5190477D01*
X35432437Y5190477D02*
X35480056Y5238096D01*
X35480056Y5238096D02*
X35575294Y5285715D01*
X35575294Y5285715D02*
X35670532Y5285715D01*
X35670532Y5285715D02*
X35813389Y5238096D01*
X35813389Y5238096D02*
X36384818Y4666668D01*
X36384818Y4666668D02*
X36384818Y5285715D01*
X37904761Y13699943D02*
X37809523Y13747562D01*
X37809523Y13747562D02*
X37714285Y13842800D01*
X37714285Y13842800D02*
X37571428Y13985658D01*
X37571428Y13985658D02*
X37476190Y14033277D01*
X37476190Y14033277D02*
X37380952Y14033277D01*
X37428571Y13795181D02*
X37333333Y13842800D01*
X37333333Y13842800D02*
X37238095Y13938039D01*
X37238095Y13938039D02*
X37190476Y14128515D01*
X37190476Y14128515D02*
X37190476Y14461848D01*
X37190476Y14461848D02*
X37238095Y14652324D01*
X37238095Y14652324D02*
X37333333Y14747562D01*
X37333333Y14747562D02*
X37428571Y14795181D01*
X37428571Y14795181D02*
X37619047Y14795181D01*
X37619047Y14795181D02*
X37714285Y14747562D01*
X37714285Y14747562D02*
X37809523Y14652324D01*
X37809523Y14652324D02*
X37857142Y14461848D01*
X37857142Y14461848D02*
X37857142Y14128515D01*
X37857142Y14128515D02*
X37809523Y13938039D01*
X37809523Y13938039D02*
X37714285Y13842800D01*
X37714285Y13842800D02*
X37619047Y13795181D01*
X37619047Y13795181D02*
X37428571Y13795181D01*
X38190476Y14795181D02*
X38809523Y14795181D01*
X38809523Y14795181D02*
X38476190Y14414229D01*
X38476190Y14414229D02*
X38619047Y14414229D01*
X38619047Y14414229D02*
X38714285Y14366610D01*
X38714285Y14366610D02*
X38761904Y14318991D01*
X38761904Y14318991D02*
X38809523Y14223753D01*
X38809523Y14223753D02*
X38809523Y13985658D01*
X38809523Y13985658D02*
X38761904Y13890420D01*
X38761904Y13890420D02*
X38714285Y13842800D01*
X38714285Y13842800D02*
X38619047Y13795181D01*
X38619047Y13795181D02*
X38333333Y13795181D01*
X38333333Y13795181D02*
X38238095Y13842800D01*
X38238095Y13842800D02*
X38190476Y13890420D01*
X46261905Y8795181D02*
X46261905Y9795181D01*
X46261905Y9795181D02*
X46500000Y9795181D01*
X46500000Y9795181D02*
X46642857Y9747562D01*
X46642857Y9747562D02*
X46738095Y9652324D01*
X46738095Y9652324D02*
X46785714Y9557086D01*
X46785714Y9557086D02*
X46833333Y9366610D01*
X46833333Y9366610D02*
X46833333Y9223753D01*
X46833333Y9223753D02*
X46785714Y9033277D01*
X46785714Y9033277D02*
X46738095Y8938039D01*
X46738095Y8938039D02*
X46642857Y8842800D01*
X46642857Y8842800D02*
X46500000Y8795181D01*
X46500000Y8795181D02*
X46261905Y8795181D01*
X47785714Y8795181D02*
X47214286Y8795181D01*
X47500000Y8795181D02*
X47500000Y9795181D01*
X47500000Y9795181D02*
X47404762Y9652324D01*
X47404762Y9652324D02*
X47309524Y9557086D01*
X47309524Y9557086D02*
X47214286Y9509467D01*
X37904761Y20699943D02*
X37809523Y20747562D01*
X37809523Y20747562D02*
X37714285Y20842800D01*
X37714285Y20842800D02*
X37571428Y20985658D01*
X37571428Y20985658D02*
X37476190Y21033277D01*
X37476190Y21033277D02*
X37380952Y21033277D01*
X37428571Y20795181D02*
X37333333Y20842800D01*
X37333333Y20842800D02*
X37238095Y20938039D01*
X37238095Y20938039D02*
X37190476Y21128515D01*
X37190476Y21128515D02*
X37190476Y21461848D01*
X37190476Y21461848D02*
X37238095Y21652324D01*
X37238095Y21652324D02*
X37333333Y21747562D01*
X37333333Y21747562D02*
X37428571Y21795181D01*
X37428571Y21795181D02*
X37619047Y21795181D01*
X37619047Y21795181D02*
X37714285Y21747562D01*
X37714285Y21747562D02*
X37809523Y21652324D01*
X37809523Y21652324D02*
X37857142Y21461848D01*
X37857142Y21461848D02*
X37857142Y21128515D01*
X37857142Y21128515D02*
X37809523Y20938039D01*
X37809523Y20938039D02*
X37714285Y20842800D01*
X37714285Y20842800D02*
X37619047Y20795181D01*
X37619047Y20795181D02*
X37428571Y20795181D01*
X38761904Y21795181D02*
X38285714Y21795181D01*
X38285714Y21795181D02*
X38238095Y21318991D01*
X38238095Y21318991D02*
X38285714Y21366610D01*
X38285714Y21366610D02*
X38380952Y21414229D01*
X38380952Y21414229D02*
X38619047Y21414229D01*
X38619047Y21414229D02*
X38714285Y21366610D01*
X38714285Y21366610D02*
X38761904Y21318991D01*
X38761904Y21318991D02*
X38809523Y21223753D01*
X38809523Y21223753D02*
X38809523Y20985658D01*
X38809523Y20985658D02*
X38761904Y20890420D01*
X38761904Y20890420D02*
X38714285Y20842800D01*
X38714285Y20842800D02*
X38619047Y20795181D01*
X38619047Y20795181D02*
X38380952Y20795181D01*
X38380952Y20795181D02*
X38285714Y20842800D01*
X38285714Y20842800D02*
X38238095Y20890420D01*
X22429580Y93333334D02*
X22477200Y93285715D01*
X22477200Y93285715D02*
X22524819Y93142858D01*
X22524819Y93142858D02*
X22524819Y93047620D01*
X22524819Y93047620D02*
X22477200Y92904763D01*
X22477200Y92904763D02*
X22381961Y92809525D01*
X22381961Y92809525D02*
X22286723Y92761906D01*
X22286723Y92761906D02*
X22096247Y92714287D01*
X22096247Y92714287D02*
X21953390Y92714287D01*
X21953390Y92714287D02*
X21762914Y92761906D01*
X21762914Y92761906D02*
X21667676Y92809525D01*
X21667676Y92809525D02*
X21572438Y92904763D01*
X21572438Y92904763D02*
X21524819Y93047620D01*
X21524819Y93047620D02*
X21524819Y93142858D01*
X21524819Y93142858D02*
X21572438Y93285715D01*
X21572438Y93285715D02*
X21620057Y93333334D01*
X21524819Y93666668D02*
X21524819Y94285715D01*
X21524819Y94285715D02*
X21905771Y93952382D01*
X21905771Y93952382D02*
X21905771Y94095239D01*
X21905771Y94095239D02*
X21953390Y94190477D01*
X21953390Y94190477D02*
X22001009Y94238096D01*
X22001009Y94238096D02*
X22096247Y94285715D01*
X22096247Y94285715D02*
X22334342Y94285715D01*
X22334342Y94285715D02*
X22429580Y94238096D01*
X22429580Y94238096D02*
X22477200Y94190477D01*
X22477200Y94190477D02*
X22524819Y94095239D01*
X22524819Y94095239D02*
X22524819Y93809525D01*
X22524819Y93809525D02*
X22477200Y93714287D01*
X22477200Y93714287D02*
X22429580Y93666668D01*
X4154819Y96738096D02*
X3154819Y96738096D01*
X3631009Y96738096D02*
X3631009Y97309524D01*
X4154819Y97309524D02*
X3154819Y97309524D01*
X3250057Y97738096D02*
X3202438Y97785715D01*
X3202438Y97785715D02*
X3154819Y97880953D01*
X3154819Y97880953D02*
X3154819Y98119048D01*
X3154819Y98119048D02*
X3202438Y98214286D01*
X3202438Y98214286D02*
X3250057Y98261905D01*
X3250057Y98261905D02*
X3345295Y98309524D01*
X3345295Y98309524D02*
X3440533Y98309524D01*
X3440533Y98309524D02*
X3583390Y98261905D01*
X3583390Y98261905D02*
X4154819Y97690477D01*
X4154819Y97690477D02*
X4154819Y98309524D01*
X37428571Y38199944D02*
X37333333Y38247563D01*
X37333333Y38247563D02*
X37238095Y38342801D01*
X37238095Y38342801D02*
X37095238Y38485659D01*
X37095238Y38485659D02*
X37000000Y38533278D01*
X37000000Y38533278D02*
X36904762Y38533278D01*
X36952381Y38295182D02*
X36857143Y38342801D01*
X36857143Y38342801D02*
X36761905Y38438040D01*
X36761905Y38438040D02*
X36714286Y38628516D01*
X36714286Y38628516D02*
X36714286Y38961849D01*
X36714286Y38961849D02*
X36761905Y39152325D01*
X36761905Y39152325D02*
X36857143Y39247563D01*
X36857143Y39247563D02*
X36952381Y39295182D01*
X36952381Y39295182D02*
X37142857Y39295182D01*
X37142857Y39295182D02*
X37238095Y39247563D01*
X37238095Y39247563D02*
X37333333Y39152325D01*
X37333333Y39152325D02*
X37380952Y38961849D01*
X37380952Y38961849D02*
X37380952Y38628516D01*
X37380952Y38628516D02*
X37333333Y38438040D01*
X37333333Y38438040D02*
X37238095Y38342801D01*
X37238095Y38342801D02*
X37142857Y38295182D01*
X37142857Y38295182D02*
X36952381Y38295182D01*
X38333333Y38295182D02*
X37761905Y38295182D01*
X38047619Y38295182D02*
X38047619Y39295182D01*
X38047619Y39295182D02*
X37952381Y39152325D01*
X37952381Y39152325D02*
X37857143Y39057087D01*
X37857143Y39057087D02*
X37761905Y39009468D01*
X38952381Y39295182D02*
X39047619Y39295182D01*
X39047619Y39295182D02*
X39142857Y39247563D01*
X39142857Y39247563D02*
X39190476Y39199944D01*
X39190476Y39199944D02*
X39238095Y39104706D01*
X39238095Y39104706D02*
X39285714Y38914230D01*
X39285714Y38914230D02*
X39285714Y38676135D01*
X39285714Y38676135D02*
X39238095Y38485659D01*
X39238095Y38485659D02*
X39190476Y38390421D01*
X39190476Y38390421D02*
X39142857Y38342801D01*
X39142857Y38342801D02*
X39047619Y38295182D01*
X39047619Y38295182D02*
X38952381Y38295182D01*
X38952381Y38295182D02*
X38857143Y38342801D01*
X38857143Y38342801D02*
X38809524Y38390421D01*
X38809524Y38390421D02*
X38761905Y38485659D01*
X38761905Y38485659D02*
X38714286Y38676135D01*
X38714286Y38676135D02*
X38714286Y38914230D01*
X38714286Y38914230D02*
X38761905Y39104706D01*
X38761905Y39104706D02*
X38809524Y39199944D01*
X38809524Y39199944D02*
X38857143Y39247563D01*
X38857143Y39247563D02*
X38952381Y39295182D01*
X36384818Y42357143D02*
X35908627Y42023810D01*
X36384818Y41785715D02*
X35384818Y41785715D01*
X35384818Y41785715D02*
X35384818Y42166667D01*
X35384818Y42166667D02*
X35432437Y42261905D01*
X35432437Y42261905D02*
X35480056Y42309524D01*
X35480056Y42309524D02*
X35575294Y42357143D01*
X35575294Y42357143D02*
X35718151Y42357143D01*
X35718151Y42357143D02*
X35813389Y42309524D01*
X35813389Y42309524D02*
X35861008Y42261905D01*
X35861008Y42261905D02*
X35908627Y42166667D01*
X35908627Y42166667D02*
X35908627Y41785715D01*
X36384818Y43309524D02*
X36384818Y42738096D01*
X36384818Y43023810D02*
X35384818Y43023810D01*
X35384818Y43023810D02*
X35527675Y42928572D01*
X35527675Y42928572D02*
X35622913Y42833334D01*
X35622913Y42833334D02*
X35670532Y42738096D01*
X35480056Y43690477D02*
X35432437Y43738096D01*
X35432437Y43738096D02*
X35384818Y43833334D01*
X35384818Y43833334D02*
X35384818Y44071429D01*
X35384818Y44071429D02*
X35432437Y44166667D01*
X35432437Y44166667D02*
X35480056Y44214286D01*
X35480056Y44214286D02*
X35575294Y44261905D01*
X35575294Y44261905D02*
X35670532Y44261905D01*
X35670532Y44261905D02*
X35813389Y44214286D01*
X35813389Y44214286D02*
X36384818Y43642858D01*
X36384818Y43642858D02*
X36384818Y44261905D01*
X46261905Y36795181D02*
X46261905Y37795181D01*
X46261905Y37795181D02*
X46500000Y37795181D01*
X46500000Y37795181D02*
X46642857Y37747562D01*
X46642857Y37747562D02*
X46738095Y37652324D01*
X46738095Y37652324D02*
X46785714Y37557086D01*
X46785714Y37557086D02*
X46833333Y37366610D01*
X46833333Y37366610D02*
X46833333Y37223753D01*
X46833333Y37223753D02*
X46785714Y37033277D01*
X46785714Y37033277D02*
X46738095Y36938039D01*
X46738095Y36938039D02*
X46642857Y36842800D01*
X46642857Y36842800D02*
X46500000Y36795181D01*
X46500000Y36795181D02*
X46261905Y36795181D01*
X47738095Y37795181D02*
X47261905Y37795181D01*
X47261905Y37795181D02*
X47214286Y37318991D01*
X47214286Y37318991D02*
X47261905Y37366610D01*
X47261905Y37366610D02*
X47357143Y37414229D01*
X47357143Y37414229D02*
X47595238Y37414229D01*
X47595238Y37414229D02*
X47690476Y37366610D01*
X47690476Y37366610D02*
X47738095Y37318991D01*
X47738095Y37318991D02*
X47785714Y37223753D01*
X47785714Y37223753D02*
X47785714Y36985658D01*
X47785714Y36985658D02*
X47738095Y36890420D01*
X47738095Y36890420D02*
X47690476Y36842800D01*
X47690476Y36842800D02*
X47595238Y36795181D01*
X47595238Y36795181D02*
X47357143Y36795181D01*
X47357143Y36795181D02*
X47261905Y36842800D01*
X47261905Y36842800D02*
X47214286Y36890420D01*
D12*
%TO.C,C7*%
X48120000Y83500000D02*
G75*
G03*
X31880000Y83500000I-8120000J0D01*
G01*
X31880000Y83500000D02*
G75*
G03*
X48120000Y83500000I8120000J0D01*
G01*
%TO.C,D6*%
X45660000Y43610000D02*
X45420000Y43940000D01*
X45900000Y43940000D01*
X45660000Y43610000D01*
G36*
X45660000Y43610000D02*
G01*
X45420000Y43940000D01*
X45900000Y43940000D01*
X45660000Y43610000D01*
G37*
X47760000Y40420000D02*
X47760000Y41350000D01*
X47760000Y40420000D02*
X46300000Y40420000D01*
X47760000Y43580000D02*
X47760000Y42650000D01*
X46960000Y43580000D02*
X47760000Y43580000D01*
X46960000Y43580000D02*
X46160000Y43580000D01*
%TO.C,R4*%
X33977500Y15254724D02*
X33977500Y14745276D01*
X35022500Y15254724D02*
X35022500Y14745276D01*
%TO.C,R6*%
X33977500Y22254724D02*
X33977500Y21745276D01*
X35022500Y22254724D02*
X35022500Y21745276D01*
%TO.C,Q4*%
X36660000Y16610000D02*
X36420000Y16940000D01*
X36900000Y16940000D01*
X36660000Y16610000D01*
G36*
X36660000Y16610000D02*
G01*
X36420000Y16940000D01*
X36900000Y16940000D01*
X36660000Y16610000D01*
G37*
X38760000Y13420000D02*
X38760000Y14350000D01*
X38760000Y13420000D02*
X37300000Y13420000D01*
X38760000Y16580000D02*
X38760000Y15650000D01*
X37960000Y16580000D02*
X38760000Y16580000D01*
X37960000Y16580000D02*
X37160000Y16580000D01*
%TO.C,SW1*%
X11000000Y48000000D02*
G75*
G03*
X8000000Y48000000I-1500000J0D01*
G01*
X8000000Y48000000D02*
G75*
G03*
X11000000Y48000000I1500000J0D01*
G01*
X6350000Y44800000D02*
X6350000Y51200000D01*
X12650000Y51200000D02*
X6350000Y51200000D01*
X12650000Y44800000D02*
X6350000Y44800000D01*
X12650000Y44800000D02*
X12650000Y51200000D01*
%TO.C,C4*%
X20489999Y77646267D02*
X20489999Y77353733D01*
X21509999Y77646267D02*
X21509999Y77353733D01*
%TO.C,Q11*%
X36659999Y41110000D02*
X36419999Y41440000D01*
X36899999Y41440000D01*
X36659999Y41110000D01*
G36*
X36659999Y41110000D02*
G01*
X36419999Y41440000D01*
X36899999Y41440000D01*
X36659999Y41110000D01*
G37*
X38759999Y37920000D02*
X38759999Y38850000D01*
X38759999Y37920000D02*
X37299999Y37920000D01*
X38759999Y41080000D02*
X38759999Y40150000D01*
X37959999Y41080000D02*
X38759999Y41080000D01*
X37959999Y41080000D02*
X37159999Y41080000D01*
%TO.C,Q7*%
X36660000Y27110000D02*
X36420000Y27440000D01*
X36900000Y27440000D01*
X36660000Y27110000D01*
G36*
X36660000Y27110000D02*
G01*
X36420000Y27440000D01*
X36900000Y27440000D01*
X36660000Y27110000D01*
G37*
X38760000Y23920000D02*
X38760000Y24850000D01*
X38760000Y23920000D02*
X37300000Y23920000D01*
X38760000Y27080000D02*
X38760000Y26150000D01*
X37960000Y27080000D02*
X38760000Y27080000D01*
X37960000Y27080000D02*
X37160000Y27080000D01*
%TO.C,R8*%
X33977499Y29254724D02*
X33977499Y28745276D01*
X35022499Y29254724D02*
X35022499Y28745276D01*
%TO.C,R15*%
X29245276Y44477500D02*
X29754724Y44477500D01*
X29245276Y45522500D02*
X29754724Y45522500D01*
%TO.C,R14*%
X29754724Y52522500D02*
X29245276Y52522500D01*
X29754724Y51477500D02*
X29245276Y51477500D01*
%TO.C,R11*%
X33977499Y39754724D02*
X33977499Y39245276D01*
X35022499Y39754724D02*
X35022499Y39245276D01*
%TO.C,C1*%
X23853733Y85989999D02*
X24146267Y85989999D01*
X23853733Y87009999D02*
X24146267Y87009999D01*
%TO.C,R1*%
X33977500Y8254724D02*
X33977500Y7745276D01*
X35022500Y8254724D02*
X35022500Y7745276D01*
%TO.C,J8*%
X25216000Y22530999D02*
X22616000Y22530999D01*
X22616000Y25190999D02*
X22616000Y22530999D01*
X25216000Y25190999D02*
X25216000Y22530999D01*
X25216000Y25190999D02*
X22616000Y25190999D01*
X26486000Y25190999D02*
X27816000Y25190999D01*
X27816000Y25190999D02*
X27816000Y23860999D01*
%TO.C,Q8*%
X36660000Y30610000D02*
X36420000Y30940000D01*
X36900000Y30940000D01*
X36660000Y30610000D01*
G36*
X36660000Y30610000D02*
G01*
X36420000Y30940000D01*
X36900000Y30940000D01*
X36660000Y30610000D01*
G37*
X38760000Y27420000D02*
X38760000Y28350000D01*
X38760000Y27420000D02*
X37300000Y27420000D01*
X38760000Y30580000D02*
X38760000Y29650000D01*
X37960000Y30580000D02*
X38760000Y30580000D01*
X37960000Y30580000D02*
X37160000Y30580000D01*
%TO.C,C5*%
X29990000Y2146267D02*
X29990000Y1853733D01*
X31010000Y2146267D02*
X31010000Y1853733D01*
%TO.C,R7*%
X33977500Y25754724D02*
X33977500Y25245276D01*
X35022500Y25754724D02*
X35022500Y25245276D01*
%TO.C,R16*%
X31245276Y3977500D02*
X31754724Y3977500D01*
X31245276Y5022500D02*
X31754724Y5022500D01*
%TO.C,Q6*%
X36660000Y23610000D02*
X36420000Y23940000D01*
X36900000Y23940000D01*
X36660000Y23610000D01*
G36*
X36660000Y23610000D02*
G01*
X36420000Y23940000D01*
X36900000Y23940000D01*
X36660000Y23610000D01*
G37*
X38760000Y20420000D02*
X38760000Y21350000D01*
X38760000Y20420000D02*
X37300000Y20420000D01*
X38760000Y23580000D02*
X38760000Y22650000D01*
X37960000Y23580000D02*
X38760000Y23580000D01*
X37960000Y23580000D02*
X37160000Y23580000D01*
%TO.C,C2*%
X23853733Y80989999D02*
X24146267Y80989999D01*
X23853733Y82009999D02*
X24146267Y82009999D01*
%TO.C,D3*%
X45660000Y18110000D02*
X45420000Y18440000D01*
X45900000Y18440000D01*
X45660000Y18110000D01*
G36*
X45660000Y18110000D02*
G01*
X45420000Y18440000D01*
X45900000Y18440000D01*
X45660000Y18110000D01*
G37*
X47760000Y14920000D02*
X47760000Y15850000D01*
X47760000Y14920000D02*
X46300000Y14920000D01*
X47760000Y18080000D02*
X47760000Y17150000D01*
X46960000Y18080000D02*
X47760000Y18080000D01*
X46960000Y18080000D02*
X46160000Y18080000D01*
%TO.C,D2*%
X45660000Y13110000D02*
X45420000Y13440000D01*
X45900000Y13440000D01*
X45660000Y13110000D01*
G36*
X45660000Y13110000D02*
G01*
X45420000Y13440000D01*
X45900000Y13440000D01*
X45660000Y13110000D01*
G37*
X47760000Y9920000D02*
X47760000Y10850000D01*
X47760000Y9920000D02*
X46300000Y9920000D01*
X47760000Y13080000D02*
X47760000Y12150000D01*
X46960000Y13080000D02*
X47760000Y13080000D01*
X46960000Y13080000D02*
X46160000Y13080000D01*
%TO.C,C6*%
X31990000Y2146267D02*
X31990000Y1853733D01*
X33010000Y2146267D02*
X33010000Y1853733D01*
%TO.C,R10*%
X33977500Y36254725D02*
X33977500Y35745277D01*
X35022500Y36254725D02*
X35022500Y35745277D01*
%TO.C,R19*%
X12745276Y60977500D02*
X13254724Y60977500D01*
X12745276Y62022500D02*
X13254724Y62022500D01*
%TO.C,J6*%
X25215999Y41072998D02*
X22615999Y41072998D01*
X22615999Y43732998D02*
X22615999Y41072998D01*
X25215999Y43732998D02*
X25215999Y41072998D01*
X25215999Y43732998D02*
X22615999Y43732998D01*
X26485999Y43732998D02*
X27815999Y43732998D01*
X27815999Y43732998D02*
X27815999Y42402998D01*
%TO.C,R21*%
X17522500Y70245276D02*
X17522500Y70754724D01*
X16477500Y70245276D02*
X16477500Y70754724D01*
%TO.C,J4*%
X14548000Y22530999D02*
X11948000Y22530999D01*
X11948000Y25190999D02*
X11948000Y22530999D01*
X14548000Y25190999D02*
X14548000Y22530999D01*
X14548000Y25190999D02*
X11948000Y25190999D01*
X15818000Y25190999D02*
X17148000Y25190999D01*
X17148000Y25190999D02*
X17148000Y23860999D01*
%TO.C,U1*%
X29125000Y275000D02*
X29125000Y775000D01*
X29625000Y775000D01*
X29125000Y275000D01*
G36*
X29125000Y275000D02*
G01*
X29125000Y775000D01*
X29625000Y775000D01*
X29125000Y275000D01*
G37*
X10880000Y19630000D02*
X11880000Y19630000D01*
X10880000Y18850000D02*
X10880000Y19630000D01*
X10880000Y-6110000D02*
X10880000Y305000D01*
X29120000Y19630000D02*
X28120000Y19630000D01*
X29120000Y18850000D02*
X29120000Y19630000D01*
X29120000Y-6110000D02*
X10880000Y-6110000D01*
X29120000Y-6110000D02*
X29120000Y50000D01*
%TO.C,D4*%
X45660000Y30610000D02*
X45420000Y30940000D01*
X45900000Y30940000D01*
X45660000Y30610000D01*
G36*
X45660000Y30610000D02*
G01*
X45420000Y30940000D01*
X45900000Y30940000D01*
X45660000Y30610000D01*
G37*
X47760000Y27420000D02*
X47760000Y28350000D01*
X47760000Y27420000D02*
X46300000Y27420000D01*
X47760000Y30580000D02*
X47760000Y29650000D01*
X46960000Y30580000D02*
X47760000Y30580000D01*
X46960000Y30580000D02*
X46160000Y30580000D01*
%TO.C,Q14*%
X12939999Y58600000D02*
X12609999Y58840000D01*
X12939999Y59080000D01*
X12939999Y58600000D01*
G36*
X12939999Y58600000D02*
G01*
X12609999Y58840000D01*
X12939999Y59080000D01*
X12939999Y58600000D01*
G37*
X9419999Y56740000D02*
X10349999Y56740000D01*
X9419999Y56740000D02*
X9419999Y58200000D01*
X12579999Y56740000D02*
X11649999Y56740000D01*
X12579999Y57540000D02*
X12579999Y56740000D01*
X12579999Y57540000D02*
X12579999Y58340000D01*
%TO.C,R20*%
X19522500Y70245276D02*
X19522500Y70754724D01*
X18477500Y70245276D02*
X18477500Y70754724D01*
%TO.C,R9*%
X33977500Y32754725D02*
X33977500Y32245277D01*
X35022500Y32754725D02*
X35022500Y32245277D01*
%TO.C,Q9*%
X36660000Y34110000D02*
X36420000Y34440000D01*
X36900000Y34440000D01*
X36660000Y34110000D01*
G36*
X36660000Y34110000D02*
G01*
X36420000Y34440000D01*
X36900000Y34440000D01*
X36660000Y34110000D01*
G37*
X38760000Y30920000D02*
X38760000Y31850000D01*
X38760000Y30920000D02*
X37300000Y30920000D01*
X38760000Y34080000D02*
X38760000Y33150000D01*
X37960000Y34080000D02*
X38760000Y34080000D01*
X37960000Y34080000D02*
X37160000Y34080000D01*
%TO.C,R13*%
X29245275Y47477500D02*
X29754723Y47477500D01*
X29245275Y48522500D02*
X29754723Y48522500D01*
%TO.C,R3*%
X33977500Y11754724D02*
X33977500Y11245276D01*
X35022500Y11754724D02*
X35022500Y11245276D01*
%TO.C,R5*%
X33977500Y18754724D02*
X33977500Y18245276D01*
X35022500Y18754724D02*
X35022500Y18245276D01*
%TO.C,Q15*%
X16940000Y58600000D02*
X16610000Y58840000D01*
X16940000Y59080000D01*
X16940000Y58600000D01*
G36*
X16940000Y58600000D02*
G01*
X16610000Y58840000D01*
X16940000Y59080000D01*
X16940000Y58600000D01*
G37*
X13420000Y56740000D02*
X14350000Y56740000D01*
X13420000Y56740000D02*
X13420000Y58200000D01*
X16580000Y56740000D02*
X15650000Y56740000D01*
X16580000Y57540000D02*
X16580000Y56740000D01*
X16580000Y57540000D02*
X16580000Y58340000D01*
%TO.C,C8*%
X48120000Y47000000D02*
G75*
G03*
X31880000Y47000000I-8120000J0D01*
G01*
X31880000Y47000000D02*
G75*
G03*
X48120000Y47000000I8120000J0D01*
G01*
%TO.C,Q12*%
X36660000Y44610000D02*
X36420000Y44940000D01*
X36900000Y44940000D01*
X36660000Y44610000D01*
G36*
X36660000Y44610000D02*
G01*
X36420000Y44940000D01*
X36900000Y44940000D01*
X36660000Y44610000D01*
G37*
X38760000Y41420000D02*
X38760000Y42350000D01*
X38760000Y41420000D02*
X37300000Y41420000D01*
X38760000Y44580000D02*
X38760000Y43650000D01*
X37960000Y44580000D02*
X38760000Y44580000D01*
X37960000Y44580000D02*
X37160000Y44580000D01*
%TO.C,U2*%
X18939999Y74665000D02*
X18459999Y74665000D01*
X18699999Y74995000D01*
X18939999Y74665000D01*
G36*
X18939999Y74665000D02*
G01*
X18459999Y74665000D01*
X18699999Y74995000D01*
X18939999Y74665000D01*
G37*
X15999999Y85060000D02*
X14049999Y85060000D01*
X15999999Y85060000D02*
X17949999Y85060000D01*
X15999999Y74940000D02*
X14049999Y74940000D01*
X15999999Y74940000D02*
X17949999Y74940000D01*
%TO.C,SW2*%
X21500000Y48000000D02*
G75*
G03*
X18500000Y48000000I-1500000J0D01*
G01*
X18500000Y48000000D02*
G75*
G03*
X21500000Y48000000I1500000J0D01*
G01*
X16850000Y44800000D02*
X16850000Y51200000D01*
X23150000Y51200000D02*
X16850000Y51200000D01*
X23150000Y44800000D02*
X16850000Y44800000D01*
X23150000Y44800000D02*
X23150000Y51200000D01*
%TO.C,J7*%
X14547999Y41072998D02*
X11947999Y41072998D01*
X11947999Y43732998D02*
X11947999Y41072998D01*
X14547999Y43732998D02*
X14547999Y41072998D01*
X14547999Y43732998D02*
X11947999Y43732998D01*
X15817999Y43732998D02*
X17147999Y43732998D01*
X17147999Y43732998D02*
X17147999Y42402998D01*
%TO.C,Q2*%
X36660000Y9610000D02*
X36420000Y9940000D01*
X36900000Y9940000D01*
X36660000Y9610000D01*
G36*
X36660000Y9610000D02*
G01*
X36420000Y9940000D01*
X36900000Y9940000D01*
X36660000Y9610000D01*
G37*
X38760000Y6420000D02*
X38760000Y7350000D01*
X38760000Y6420000D02*
X37300000Y6420000D01*
X38760000Y9580000D02*
X38760000Y8650000D01*
X37960000Y9580000D02*
X38760000Y9580000D01*
X37960000Y9580000D02*
X37160000Y9580000D01*
%TO.C,R17*%
X20522500Y98245276D02*
X20522500Y98754724D01*
X19477500Y98245276D02*
X19477500Y98754724D01*
%TO.C,Q1*%
X36660000Y6110000D02*
X36420000Y6440000D01*
X36900000Y6440000D01*
X36660000Y6110000D01*
G36*
X36660000Y6110000D02*
G01*
X36420000Y6440000D01*
X36900000Y6440000D01*
X36660000Y6110000D01*
G37*
X38760000Y2920000D02*
X38760000Y3850000D01*
X38760000Y2920000D02*
X37300000Y2920000D01*
X38760000Y6080000D02*
X38760000Y5150000D01*
X37960000Y6080000D02*
X38760000Y6080000D01*
X37960000Y6080000D02*
X37160000Y6080000D01*
%TO.C,R18*%
X13254724Y64022500D02*
X12745276Y64022500D01*
X13254724Y62977500D02*
X12745276Y62977500D01*
%TO.C,R2*%
X33977499Y4754724D02*
X33977499Y4245276D01*
X35022499Y4754724D02*
X35022499Y4245276D01*
%TO.C,Q3*%
X36660000Y13110000D02*
X36420000Y13440000D01*
X36900000Y13440000D01*
X36660000Y13110000D01*
G36*
X36660000Y13110000D02*
G01*
X36420000Y13440000D01*
X36900000Y13440000D01*
X36660000Y13110000D01*
G37*
X38760000Y9920000D02*
X38760000Y10850000D01*
X38760000Y9920000D02*
X37300000Y9920000D01*
X38760000Y13080000D02*
X38760000Y12150000D01*
X37960000Y13080000D02*
X38760000Y13080000D01*
X37960000Y13080000D02*
X37160000Y13080000D01*
%TO.C,D1*%
X45660000Y8110000D02*
X45420000Y8440000D01*
X45900000Y8440000D01*
X45660000Y8110000D01*
G36*
X45660000Y8110000D02*
G01*
X45420000Y8440000D01*
X45900000Y8440000D01*
X45660000Y8110000D01*
G37*
X47760000Y4920000D02*
X47760000Y5850000D01*
X47760000Y4920000D02*
X46300000Y4920000D01*
X47760000Y8080000D02*
X47760000Y7150000D01*
X46960000Y8080000D02*
X47760000Y8080000D01*
X46960000Y8080000D02*
X46160000Y8080000D01*
%TO.C,Q5*%
X36660000Y20110000D02*
X36420000Y20440000D01*
X36900000Y20440000D01*
X36660000Y20110000D01*
G36*
X36660000Y20110000D02*
G01*
X36420000Y20440000D01*
X36900000Y20440000D01*
X36660000Y20110000D01*
G37*
X38760000Y16920000D02*
X38760000Y17850000D01*
X38760000Y16920000D02*
X37300000Y16920000D01*
X38760000Y20080000D02*
X38760000Y19150000D01*
X37960000Y20080000D02*
X38760000Y20080000D01*
X37960000Y20080000D02*
X37160000Y20080000D01*
%TO.C,C3*%
X24010000Y93353733D02*
X24010000Y93646267D01*
X22990000Y93353733D02*
X22990000Y93646267D01*
%TO.C,Q10*%
X36660000Y37610001D02*
X36420000Y37940001D01*
X36900000Y37940001D01*
X36660000Y37610001D01*
G36*
X36660000Y37610001D02*
G01*
X36420000Y37940001D01*
X36900000Y37940001D01*
X36660000Y37610001D01*
G37*
X38760000Y34420001D02*
X38760000Y35350001D01*
X38760000Y34420001D02*
X37300000Y34420001D01*
X38760000Y37580001D02*
X38760000Y36650001D01*
X37960000Y37580001D02*
X38760000Y37580001D01*
X37960000Y37580001D02*
X37160000Y37580001D01*
%TO.C,R12*%
X33977499Y43254724D02*
X33977499Y42745276D01*
X35022499Y43254724D02*
X35022499Y42745276D01*
%TO.C,D5*%
X45660000Y36110000D02*
X45420000Y36440000D01*
X45900000Y36440000D01*
X45660000Y36110000D01*
G36*
X45660000Y36110000D02*
G01*
X45420000Y36440000D01*
X45900000Y36440000D01*
X45660000Y36110000D01*
G37*
X47760000Y32920000D02*
X47760000Y33850000D01*
X47760000Y32920000D02*
X46300000Y32920000D01*
X47760000Y36080000D02*
X47760000Y35150000D01*
X46960000Y36080000D02*
X47760000Y36080000D01*
X46960000Y36080000D02*
X46160000Y36080000D01*
%TD*%
M02*
